<?xml version="1.0" encoding="UTF-8"?>
<!DOCTYPE svg PUBLIC "-//W3C//DTD SVG 1.1//EN" "http://www.w3.org/Graphics/SVG/1.1/DTD/svg11.dtd">
<!-- Creator: CorelDRAW 2021 (64-Bit) -->
<svg xmlns="http://www.w3.org/2000/svg" xml:space="preserve" width="288px" height="63px" version="1.1" style="shape-rendering:geometricPrecision; text-rendering:geometricPrecision; image-rendering:optimizeQuality; fill-rule:evenodd; clip-rule:evenodd"
viewBox="0 0 288 63.19"
 xmlns:xlink="http://www.w3.org/1999/xlink"
 xmlns:xodm="http://www.corel.com/coreldraw/odm/2003">
 <defs>
  <style type="text/css">
   <![CDATA[
    .fil0 {fill:#22202A;fill-rule:nonzero}
   ]]>
  </style>
 </defs>
 <g id="Layer_x0020_1">
  <metadata id="CorelCorpID_0Corel-Layer"/>
  <path class="fil0" d="M47.93 17.28l0 45.6 -15.23 0 0 -4.88c-1.68,1.85 -3.7,3.25 -6.06,4.21 -2.35,0.95 -4.85,1.43 -7.48,1.43 -5.89,0 -10.59,-1.74 -14.1,-5.22 -3.5,-3.48 -5.26,-8.69 -5.26,-15.65l0 -25.49 15.99 0 0 22.88c0,3.42 0.64,5.92 1.94,7.49 1.29,1.57 3.16,2.36 5.63,2.36 2.53,0 4.59,-0.89 6.19,-2.65 1.59,-1.77 2.39,-4.48 2.39,-8.12l0 -21.96 15.99 0z"/>
  <path id="_1" class="fil0" d="M104.22 32.17c3.36,1.18 6,3.01 7.91,5.51 1.9,2.5 2.86,5.51 2.86,9.05 0,5.16 -2.08,9.14 -6.23,11.94 -4.15,2.81 -10.15,4.21 -18,4.21l-31.81 0 0 -58.9 30.12 0c7.52,0 13.24,1.39 17.17,4.17 3.92,2.78 5.89,6.52 5.89,11.23 0,2.81 -0.69,5.32 -2.06,7.53 -1.38,2.22 -3.33,3.97 -5.85,5.26zm-28.78 -16.15l0 11.35 11.45 0c5.6,0 8.41,-1.9 8.41,-5.72 0,-3.76 -2.81,-5.63 -8.41,-5.63l-11.45 0zm13.97 34.83c5.83,0 8.75,-1.99 8.75,-5.98 0,-3.98 -2.92,-5.97 -8.75,-5.97l-13.97 0 0 11.95 13.97 0z"/>
  <path id="_2" class="fil0" d="M145.78 63.64c-4.88,0 -9.28,-1.01 -13.21,-3.03 -3.92,-2.02 -7,-4.82 -9.21,-8.42 -2.22,-3.59 -3.32,-7.65 -3.32,-12.2 0,-4.48 1.1,-8.52 3.32,-12.11 2.21,-3.59 5.27,-6.38 9.17,-8.37 3.9,-1.99 8.32,-2.99 13.25,-2.99 4.94,0 9.37,1 13.29,2.99 3.93,1.99 6.99,4.77 9.18,8.33 2.18,3.56 3.28,7.61 3.28,12.15 0,4.55 -1.1,8.61 -3.28,12.2 -2.19,3.6 -5.25,6.4 -9.18,8.42 -3.92,2.02 -8.35,3.03 -13.29,3.03zm0 -12.71c2.81,0 5.11,-0.97 6.9,-2.9 1.8,-1.93 2.69,-4.61 2.69,-8.04 0,-3.36 -0.89,-6 -2.69,-7.9 -1.79,-1.91 -4.09,-2.87 -6.9,-2.87 -2.8,0 -5.1,0.96 -6.9,2.87 -1.79,1.9 -2.69,4.54 -2.69,7.9 0,3.43 0.9,6.11 2.69,8.04 1.8,1.93 4.1,2.9 6.9,2.9z"/>
  <path id="_3" class="fil0" d="M201.82 63.64c-4.88,0 -9.29,-1.01 -13.21,-3.03 -3.93,-2.02 -7,-4.82 -9.21,-8.42 -2.22,-3.59 -3.33,-7.65 -3.33,-12.2 0,-4.48 1.11,-8.52 3.33,-12.11 2.21,-3.59 5.27,-6.38 9.17,-8.37 3.89,-1.99 8.31,-2.99 13.25,-2.99 4.93,0 9.36,1 13.29,2.99 3.93,1.99 6.98,4.77 9.17,8.33 2.19,3.56 3.28,7.61 3.28,12.15 0,4.55 -1.09,8.61 -3.28,12.2 -2.19,3.6 -5.24,6.4 -9.17,8.42 -3.93,2.02 -8.36,3.03 -13.29,3.03zm0 -12.71c2.8,0 5.1,-0.97 6.9,-2.9 1.79,-1.93 2.69,-4.61 2.69,-8.04 0,-3.36 -0.9,-6 -2.69,-7.9 -1.8,-1.91 -4.1,-2.87 -6.9,-2.87 -2.81,0 -5.11,0.96 -6.9,2.87 -1.8,1.9 -2.69,4.54 -2.69,7.9 0,3.43 0.89,6.11 2.69,8.04 1.79,1.93 4.09,2.9 6.9,2.9z"/>
  <polygon id="_4" class="fil0" points="255.67,46.89 250.95,51.69 250.95,62.88 234.97,62.88 234.97,0.45 250.95,0.45 250.95,33.18 267.28,17.28 286.21,17.28 267.28,36.8 287.81,62.88 268.45,62.88 "/>
 </g>
</svg>
