<?xml version="1.0" encoding="UTF-8"?>
<!DOCTYPE svg PUBLIC "-//W3C//DTD SVG 1.1//EN" "http://www.w3.org/Graphics/SVG/1.1/DTD/svg11.dtd">
<!-- Creator: CorelDRAW 2021 (64-Bit) -->
<svg xmlns="http://www.w3.org/2000/svg" xml:space="preserve" width="193px" height="42px" version="1.1" style="shape-rendering:geometricPrecision; text-rendering:geometricPrecision; image-rendering:optimizeQuality; fill-rule:evenodd; clip-rule:evenodd"
viewBox="0 0 193 42.35"
 xmlns:xlink="http://www.w3.org/1999/xlink"
 xmlns:xodm="http://www.corel.com/coreldraw/odm/2003">
 <defs>
  <style type="text/css">
   <![CDATA[
    .fil0 {fill:#FAFAFA;fill-rule:nonzero}
   ]]>
  </style>
 </defs>
 <g id="Layer_x0020_1">
  <metadata id="CorelCorpID_0Corel-Layer"/>
  <path class="fil0" d="M33.16 12.3l0 29.92 -9.99 0 0 -3.21c-1.11,1.22 -2.43,2.14 -3.98,2.76 -1.54,0.63 -3.18,0.94 -4.91,0.94 -3.86,0 -6.94,-1.14 -9.24,-3.42 -2.3,-2.28 -3.45,-5.7 -3.45,-10.27l0 -16.72 10.49 0 0 15.01c0,2.25 0.42,3.89 1.27,4.92 0.84,1.03 2.07,1.54 3.69,1.54 1.66,0 3.01,-0.58 4.06,-1.74 1.05,-1.16 1.57,-2.93 1.57,-5.32l0 -14.41 10.49 0z"/>
  <path id="_1" class="fil0" d="M70.08 22.07c2.21,0.77 3.94,1.98 5.19,3.62 1.25,1.63 1.87,3.61 1.87,5.93 0,3.38 -1.36,6 -4.08,7.84 -2.72,1.84 -6.66,2.76 -11.81,2.76l-20.86 0 0 -38.64 19.76 0c4.93,0 8.68,0.91 11.25,2.73 2.58,1.83 3.87,4.28 3.87,7.37 0,1.84 -0.45,3.49 -1.35,4.94 -0.9,1.46 -2.18,2.61 -3.84,3.45zm-18.87 -10.6l0 7.46 7.5 0c3.68,0 5.52,-1.26 5.52,-3.76 0,-2.46 -1.84,-3.7 -5.52,-3.7l-7.5 0zm9.16 22.85c3.82,0 5.74,-1.3 5.74,-3.92 0,-2.61 -1.92,-3.91 -5.74,-3.91l-9.16 0 0 7.83 9.16 0z"/>
  <path id="_2" class="fil0" d="M97.34 42.71c-3.2,0 -6.08,-0.66 -8.66,-1.98 -2.58,-1.33 -4.59,-3.17 -6.04,-5.52 -1.46,-2.36 -2.18,-5.03 -2.18,-8.01 0,-2.94 0.72,-5.59 2.18,-7.94 1.45,-2.36 3.46,-4.19 6.01,-5.5 2.56,-1.3 5.46,-1.95 8.69,-1.95 3.24,0 6.15,0.65 8.72,1.95 2.58,1.31 4.59,3.13 6.02,5.47 1.44,2.34 2.15,4.99 2.15,7.97 0,2.98 -0.71,5.65 -2.15,8.01 -1.43,2.35 -3.44,4.19 -6.02,5.52 -2.57,1.32 -5.48,1.98 -8.72,1.98zm0 -8.33c1.84,0 3.35,-0.64 4.53,-1.91 1.18,-1.26 1.77,-3.02 1.77,-5.27 0,-2.2 -0.59,-3.93 -1.77,-5.18 -1.18,-1.25 -2.69,-1.88 -4.53,-1.88 -1.84,0 -3.34,0.63 -4.52,1.88 -1.18,1.25 -1.77,2.98 -1.77,5.18 0,2.25 0.59,4.01 1.77,5.27 1.18,1.27 2.68,1.91 4.52,1.91z"/>
  <path id="_3" class="fil0" d="M134.1 42.71c-3.2,0 -6.09,-0.66 -8.66,-1.98 -2.58,-1.33 -4.59,-3.17 -6.05,-5.52 -1.45,-2.36 -2.18,-5.03 -2.18,-8.01 0,-2.94 0.73,-5.59 2.18,-7.94 1.46,-2.36 3.46,-4.19 6.02,-5.5 2.56,-1.3 5.45,-1.95 8.69,-1.95 3.24,0 6.15,0.65 8.72,1.95 2.58,1.31 4.58,3.13 6.02,5.47 1.43,2.34 2.15,4.99 2.15,7.97 0,2.98 -0.72,5.65 -2.15,8.01 -1.44,2.35 -3.44,4.19 -6.02,5.52 -2.57,1.32 -5.48,1.98 -8.72,1.98zm0 -8.33c1.84,0 3.35,-0.64 4.53,-1.91 1.17,-1.26 1.76,-3.02 1.76,-5.27 0,-2.2 -0.59,-3.93 -1.76,-5.18 -1.18,-1.25 -2.69,-1.88 -4.53,-1.88 -1.84,0 -3.35,0.63 -4.52,1.88 -1.18,1.25 -1.77,2.98 -1.77,5.18 0,2.25 0.59,4.01 1.77,5.27 1.17,1.27 2.68,1.91 4.52,1.91z"/>
  <polygon id="_4" class="fil0" points="169.42,31.73 166.33,34.88 166.33,42.22 155.85,42.22 155.85,1.26 166.33,1.26 166.33,22.73 177.04,12.3 189.46,12.3 177.04,25.11 190.51,42.22 177.81,42.22 "/>
 </g>
</svg>
