<?xml version="1.0" encoding="UTF-8"?>
<!DOCTYPE svg PUBLIC "-//W3C//DTD SVG 1.1//EN" "http://www.w3.org/Graphics/SVG/1.1/DTD/svg11.dtd">
<!-- Creator: CorelDRAW 2021 (64-Bit) -->
<svg xmlns="http://www.w3.org/2000/svg" xml:space="preserve" width="294px" height="220px" version="1.1" style="shape-rendering:geometricPrecision; text-rendering:geometricPrecision; image-rendering:optimizeQuality; fill-rule:evenodd; clip-rule:evenodd"
viewBox="0 0 294 220.69"
 xmlns:xlink="http://www.w3.org/1999/xlink"
 xmlns:xodm="http://www.corel.com/coreldraw/odm/2003">
 <defs>
  <style type="text/css">
   <![CDATA[
    .fil15 {fill:#092444;fill-rule:nonzero}
    .fil5 {fill:#1D3F70;fill-rule:nonzero}
    .fil2 {fill:#22202A;fill-rule:nonzero}
    .fil17 {fill:#23659B;fill-rule:nonzero}
    .fil16 {fill:#3A72AA;fill-rule:nonzero}
    .fil20 {fill:#6B0964;fill-rule:nonzero}
    .fil23 {fill:#7640CC;fill-rule:nonzero}
    .fil22 {fill:#9358E0;fill-rule:nonzero}
    .fil19 {fill:#A523A2;fill-rule:nonzero}
    .fil9 {fill:#CE3932;fill-rule:nonzero}
    .fil18 {fill:#CE4ABF;fill-rule:nonzero}
    .fil8 {fill:#DD4A43;fill-rule:nonzero}
    .fil0 {fill:#DED7FF;fill-rule:nonzero}
    .fil12 {fill:#E57D61;fill-rule:nonzero}
    .fil13 {fill:#EB5648;fill-rule:nonzero}
    .fil14 {fill:#F49F9F;fill-rule:nonzero}
    .fil21 {fill:#F4D4BE;fill-rule:nonzero}
    .fil4 {fill:#F99370;fill-rule:nonzero}
    .fil3 {fill:#FAFAFA;fill-rule:nonzero}
    .fil10 {fill:#FCB4B4;fill-rule:nonzero}
    .fil11 {fill:#FCB5A7;fill-rule:nonzero}
    .fil7 {fill:#FFDCDC;fill-rule:nonzero}
    .fil6 {fill:#FFEEEE;fill-rule:nonzero}
    .fil1 {fill:white;fill-rule:nonzero}
   ]]>
  </style>
 </defs>
 <g id="Layer_x0020_1">
  <metadata id="CorelCorpID_0Corel-Layer"/>
  <g id="_2468984244448">
   <path class="fil0" d="M56.48 221.53c0,0 -35.46,-101.96 -11.24,-124.41 16.2,-15 33.36,18.07 53.85,0.57 18.23,-15.57 -7.19,-54.82 23.24,-65.08 31.98,-10.79 58.19,76.59 85.02,64.51 32.57,-14.66 62.73,16.06 34.74,124.41l-185.61 0z"/>
   <path class="fil1" d="M31.17 221.36c-0.01,-0.04 -0.35,-1.03 -0.93,-2.85l1.42 -0.45c0.57,1.8 0.91,2.8 0.92,2.81l-1.41 0.49z"/>
   <path class="fil2" d="M128.64 2.8l-0.42 -1.43c1.98,-0.57 4.17,-0.67 6.17,-0.39l-0.2 1.47c-1.8,-0.25 -3.77,-0.16 -5.55,0.35zm15.29 5.01c-1.46,-1.45 -2.97,-2.64 -4.49,-3.51l0.74 -1.29c1.64,0.94 3.25,2.2 4.8,3.76l-1.05 1.04zm-23.54 2.17l-1.28 -0.76c1.15,-1.92 2.43,-3.53 3.8,-4.78l1 1.1c-1.26,1.15 -2.45,2.65 -3.52,4.44zm30.37 7.25c-1.02,-1.81 -2.07,-3.48 -3.12,-4.96l1.21 -0.86c1.08,1.52 2.16,3.23 3.21,5.09l-1.3 0.73zm-34.75 3.54l-1.43 -0.41c0.58,-2.06 1.22,-3.98 1.9,-5.7l1.38 0.54c-0.66,1.68 -1.28,3.55 -1.85,5.57zm39.84 7.1c-0.79,-1.91 -1.6,-3.73 -2.39,-5.4l1.34 -0.64c0.81,1.7 1.62,3.54 2.42,5.47l-1.37 0.57zm-42.33 4.44l-1.46 -0.24c0.33,-2.07 0.7,-4.05 1.09,-5.88l1.45 0.3c-0.38,1.82 -0.74,3.78 -1.08,5.82zm46.46 6.66c-0.67,-1.95 -1.33,-3.83 -1.98,-5.58l1.39 -0.52c0.66,1.76 1.33,3.66 2,5.62l-1.41 0.48zm-47.97 5.09l-1.48 -0.15c0.21,-2.06 0.43,-4.05 0.67,-5.93l1.48 0.19c-0.24,1.86 -0.47,3.85 -0.67,5.89zm51.57 6.22c-0.61,-2.03 -1.19,-3.89 -1.75,-5.67l1.41 -0.45c0.57,1.79 1.15,3.65 1.76,5.69l-1.42 0.43zm71.06 3.66c-1.81,-0.82 -3.59,-1.29 -5.42,-1.38l0.07 -1.49c2.01,0.11 3.98,0.62 5.97,1.52l-0.62 1.35zm-123.6 1.96l-1.49 -0.1c0.14,-2.07 0.29,-4.07 0.44,-5.94l1.48 0.12c-0.15,1.87 -0.3,3.86 -0.43,5.92zm108.11 1.01l-0.99 -1.11c1.68,-1.5 3.38,-2.66 5.05,-3.45l0.63 1.35c-1.53,0.72 -3.11,1.8 -4.69,3.21zm24.43 4.18c-1.34,-1.56 -2.72,-2.93 -4.12,-4.08l0.95 -1.15c1.46,1.2 2.9,2.64 4.3,4.26l-1.13 0.97zm-76.66 0.59c-0.49,-1.7 -1.07,-3.71 -1.65,-5.71l1.43 -0.41c0.58,2 1.16,4.01 1.65,5.71l-1.43 0.41zm-125.92 3.14l-0.93 -1.16c1.78,-1.42 3.63,-2.38 5.51,-2.85l0.36 1.45c-1.67,0.41 -3.33,1.27 -4.94,2.56zm15.49 0.03c-1.75,-1.18 -3.46,-2.01 -5.09,-2.47l0.4 -1.43c1.79,0.5 3.65,1.39 5.52,2.67l-0.83 1.23zm155.17 1.02l-1.23 -0.84c1.24,-1.82 2.41,-3.39 3.58,-4.82l1.15 0.94c-1.14,1.39 -2.29,2.94 -3.5,4.72zm-101.28 1.9l-1.49 -0.07c0.1,-2.16 0.2,-4.11 0.31,-5.94l1.48 0.08c-0.1,1.83 -0.2,3.77 -0.3,5.93zm139.73 3.01c-0.97,-1.79 -1.99,-3.48 -3.02,-5.03l1.24 -0.82c1.06,1.58 2.09,3.32 3.09,5.14l-1.31 0.71zm-185.18 2.08c-1.36,-1.61 -2.7,-3.06 -3.98,-4.3l1.04 -1.07c1.31,1.27 2.68,2.76 4.08,4.41l-1.14 0.96zm105.31 0.25c-0.49,-1.64 -1.02,-3.46 -1.67,-5.71l1.43 -0.41c0.65,2.24 1.18,4.06 1.67,5.7l-1.43 0.42zm-136.44 0.71l-1.29 -0.75c1.09,-1.88 2.21,-3.57 3.34,-5.02l1.17 0.91c-1.08,1.4 -2.17,3.04 -3.22,4.86zm171.69 2.14l-1.29 -0.73c1.11,-1.95 2.09,-3.64 3.01,-5.15l1.27 0.77c-0.91,1.5 -1.89,3.17 -2.99,5.11zm-95.64 3.7l-1.49 -0.07c0.09,-1.97 0.17,-3.95 0.26,-5.94l1.49 0.06c-0.09,1.99 -0.18,3.98 -0.26,5.95zm145.14 1.82c-0.72,-1.88 -1.49,-3.71 -2.27,-5.43l1.35 -0.62c0.8,1.75 1.57,3.61 2.31,5.52l-1.39 0.53zm-182.98 0.84c-1.21,-1.77 -2.33,-3.35 -3.43,-4.83l1.2 -0.88c1.11,1.49 2.24,3.08 3.46,4.87l-1.23 0.84zm-43.27 2.11l-1.38 -0.56c0.74,-1.84 1.55,-3.7 2.38,-5.48l1.35 0.63c-0.83,1.75 -1.62,3.59 -2.35,5.41zm145.13 0.05c-0.6,-1.71 -1.22,-3.56 -1.88,-5.67l1.42 -0.44c0.66,2.08 1.27,3.92 1.86,5.62l-1.4 0.49zm25.81 1.86l-1.29 -0.74c0.95,-1.66 1.9,-3.38 2.9,-5.18l1.3 0.72c-1,1.81 -1.95,3.53 -2.91,5.2zm-90.42 5.22l-1.49 -0.09c0.11,-1.77 0.21,-3.71 0.32,-5.93l1.48 0.07c-0.1,2.23 -0.21,4.18 -0.31,5.95zm-30.78 0.7c-1.23,-1.96 -2.25,-3.55 -3.19,-5.01l1.25 -0.8c0.94,1.46 1.96,3.05 3.2,5.02l-1.26 0.79zm180.22 0.42c-0.55,-1.93 -1.13,-3.83 -1.73,-5.64l1.41 -0.47c0.61,1.84 1.2,3.76 1.75,5.71l-1.43 0.4zm-80.13 2.85c-0.85,-1.52 -1.7,-3.31 -2.59,-5.45l1.38 -0.56c0.86,2.08 1.68,3.81 2.51,5.28l-1.3 0.73zm-153.64 0.05l-1.43 -0.41c0.55,-1.92 1.15,-3.84 1.79,-5.69l1.4 0.48c-0.62,1.83 -1.21,3.72 -1.76,5.62zm168.28 0.86l-1.16 -0.92c1.01,-1.29 2.1,-2.87 3.33,-4.83l1.26 0.79c-1.26,2 -2.38,3.63 -3.43,4.96zm-7.51 5.15c-1.14,0 -2.25,-0.4 -3.3,-1.18l0.9 -1.19c1.55,1.15 3.02,1.15 4.68,0.19l0.75 1.28c-1.03,0.6 -2.05,0.9 -3.03,0.9zm-100.87 0.74c-1.11,-1.72 -2.23,-3.51 -3.19,-5.03l1.26 -0.79c0.95,1.52 2.08,3.3 3.18,5.01l-1.25 0.81zm23.46 1.14l-1.48 -0.17c0.2,-1.77 0.39,-3.7 0.56,-5.9l1.48 0.12c-0.17,2.21 -0.36,4.16 -0.56,5.95zm153.23 0.69c-0.41,-1.96 -0.85,-3.9 -1.31,-5.77l1.44 -0.35c0.46,1.89 0.91,3.84 1.32,5.81l-1.45 0.31zm-239.33 2.91l-1.46 -0.29c0.38,-1.96 0.8,-3.93 1.26,-5.83l1.44 0.34c-0.44,1.89 -0.86,3.83 -1.24,5.78zm69.46 5.08c-1.09,-1.38 -2.24,-2.97 -3.53,-4.85l1.23 -0.84c1.27,1.86 2.4,3.42 3.47,4.77l-1.17 0.92zm14.18 3.14l-1.38 -0.56c0.57,-1.41 1.08,-3.29 1.51,-5.59l1.46 0.28c-0.46,2.43 -0.98,4.35 -1.59,5.87zm157.78 0.5c-0.29,-1.96 -0.62,-3.93 -0.96,-5.83l1.46 -0.26c0.35,1.91 0.67,3.89 0.98,5.87l-1.48 0.22zm-243.2 2.95l-1.47 -0.17c0.22,-1.99 0.49,-3.97 0.78,-5.91l1.47 0.23c-0.29,1.91 -0.55,3.88 -0.78,5.85zm80.82 0.85c-2.15,-0.14 -3.55,-1.23 -5.53,-2.94l1 -1.09c1.7,1.44 2.85,2.42 4.59,2.55l0.05 1.48c-0.04,0 -0.07,0 -0.11,0zm163.88 7.94c-0.2,-1.97 -0.43,-3.95 -0.68,-5.87l1.48 -0.19c0.25,1.93 0.47,3.92 0.68,5.91l-1.48 0.15zm-245.63 2.99l-1.49 -0.07c0.1,-1.99 0.22,-3.99 0.37,-5.94l1.49 0.11c-0.16,1.94 -0.28,3.92 -0.37,5.9zm246.61 8.81c-0.12,-1.98 -0.27,-3.96 -0.43,-5.9l1.48 -0.13c0.17,1.95 0.31,3.95 0.44,5.94l-1.49 0.09zm-248.29 3.03c-0.02,-1.98 -0.02,-3.98 0.01,-5.95l1.49 0.02c-0.03,1.96 -0.04,3.95 -0.01,5.91l-1.49 0.02zm248.82 8.8c-0.05,-1.98 -0.12,-3.97 -0.21,-5.91l1.49 -0.07c0.08,1.95 0.16,3.95 0.21,5.94l-1.49 0.04zm-248.35 3.11c-0.13,-1.99 -0.24,-4 -0.31,-5.95l1.48 -0.06c0.08,1.94 0.18,3.93 0.31,5.91l-1.48 0.1zm249.97 8.75l-1.49 -0.01c0.01,-1.97 0,-3.96 -0.02,-5.92l1.49 -0.02c0.02,1.97 0.03,3.97 0.02,5.95zm-248.92 3.11c-0.22,-1.98 -0.42,-3.98 -0.59,-5.93l1.48 -0.13c0.17,1.94 0.37,3.92 0.59,5.89l-1.48 0.17zm248.68 8.78l-1.48 -0.05c0.06,-1.98 0.12,-3.97 0.16,-5.93l1.48 0.03c-0.04,1.96 -0.09,3.96 -0.16,5.95zm-247.09 3.02c-0.3,-1.97 -0.59,-3.95 -0.85,-5.9l1.47 -0.19c0.26,1.93 0.55,3.9 0.85,5.86l-1.47 0.23zm246.52 8.85l-1.48 -0.09c0.12,-1.98 0.23,-3.97 0.32,-5.91l1.49 0.07c-0.1,1.95 -0.2,3.95 -0.33,5.93zm-244.44 2.87c-0.39,-1.95 -0.76,-3.91 -1.1,-5.85l1.46 -0.26c0.35,1.93 0.71,3.89 1.1,5.82l-1.46 0.29zm243.58 8.99l-1.48 -0.12c0.16,-1.97 0.32,-3.96 0.47,-5.91l1.48 0.11c-0.14,1.95 -0.3,3.95 -0.47,5.92zm-241.04 2.64c-0.46,-1.92 -0.91,-3.87 -1.33,-5.8l1.45 -0.32c0.42,1.92 0.87,3.86 1.32,5.77l-1.44 0.35zm239.89 9.2l-1.48 -0.17c0.22,-1.97 0.42,-3.95 0.61,-5.89l1.48 0.14c-0.19,1.95 -0.4,3.94 -0.61,5.92zm-236.88 2.32c-0.53,-1.86 -1.06,-3.8 -1.57,-5.74l1.44 -0.38c0.51,1.94 1.03,3.86 1.56,5.71l-1.43 0.41z"/>
   <path class="fil1" d="M264.38 219.38l-1.47 -0.19c0.12,-0.97 0.24,-1.96 0.36,-2.95l1.47 0.18c-0.11,0.99 -0.24,1.98 -0.36,2.96z"/>
   <path class="fil2" d="M153.9 113.33c-1.49,-0.59 -3.1,-1.03 -4.71,-1.33l0 -0.05c-0.23,-0.01 -0.45,-0.03 -0.67,-0.04l0.06 -1.48c0.67,0.02 1.42,0.09 2.1,0.15l0 0.21c1.29,0.29 2.56,0.68 3.77,1.16l-0.55 1.38zm-16.25 1.24l-0.71 -1.31c1.78,-0.96 3.69,-1.71 5.67,-2.2l0.36 1.44c-1.86,0.46 -3.65,1.16 -5.32,2.07zm25.62 5.34c-1.35,-1.47 -2.8,-2.76 -4.32,-3.83l0.86 -1.22c1.6,1.14 3.13,2.5 4.56,4.04l-1.1 1.01zm-34.19 2.26l-1.18 -0.9c1.28,-1.68 2.65,-3.19 4.09,-4.48l0.99 1.1c-1.36,1.23 -2.68,2.67 -3.9,4.28zm40.68 7.42c-0.93,-1.84 -1.91,-3.55 -2.92,-5.08l1.24 -0.82c1.04,1.58 2.05,3.34 3,5.23l-1.32 0.67zm-46.44 2.75l-1.36 -0.59c0.83,-1.93 1.72,-3.75 2.65,-5.41l1.29 0.72c-0.9,1.62 -1.77,3.39 -2.58,5.28zm50.88 8.16c-0.66,-1.97 -1.34,-3.83 -2.03,-5.54l1.38 -0.56c0.7,1.74 1.39,3.63 2.06,5.62l-1.41 0.48zm-54.75 2.99l-1.43 -0.4c0.57,-2.01 1.16,-3.94 1.78,-5.73l1.41 0.48c-0.61,1.77 -1.2,3.67 -1.76,5.65zm58.07 8.38c-0.53,-2.07 -1.04,-3.94 -1.56,-5.72l1.43 -0.41c0.52,1.79 1.03,3.68 1.57,5.75l-1.44 0.38zm-60.82 3.16l-1.46 -0.3c0.43,-2.09 0.85,-4 1.29,-5.84l1.44 0.34c-0.43,1.83 -0.84,3.73 -1.27,5.8zm-46.59 1.86l-1 -1.1c1.63,-1.53 4.11,-2.04 6.13,-1.78l-0.21 1.48c-1.68,-0.21 -3.58,0.16 -4.92,1.4zm146.48 0.96l-1.22 -0.85c0.74,-1.05 1.29,-1.7 1.9,-2.23 1.26,-0.5 2.48,-0.75 3.66,-0.71l-0.05 1.48c-1.93,-0.01 -3.12,0.34 -4.29,2.31zm-133.19 4.69c-1.27,-1.91 -2.46,-3.38 -3.63,-4.48l1.02 -1.08c1.25,1.18 2.51,2.73 3.85,4.74l-1.24 0.82zm144.8 0.38c-0.89,-2.13 -1.82,-3.75 -2.83,-4.94l1.13 -0.96c1.11,1.3 2.12,3.05 3.07,5.32l-1.37 0.58zm-48.22 0.5c-0.36,-2.31 -0.69,-4.15 -1.04,-5.81l1.45 -0.31c0.36,1.69 0.7,3.56 1.06,5.9l-1.47 0.22zm-65.44 3.31l-1.47 -0.25c0.3,-1.73 0.66,-3.77 1.04,-5.88l1.47 0.27c-0.39,2.1 -0.74,4.14 -1.04,5.86zm-49.56 0.34l-1.42 -0.45c0.71,-2.26 1.4,-4.11 2.11,-5.67l1.35 0.62c-0.68,1.5 -1.35,3.3 -2.04,5.5zm145.65 1.01l-1.3 -0.72c1,-1.83 1.98,-3.61 2.89,-5.22l1.29 0.73c-0.91,1.6 -1.88,3.38 -2.88,5.21zm-121.54 4.81c-0.87,-1.64 -1.78,-3.43 -2.71,-5.31l1.33 -0.66c0.93,1.87 1.84,3.64 2.7,5.28l-1.32 0.69zm142.58 1.3c-0.58,-2.32 -1.07,-4.14 -1.54,-5.72l1.43 -0.42c0.47,1.6 0.97,3.44 1.56,5.78l-1.45 0.36zm-49.99 1.01c-0.3,-1.96 -0.58,-3.96 -0.85,-5.9l1.47 -0.2c0.27,1.93 0.55,3.93 0.85,5.88l-1.47 0.22zm-69.25 3.29l-1.46 -0.29c0.33,-1.62 0.66,-3.43 1.09,-5.85l1.46 0.26c-0.43,2.43 -0.76,4.25 -1.09,5.88zm92.37 0.01l-1.28 -0.76c0.88,-1.5 1.84,-3.19 2.94,-5.16l1.3 0.73c-1.1,1.98 -2.07,3.68 -2.96,5.19zm-142.91 0.03l-1.44 -0.37c0.48,-1.9 0.98,-3.89 1.48,-5.77l1.44 0.37c-0.5,1.89 -1,3.87 -1.48,5.77zm33.11 4.75c-0.96,-1.51 -1.99,-3.24 -3.07,-5.14l1.3 -0.73c1.06,1.88 2.08,3.59 3.02,5.08l-1.25 0.79zm139.6 2.49c-0.56,-2.03 -1.07,-4.07 -1.5,-5.79l1.44 -0.36c0.43,1.72 0.94,3.74 1.49,5.75l-1.43 0.4zm-50.45 1.19c-0.63,-1.9 -0.99,-3.65 -1.45,-5.86l1.46 -0.29c0.44,2.14 0.79,3.84 1.4,5.67l-1.41 0.48zm13.93 1.51l-1.15 -0.95c1.09,-1.31 2.22,-2.86 3.46,-4.75l1.24 0.82c-1.27,1.93 -2.43,3.52 -3.55,4.88zm78.76 1.28c-1.56,-1.01 -3.47,-1.33 -5.2,-1.1l-0.18 -1.47c2.06,-0.28 4.32,0.11 6.16,1.31l-0.78 1.26zm-218.18 0.3l-1.41 -0.47c0.55,-1.64 1.1,-3.5 1.7,-5.67l1.43 0.39c-0.6,2.2 -1.16,4.08 -1.72,5.75zm50.21 0.02l-1.28 -0.76c0.73,-1.22 1.4,-2.97 2.05,-5.36l1.43 0.4c-0.69,2.51 -1.41,4.38 -2.2,5.72zm-80.56 2.15c-1.68,-1.92 -3.01,-2.97 -4.31,-3.4l0.47 -1.41c2.01,0.67 3.7,2.4 4.96,3.83l-1.12 0.98zm74.79 0.15c-1.39,-0.66 -2.91,-2.02 -4.64,-4.16l1.16 -0.93c1.56,1.93 2.94,3.19 4.11,3.74l-0.63 1.35zm-88.57 0.36l-1.16 -0.92c1.48,-1.87 3.09,-3.22 4.78,-3.99l0.62 1.35c-1.48,0.68 -2.9,1.88 -4.24,3.56zm175.85 0.99c-1.14,0 -2.2,-0.45 -3.15,-1.32l1.01 -1.09c1.43,1.31 2.9,1.11 4.55,0.11l0.78 1.26c-1.11,0.69 -2.18,1.04 -3.19,1.04zm73.07 2.1l-1.22 -0.85c1.17,-1.68 2.32,-3.45 3.66,-4.83l1.07 1.03c-1.25,1.28 -2.39,3.04 -3.51,4.65zm-24.7 1.26c-0.83,-1.58 -1.61,-3.4 -2.37,-5.57l1.4 -0.5c0.74,2.1 1.49,3.86 2.29,5.38l-1.32 0.69zm44.85 1.73c-0.88,-1.97 -1.83,-3.68 -2.81,-5.09l1.22 -0.85c1.04,1.49 2.03,3.28 2.95,5.33l-1.36 0.61zm-230.32 2.09l-1.13 -0.96c1.05,-1.25 2.03,-2.85 2.98,-4.89l1.35 0.63c-1.01,2.16 -2.05,3.87 -3.2,5.22zm-17.03 0.32c-1.68,-1.4 -3.13,-3.08 -4.21,-4.39l1.15 -0.95c1.04,1.26 2.42,2.88 4.01,4.2l-0.95 1.14zm-26.96 1.88l-1.41 -0.5c0.72,-2.05 1.49,-3.92 2.3,-5.58l1.34 0.65c-0.79,1.61 -1.54,3.43 -2.23,5.43zm244.91 0.53l-0.56 -1.38c1.58,-0.67 3.48,-1.63 4.89,-2.88l0.98 1.12c-1.52,1.35 -3.59,2.42 -5.31,3.14zm-209.37 0.94c-1.06,0 -2.11,-0.13 -3.11,-0.4l0.38 -1.44c1.81,0.48 3.65,0.45 5.53,0.03l0.32 1.45c-1.06,0.24 -2.11,0.36 -3.12,0.36zm203.23 0.13c-2.09,-0.2 -3.99,-1.1 -5.67,-2.65l1.01 -1.09c1.45,1.35 3.02,2.09 4.81,2.26l-0.15 1.48zm39.25 5.28c-0.49,-2.01 -1.04,-3.92 -1.61,-5.68l1.41 -0.46c0.59,1.79 1.14,3.74 1.65,5.78l-1.45 0.36zm-281.08 4.53l-1.46 -0.3c0.41,-2.01 0.87,-3.98 1.36,-5.85l1.44 0.38c-0.49,1.84 -0.94,3.78 -1.34,5.77z"/>
   <path class="fil3" d="M265.01 207.29c-2.64,-0.4 -5.45,-0.07 -7.1,0.63 -34.75,21.47 -25.91,-18.12 -45.88,-14.62 -8.52,0.46 -17.62,16.57 -27.09,15.65 -2.53,-0.82 -3.57,-2.54 -4.82,-5.51 -4.54,-18.71 -15.7,-27.89 -30.4,-28.94l0 -0.06c-1.65,-0.07 -3.23,-0.07 -4.88,0l0 0.06c-14.7,1.05 -25.86,10.23 -30.39,28.94 -1.09,2.8 -2.41,4.42 -3.9,5.16 -9.59,3.58 -21.66,-19.61 -33.59,-15.29 -9.5,2.4 -8.83,20.63 -22.58,20.63 -13.31,0.48 -13.97,-7.62 -23.87,-6.75 -9.49,-0.18 -15.25,14.04 -14.76,14.34l263.06 0c0,0 -3.2,-12.68 -13.8,-14.24z"/>
   <path class="fil4" d="M191.84 120.04l-22.28 18.82c0,0 4.65,9.4 12.46,18.82l19.25 -16.25c0,0 -1.3,-11.63 -9.43,-21.39z"/>
   <path class="fil4" d="M102.72 120.04l22.28 18.82c0,0 -4.65,9.4 -12.46,18.82l-19.24 -16.25c0,0 1.29,-11.63 9.42,-21.39z"/>
   <polygon class="fil5" points="191.84,144.66 147.28,156.17 147.28,87.42 191.84,75.91 "/>
   <polygon class="fil5" points="147.28,156.17 102.72,144.66 102.72,75.91 147.28,87.42 "/>
   <polygon class="fil6" points="186.31,140.74 147.28,150.82 147.28,83.69 186.31,73.61 "/>
   <polygon class="fil7" points="180.81,108.78 162.06,113.62 162.06,85.63 180.81,80.78 "/>
   <path class="fil8" d="M157.36 81.72l0 33.11 -1.24 -0.94 -2.15 -1.63 -2.14 2.75 -1.25 1.59 0 -33.61c0,-0.43 0.29,-0.8 0.71,-0.91l0.54 -0.14 4.29 -1.11 0.07 -0.01c0.59,-0.16 1.17,0.29 1.17,0.9z"/>
   <polygon class="fil9" points="156.12,80.83 156.12,113.89 153.97,112.26 151.83,115.01 151.83,81.94 "/>
   <polygon class="fil7" points="186.31,140.74 190.04,143.54 190.04,76.38 186.31,73.61 "/>
   <polygon class="fil7" points="147.28,154.58 190.04,143.54 186.31,140.74 147.28,150.82 "/>
   <polygon class="fil6" points="147.28,150.82 108.25,140.74 108.25,73.61 147.28,83.69 "/>
   <polygon class="fil7" points="108.25,140.74 104.53,143.54 104.53,76.38 108.25,73.61 "/>
   <path class="fil10" d="M142.76 88.69c-0.05,0 -0.1,0 -0.15,-0.02l-18.73 -4.84c-0.31,-0.07 -0.49,-0.39 -0.41,-0.7 0.07,-0.3 0.39,-0.49 0.7,-0.41l18.73 4.84c0.31,0.08 0.49,0.39 0.41,0.7 -0.06,0.26 -0.3,0.43 -0.55,0.43z"/>
   <path class="fil10" d="M119.79 82.76c-0.05,0 -0.09,-0.01 -0.14,-0.02l-7.74 -2c-0.3,-0.08 -0.49,-0.39 -0.41,-0.7 0.08,-0.31 0.4,-0.49 0.7,-0.41l7.73 2c0.31,0.08 0.5,0.39 0.42,0.7 -0.07,0.26 -0.3,0.43 -0.56,0.43z"/>
   <path class="fil10" d="M142.76 94.29c-0.05,0 -0.1,0 -0.15,-0.02l-9.02 -2.33c-0.31,-0.08 -0.49,-0.39 -0.41,-0.7 0.08,-0.31 0.39,-0.49 0.7,-0.41l9.02 2.33c0.31,0.08 0.49,0.39 0.41,0.7 -0.06,0.26 -0.3,0.43 -0.55,0.43z"/>
   <path class="fil10" d="M130.99 91.25c-0.05,0 -0.1,0 -0.14,-0.02l-18.94 -4.89c-0.3,-0.08 -0.49,-0.39 -0.41,-0.7 0.08,-0.31 0.4,-0.49 0.7,-0.41l18.93 4.89c0.31,0.08 0.5,0.39 0.42,0.7 -0.07,0.26 -0.3,0.43 -0.56,0.43z"/>
   <path class="fil10" d="M142.76 99.89c-0.05,0 -0.1,0 -0.15,-0.02l-7.51 -1.94c-0.31,-0.08 -0.5,-0.39 -0.42,-0.7 0.08,-0.31 0.4,-0.49 0.7,-0.41l7.52 1.94c0.31,0.08 0.49,0.39 0.41,0.7 -0.06,0.26 -0.3,0.43 -0.55,0.43z"/>
   <path class="fil10" d="M131.95 97.1c-0.05,0 -0.1,-0.01 -0.15,-0.02l-11.34 -2.93c-0.3,-0.08 -0.49,-0.39 -0.41,-0.7 0.08,-0.31 0.39,-0.49 0.7,-0.41l11.34 2.93c0.31,0.08 0.49,0.39 0.41,0.7 -0.06,0.26 -0.3,0.43 -0.55,0.43z"/>
   <path class="fil10" d="M117.71 93.42c-0.05,0 -0.1,-0.01 -0.14,-0.02l-5.66 -1.46c-0.3,-0.08 -0.49,-0.39 -0.41,-0.7 0.08,-0.31 0.4,-0.49 0.7,-0.41l5.65 1.46c0.31,0.08 0.5,0.39 0.42,0.7 -0.07,0.26 -0.3,0.43 -0.56,0.43z"/>
   <path class="fil10" d="M142.76 105.49c-0.05,0 -0.1,0 -0.15,-0.02l-12.43 -3.21c-0.31,-0.08 -0.5,-0.39 -0.42,-0.7 0.08,-0.31 0.39,-0.49 0.7,-0.41l12.44 3.21c0.31,0.08 0.49,0.39 0.41,0.7 -0.06,0.26 -0.3,0.43 -0.55,0.43z"/>
   <path class="fil10" d="M125 100.91c-0.04,0 -0.09,-0.01 -0.14,-0.02l-12.95 -3.35c-0.3,-0.08 -0.49,-0.39 -0.41,-0.7 0.08,-0.31 0.4,-0.49 0.7,-0.41l12.95 3.34c0.3,0.08 0.49,0.39 0.41,0.7 -0.07,0.26 -0.3,0.44 -0.56,0.44z"/>
   <path class="fil10" d="M142.76 111.09c-0.05,0 -0.1,0 -0.15,-0.02l-30.7 -7.93c-0.3,-0.08 -0.49,-0.39 -0.41,-0.7 0.08,-0.31 0.4,-0.49 0.7,-0.41l30.7 7.93c0.31,0.08 0.49,0.39 0.41,0.7 -0.06,0.26 -0.3,0.43 -0.55,0.43z"/>
   <path class="fil10" d="M142.76 116.69c-0.05,0 -0.1,-0.01 -0.15,-0.02l-12.29 -3.18c-0.31,-0.07 -0.5,-0.39 -0.42,-0.7 0.08,-0.3 0.4,-0.49 0.7,-0.41l12.3 3.18c0.31,0.08 0.49,0.39 0.41,0.7 -0.06,0.26 -0.3,0.43 -0.55,0.43z"/>
   <path class="fil10" d="M126.61 112.52c-0.05,0 -0.1,-0.01 -0.14,-0.02l-14.56 -3.76c-0.3,-0.08 -0.49,-0.39 -0.41,-0.7 0.08,-0.31 0.4,-0.49 0.7,-0.41l14.56 3.76c0.3,0.07 0.49,0.39 0.41,0.7 -0.07,0.26 -0.3,0.43 -0.56,0.43z"/>
   <path class="fil10" d="M142.76 122.29c-0.05,0 -0.1,-0.01 -0.15,-0.02l-30.7 -7.93c-0.3,-0.08 -0.49,-0.39 -0.41,-0.7 0.08,-0.31 0.4,-0.49 0.7,-0.41l30.7 7.93c0.31,0.08 0.49,0.39 0.41,0.7 -0.06,0.26 -0.3,0.43 -0.55,0.43z"/>
   <path class="fil10" d="M142.76 127.89c-0.05,0 -0.1,0 -0.15,-0.02l-16.39 -4.23c-0.3,-0.08 -0.49,-0.4 -0.41,-0.7 0.08,-0.31 0.39,-0.5 0.7,-0.42l16.39 4.24c0.31,0.08 0.49,0.39 0.41,0.7 -0.06,0.26 -0.3,0.43 -0.55,0.43z"/>
   <path class="fil10" d="M121.87 122.49c-0.05,0 -0.09,0 -0.14,-0.01l-9.82 -2.54c-0.3,-0.08 -0.49,-0.39 -0.41,-0.7 0.08,-0.31 0.4,-0.49 0.7,-0.41l9.82 2.53c0.3,0.08 0.49,0.39 0.41,0.7 -0.07,0.26 -0.3,0.43 -0.56,0.43z"/>
   <path class="fil10" d="M142.76 133.49c-0.05,0 -0.1,-0.01 -0.15,-0.02l-8.55 -2.21c-0.31,-0.08 -0.49,-0.39 -0.41,-0.7 0.08,-0.31 0.39,-0.49 0.7,-0.41l8.55 2.21c0.31,0.08 0.49,0.39 0.41,0.7 -0.06,0.26 -0.3,0.43 -0.55,0.43z"/>
   <path class="fil10" d="M130.7 130.37c-0.05,0 -0.1,0 -0.15,-0.01l-17.81 -4.61c-0.3,-0.07 -0.49,-0.39 -0.41,-0.7 0.08,-0.3 0.39,-0.49 0.7,-0.41l17.81 4.6c0.31,0.08 0.49,0.39 0.41,0.7 -0.06,0.26 -0.3,0.43 -0.55,0.43z"/>
   <path class="fil10" d="M142.76 139.09c-0.05,0 -0.1,-0.01 -0.15,-0.02l-7.63 -1.97c-0.3,-0.08 -0.49,-0.39 -0.41,-0.7 0.08,-0.31 0.4,-0.49 0.7,-0.41l7.63 1.97c0.31,0.08 0.49,0.39 0.41,0.7 -0.06,0.26 -0.3,0.43 -0.55,0.43z"/>
   <path class="fil10" d="M132.57 136.46c-0.05,0 -0.1,-0.01 -0.15,-0.02l-10.14 -2.62c-0.3,-0.08 -0.49,-0.39 -0.41,-0.7 0.08,-0.31 0.4,-0.49 0.7,-0.42l10.14 2.62c0.31,0.08 0.49,0.4 0.42,0.71 -0.07,0.26 -0.31,0.43 -0.56,0.43z"/>
   <path class="fil10" d="M119.5 133.08c-0.05,0 -0.09,-0.01 -0.14,-0.02l-7.45 -1.92c-0.3,-0.08 -0.49,-0.39 -0.41,-0.7 0.08,-0.31 0.4,-0.49 0.7,-0.41l7.45 1.92c0.3,0.08 0.49,0.39 0.41,0.7 -0.07,0.26 -0.3,0.43 -0.56,0.43z"/>
   <path class="fil10" d="M142.76 144.69c-0.05,0 -0.1,-0.01 -0.15,-0.02l-30.7 -7.93c-0.3,-0.08 -0.49,-0.39 -0.41,-0.7 0.08,-0.31 0.4,-0.5 0.7,-0.41l30.7 7.93c0.31,0.08 0.49,0.39 0.41,0.7 -0.06,0.26 -0.3,0.43 -0.55,0.43z"/>
   <path class="fil10" d="M151.45 122.29c-0.26,0 -0.49,-0.17 -0.56,-0.43 -0.08,-0.31 0.11,-0.62 0.41,-0.7l6.96 -1.8c0.31,-0.08 0.62,0.11 0.7,0.41 0.08,0.31 -0.11,0.63 -0.41,0.71l-6.96 1.79c-0.04,0.01 -0.09,0.02 -0.14,0.02z"/>
   <path class="fil10" d="M162.06 119.55c-0.25,0 -0.49,-0.17 -0.55,-0.43 -0.08,-0.31 0.1,-0.63 0.41,-0.7l20.08 -5.19c0.31,-0.08 0.62,0.1 0.7,0.41 0.08,0.31 -0.1,0.62 -0.41,0.7l-20.08 5.19c-0.05,0.01 -0.1,0.02 -0.15,0.02z"/>
   <path class="fil10" d="M151.45 127.89c-0.26,0 -0.49,-0.17 -0.56,-0.43 -0.08,-0.31 0.11,-0.62 0.41,-0.7l17.16 -4.44c0.31,-0.08 0.63,0.11 0.7,0.42 0.08,0.31 -0.1,0.62 -0.41,0.7l-17.16 4.43c-0.04,0.02 -0.09,0.02 -0.14,0.02z"/>
   <path class="fil10" d="M173.12 122.29c-0.25,0 -0.49,-0.17 -0.55,-0.43 -0.08,-0.31 0.1,-0.62 0.41,-0.7l9.02 -2.33c0.31,-0.08 0.62,0.1 0.7,0.41 0.08,0.31 -0.1,0.62 -0.41,0.7l-9.02 2.33c-0.05,0.01 -0.1,0.02 -0.15,0.02z"/>
   <path class="fil10" d="M151.45 133.49c-0.26,0 -0.49,-0.17 -0.56,-0.43 -0.08,-0.31 0.11,-0.62 0.41,-0.7l29.99 -7.75c0.31,-0.08 0.63,0.1 0.71,0.41 0.08,0.31 -0.11,0.62 -0.42,0.7l-29.99 7.75c-0.04,0.01 -0.09,0.02 -0.14,0.02z"/>
   <path class="fil10" d="M151.45 139.09c-0.26,0 -0.49,-0.17 -0.56,-0.43 -0.08,-0.31 0.11,-0.62 0.41,-0.7l7.63 -1.97c0.31,-0.08 0.63,0.1 0.71,0.41 0.07,0.31 -0.11,0.62 -0.42,0.7l-7.63 1.97c-0.04,0.01 -0.09,0.02 -0.14,0.02z"/>
   <path class="fil10" d="M161.64 136.46c-0.26,0 -0.49,-0.17 -0.56,-0.43 -0.08,-0.31 0.11,-0.63 0.41,-0.71l10.14 -2.62c0.31,-0.08 0.62,0.11 0.7,0.42 0.08,0.31 -0.1,0.62 -0.41,0.7l-10.14 2.62c-0.05,0.01 -0.09,0.02 -0.14,0.02z"/>
   <path class="fil10" d="M174.7 133.08c-0.25,0 -0.49,-0.17 -0.55,-0.43 -0.08,-0.31 0.1,-0.62 0.41,-0.7l7.44 -1.92c0.31,-0.08 0.62,0.1 0.7,0.41 0.08,0.31 -0.1,0.62 -0.41,0.7l-7.44 1.92c-0.05,0.01 -0.1,0.02 -0.15,0.02z"/>
   <path class="fil10" d="M151.45 144.69c-0.26,0 -0.49,-0.17 -0.56,-0.43 -0.08,-0.31 0.11,-0.62 0.41,-0.7l14.09 -3.64c0.31,-0.08 0.62,0.1 0.7,0.41 0.08,0.31 -0.1,0.62 -0.41,0.7l-14.09 3.64c-0.04,0.01 -0.09,0.02 -0.14,0.02z"/>
   <path class="fil10" d="M169.82 139.94c-0.26,0 -0.49,-0.17 -0.56,-0.43 -0.08,-0.31 0.11,-0.62 0.42,-0.7l12.32 -3.18c0.31,-0.09 0.62,0.1 0.7,0.41 0.08,0.31 -0.1,0.62 -0.41,0.7l-12.33 3.18c-0.04,0.02 -0.09,0.02 -0.14,0.02z"/>
   <polygon class="fil7" points="147.28,154.58 104.53,143.54 108.25,140.74 147.28,150.82 "/>
   <path class="fil4" d="M118.1 126.54c-0.5,1 -1.24,1.98 -2.18,2.75 -0.37,0.3 -0.8,0.59 -1.23,0.85 -0.49,0.3 -0.98,0.57 -1.37,0.77 -0.53,0.27 -0.9,0.43 -0.9,0.43 0,0 -0.11,0.16 -0.29,0.44 -0.86,1.3 -3.32,5.26 -3.88,8.35 -0.04,0.23 -0.07,0.46 -0.09,0.68 -0.03,0.36 -0.03,0.7 0.01,1.02 0.12,0.94 0.26,1.86 0.42,2.76 0.1,0.57 0.21,1.12 0.33,1.67 0.34,1.64 0.74,3.18 1.14,4.55 0,0 0.01,0.01 0.01,0.01 1.2,4.12 2.44,6.79 2.47,6.86 0,0 0,0 0,0 -0.3,0.18 -0.29,9.6 -0.13,22.84 0.06,4.32 0.13,9.05 0.21,13.99 0.15,8.67 0.33,18.01 0.51,27.02l-29.87 0c0.6,-9.16 1.34,-18.95 2.26,-28.65 0.44,-4.75 0.93,-9.48 1.46,-14.09 1.65,-14.41 3.73,-27.74 6.32,-37.36 0.99,-3.7 2.94,-6.52 5.5,-8.85 1.19,-1.08 2.51,-2.06 3.92,-2.97 0.59,-0.38 1.19,-0.74 1.81,-1.1 1.19,-0.69 2.44,-1.36 3.72,-2.01 0.44,-0.22 0.89,-0.44 1.34,-0.67 1.01,-0.5 2.05,-1 3.1,-1.51 0,0 0,-0.01 0.01,-0.01 1.08,-0.52 2.17,-1.06 3.27,-1.61 0.21,-0.1 0.41,-0.19 0.6,-0.26 0.03,-0.01 0.05,-0.01 0.08,-0.02 0.19,-0.07 0.37,-0.11 0.53,-0.13 0.02,-0.01 0.05,-0.01 0.07,-0.01 1.84,-0.22 1.96,2.04 0.85,4.26z"/>
   <path class="fil11" d="M117.25 122.28c0,0 0.45,1.18 -1,2.6 -1.45,1.43 -2.45,1.59 -2.45,1.59 0,0 -0.44,-1.26 -1.11,-2.15 0,0 3.17,-1.86 4.56,-2.04z"/>
   <path class="fil12" d="M119.07 148.88c0,0 -5.51,0.1 -9,1.94 0,0 -0.56,-1.97 -1.15,-4.56l10.15 2.62z"/>
   <path class="fil12" d="M102.72 120.04c0,0 -2.58,7.01 -3.95,12.67 0,0 1.77,-1.7 3.95,-3.04l0 -9.63z"/>
   <path class="fil13" d="M118.2 221.53l-43.37 0c1.2,-10.53 2.65,-21 4.32,-29.07 0.15,-0.72 0.3,-1.4 0.46,-2.05 1.88,-7.74 4.46,-11.2 7.37,-11.62 0,0 10.62,4.85 25.43,1.73 0,0 4.15,1.36 4.9,12.64 0.29,4.23 0.6,15.68 0.89,28.37z"/>
   <path class="fil4" d="M182.15 180.52c0.17,-13.24 0.18,-22.66 -0.13,-22.84 0,0 0,0 0,0 0.03,-0.07 1.27,-2.74 2.48,-6.86 0,0 0,-0.01 0,-0.01 0.4,-1.37 0.8,-2.91 1.15,-4.55 0.11,-0.55 0.22,-1.1 0.32,-1.67 0.16,-0.9 0.31,-1.82 0.43,-2.76 0.04,-0.32 0.04,-0.66 0.01,-1.02 -0.02,-0.22 -0.05,-0.45 -0.1,-0.68 -0.55,-3.09 -3.02,-7.05 -3.87,-8.35 -0.19,-0.28 -0.3,-0.44 -0.3,-0.44 0,0 -0.42,-0.19 -1.01,-0.49 -0.37,-0.2 -0.81,-0.44 -1.25,-0.71 -0.43,-0.26 -0.86,-0.55 -1.24,-0.85 -0.97,-0.79 -1.72,-1.81 -2.21,-2.83 -1.07,-2.2 -0.93,-4.39 0.88,-4.18 0.18,0.02 0.38,0.06 0.59,0.13 0.02,0.01 0.04,0.01 0.06,0.02 0.19,0.07 0.41,0.16 0.63,0.27 1.05,0.53 2.1,1.04 3.14,1.55 0,0 0,0 0,0 1.09,0.53 2.18,1.06 3.25,1.58 0.45,0.23 0.89,0.45 1.33,0.67 1.29,0.65 2.53,1.32 3.73,2.01 0.61,0.36 1.21,0.72 1.8,1.1 1.41,0.91 2.73,1.89 3.92,2.97 2.56,2.33 4.51,5.15 5.51,8.85 2.59,9.62 4.66,22.95 6.31,37.36 0.54,4.63 1.02,9.38 1.47,14.16 0.91,9.67 1.65,19.44 2.25,28.58l-29.87 0c0.18,-9.06 0.36,-18.46 0.51,-27.16 0.08,-4.89 0.15,-9.57 0.21,-13.85z"/>
   <path class="fil11" d="M177.31 122.28c0,0 -0.45,1.18 1,2.6 1.45,1.43 2.46,1.59 2.46,1.59 0,0 0.29,-1.33 0.96,-2.22 0,0 -3.02,-1.79 -4.42,-1.97z"/>
   <path class="fil12" d="M175.5 148.88c0,0 5.5,0.1 9,1.94 0,0 0.56,-1.97 1.15,-4.56l-10.15 2.62z"/>
   <path class="fil12" d="M191.84 120.04c0,0 2.58,7.01 3.95,12.67 0,0 -1.77,-1.7 -3.95,-3.04l0 -9.63z"/>
   <path class="fil13" d="M219.73 221.53l-43.36 0c0.28,-12.69 0.6,-24.14 0.88,-28.37 0.75,-11.28 4.9,-12.64 4.9,-12.64 14.82,3.12 25.43,-1.73 25.43,-1.73 2.92,0.42 5.5,3.88 7.37,11.62 0.16,0.65 0.31,1.33 0.46,2.05 1.67,8.07 3.12,18.54 4.32,29.07z"/>
   <path class="fil10" d="M147.28 151.4c-0.32,0 -0.57,-0.26 -0.57,-0.58l0 -67.13c0,-0.32 0.25,-0.57 0.57,-0.57 0.32,0 0.58,0.25 0.58,0.57l0 67.13c0,0.32 -0.26,0.58 -0.58,0.58z"/>
   <path class="fil9" d="M117.31 193.16c-20.1,7 -37.7,-2.75 -37.7,-2.75 1.88,-7.74 4.46,-11.2 7.37,-11.62 0,0 10.62,4.85 25.43,1.73 0,0 4.15,1.36 4.9,12.64z"/>
   <path class="fil9" d="M214.95 190.41c-18.23,9.53 -37.7,2.75 -37.7,2.75 0.75,-11.28 4.9,-12.64 4.9,-12.64 14.82,3.12 25.43,-1.73 25.43,-1.73 2.92,0.42 5.5,3.88 7.37,11.62z"/>
   <polygon class="fil13" points="207.58,57.71 184.49,49.36 195.58,18.7 218.67,27.06 "/>
   <polygon class="fil9" points="218,24.71 218.67,27.06 207.58,57.71 206.9,55.37 "/>
   <polygon class="fil7" points="206.9,55.37 184.35,47.21 184.76,48.62 207.36,56.95 "/>
   <polygon class="fil13" points="206.9,55.37 183.81,47.01 194.9,16.36 218,24.71 "/>
   <path class="fil9" d="M214.33 30.2c-0.03,0 -0.06,0 -0.1,-0.01 -0.14,-0.05 -0.21,-0.21 -0.16,-0.35l1.46 -4.03 -4.7 -1.7c-0.15,-0.05 -0.22,-0.21 -0.17,-0.35 0.05,-0.14 0.21,-0.21 0.35,-0.16l4.96 1.79c0.14,0.05 0.22,0.21 0.16,0.35l-1.54 4.28c-0.04,0.11 -0.15,0.18 -0.26,0.18z"/>
   <path class="fil9" d="M205.88 53.56c-0.03,0 -0.07,0 -0.1,-0.01l-3.9 -1.42c-0.14,-0.05 -0.22,-0.21 -0.17,-0.35 0.06,-0.14 0.21,-0.21 0.35,-0.16l3.65 1.32 1.42 -3.92c0.06,-0.15 0.21,-0.22 0.35,-0.17 0.14,0.05 0.22,0.21 0.17,0.35l-1.52 4.18c-0.02,0.07 -0.07,0.13 -0.14,0.16 -0.03,0.01 -0.07,0.02 -0.11,0.02z"/>
   <path class="fil9" d="M189.92 47.79c-0.03,0 -0.06,-0.01 -0.09,-0.02l-3.99 -1.44c-0.07,-0.03 -0.13,-0.08 -0.16,-0.14 -0.03,-0.07 -0.03,-0.14 -0.01,-0.21l1.48 -4.09c0.06,-0.14 0.21,-0.22 0.35,-0.16 0.15,0.05 0.22,0.2 0.17,0.35l-1.39 3.83 3.74 1.35c0.14,0.05 0.21,0.21 0.16,0.35 -0.04,0.11 -0.15,0.18 -0.26,0.18z"/>
   <path class="fil9" d="M194.52 22.63c-0.03,0 -0.07,-0.01 -0.1,-0.02 -0.14,-0.05 -0.21,-0.21 -0.16,-0.35l1.42 -3.92c0.05,-0.14 0.21,-0.21 0.35,-0.16l4.44 1.6c0.14,0.06 0.22,0.21 0.17,0.35 -0.06,0.15 -0.21,0.22 -0.35,0.17l-4.19 -1.52 -1.33 3.67c-0.04,0.11 -0.14,0.18 -0.25,0.18z"/>
   <path class="fil14" d="M196.37 48.4l0 0c-4.8,-1.74 -7.28,-7.04 -5.55,-11.84l2.79 -7.69c1.74,-4.8 7.03,-7.28 11.83,-5.55l0 0c4.8,1.74 7.28,7.04 5.55,11.84l-2.79 7.69c-1.74,4.8 -7.03,7.28 -11.83,5.55z"/>
   <path class="fil8" d="M207.85 35.95c-0.03,0 -0.07,0 -0.1,-0.02l-12.33 -4.46c-0.14,-0.05 -0.21,-0.2 -0.16,-0.35 0.05,-0.14 0.21,-0.21 0.35,-0.16l12.33 4.46c0.14,0.05 0.21,0.21 0.16,0.35 -0.04,0.11 -0.14,0.18 -0.25,0.18z"/>
   <path class="fil8" d="M206.98 38.35c-0.03,0 -0.07,0 -0.1,-0.01l-12.33 -4.46c-0.14,-0.06 -0.21,-0.21 -0.16,-0.35 0.05,-0.15 0.21,-0.22 0.35,-0.17l12.33 4.46c0.14,0.06 0.21,0.21 0.16,0.35 -0.04,0.11 -0.14,0.18 -0.25,0.18z"/>
   <path class="fil8" d="M206.11 40.75c-0.03,0 -0.06,-0.01 -0.09,-0.02l-12.33 -4.46c-0.14,-0.05 -0.22,-0.21 -0.16,-0.35 0.05,-0.14 0.2,-0.22 0.35,-0.17l12.32 4.47c0.15,0.05 0.22,0.2 0.17,0.34 -0.04,0.12 -0.15,0.19 -0.26,0.19z"/>
   <polygon class="fil15" points="143.78,205.99 161.16,199.29 152.26,176.21 134.88,182.92 "/>
   <polygon class="fil15" points="135.35,181.13 134.88,182.92 143.78,205.99 144.26,204.2 "/>
   <polygon class="fil7" points="144.26,204.2 161.23,197.65 160.95,198.73 143.94,205.41 "/>
   <polygon class="fil5" points="144.26,204.2 161.64,197.5 152.74,174.42 135.35,181.13 "/>
   <path class="fil16" d="M138.22 185.24c-0.08,0 -0.16,-0.06 -0.19,-0.14l-1.25 -3.22c-0.04,-0.11 0.01,-0.23 0.12,-0.27l3.73 -1.44c0.11,-0.04 0.23,0.01 0.27,0.12 0.04,0.11 -0.01,0.23 -0.12,0.27l-3.54 1.36 1.17 3.03c0.04,0.11 -0.01,0.23 -0.12,0.27 -0.02,0.01 -0.05,0.02 -0.07,0.02z"/>
   <path class="fil16" d="M145 202.82c-0.08,0 -0.16,-0.05 -0.19,-0.13l-1.21 -3.15c-0.05,-0.11 0.01,-0.23 0.11,-0.27 0.11,-0.04 0.23,0.01 0.27,0.12l1.14 2.95 2.75 -1.06c0.1,-0.04 0.22,0.02 0.27,0.12 0.04,0.11 -0.02,0.23 -0.12,0.27l-2.94 1.13c-0.03,0.01 -0.05,0.02 -0.08,0.02z"/>
   <path class="fil16" d="M157.01 198.18c-0.08,0 -0.16,-0.05 -0.19,-0.13 -0.04,-0.11 0.01,-0.22 0.12,-0.27l2.81 -1.08 -1.11 -2.89c-0.05,-0.1 0.01,-0.22 0.11,-0.26 0.11,-0.05 0.23,0.01 0.27,0.11l1.19 3.08c0.02,0.05 0.02,0.11 0,0.16 -0.03,0.05 -0.07,0.09 -0.12,0.11l-3 1.16c-0.03,0.01 -0.05,0.01 -0.08,0.01z"/>
   <path class="fil16" d="M153.12 179.17c-0.08,0 -0.16,-0.05 -0.19,-0.13l-1.06 -2.76 -3.15 1.22c-0.11,0.04 -0.23,-0.01 -0.27,-0.12 -0.04,-0.11 0.01,-0.23 0.12,-0.27l3.34 -1.29c0.11,-0.04 0.23,0.01 0.27,0.12l1.14 2.95c0.04,0.11 -0.01,0.23 -0.12,0.27 -0.02,0.01 -0.05,0.01 -0.08,0.01z"/>
   <path class="fil14" d="M152.14 198.75l0 0c3.61,-1.4 5.41,-5.45 4.01,-9.07l-2.23 -5.79c-1.4,-3.61 -5.46,-5.41 -9.07,-4.01l0 0c-3.61,1.39 -5.41,5.45 -4.01,9.06l2.23 5.79c1.4,3.61 5.45,5.41 9.07,4.02z"/>
   <path class="fil5" d="M143.23 189.49c-0.08,0 -0.16,-0.05 -0.2,-0.13 -0.04,-0.11 0.02,-0.23 0.12,-0.27l9.28 -3.58c0.11,-0.04 0.23,0.01 0.27,0.12 0.04,0.11 -0.01,0.22 -0.12,0.27l-9.28 3.58c-0.02,0.01 -0.05,0.01 -0.07,0.01z"/>
   <path class="fil5" d="M143.93 191.3c-0.09,0 -0.17,-0.05 -0.2,-0.13 -0.04,-0.11 0.01,-0.23 0.12,-0.27l9.28 -3.58c0.11,-0.04 0.23,0.01 0.27,0.12 0.04,0.1 -0.01,0.22 -0.12,0.26l-9.28 3.59c-0.02,0.01 -0.05,0.01 -0.07,0.01z"/>
   <path class="fil5" d="M144.62 193.1c-0.08,0 -0.16,-0.05 -0.19,-0.13 -0.04,-0.11 0.01,-0.23 0.12,-0.27l9.28 -3.58c0.1,-0.04 0.22,0.01 0.26,0.12 0.04,0.1 -0.01,0.22 -0.11,0.26l-9.29 3.59c-0.02,0 -0.05,0.01 -0.07,0.01z"/>
   <polygon class="fil5" points="113.29,57.96 141.21,45.56 124.75,8.49 96.82,20.9 "/>
   <polygon class="fil17" points="97.46,17.93 96.82,20.9 113.29,57.96 113.92,54.99 "/>
   <polygon class="fil7" points="113.92,54.99 141.35,42.81 140.82,44.67 113.49,57 "/>
   <polygon class="fil16" points="113.92,54.99 141.84,42.59 125.38,5.52 97.46,17.93 "/>
   <path class="fil5" d="M125.38 5.52l-27.92 12.41 16.46 37.06 27.92 -12.4 -16.46 -37.07 0 0zm-0.44 1.13l15.77 35.5 -26.35 11.71 -15.77 -35.5 26.35 -11.71 0 0z"/>
   <polygon class="fil9" points="132.9,52.9 135.18,51.88 133.09,47.04 130.85,48.02 "/>
   <path class="fil5" d="M104.19 24.11c-0.13,0 -0.26,-0.07 -0.31,-0.2 -0.52,-1.15 -0.55,-2.44 -0.09,-3.61 0.45,-1.18 1.33,-2.11 2.49,-2.63 0.17,-0.07 0.37,0.01 0.45,0.18 0.07,0.17 -0.01,0.37 -0.18,0.45 -2.04,0.9 -2.96,3.3 -2.05,5.34 0.07,0.17 0,0.37 -0.17,0.44 -0.05,0.02 -0.1,0.03 -0.14,0.03z"/>
   <path class="fil5" d="M125.2 14.78c-0.13,0 -0.25,-0.08 -0.31,-0.2 -0.91,-2.04 -3.3,-2.96 -5.34,-2.06 -0.17,0.08 -0.37,0 -0.45,-0.17 -0.08,-0.17 0,-0.37 0.17,-0.45 2.38,-1.06 5.18,0.02 6.24,2.4 0.08,0.17 0,0.37 -0.17,0.45 -0.05,0.02 -0.1,0.03 -0.14,0.03z"/>
   <path class="fil5" d="M132.88 42.87c-0.13,0 -0.25,-0.08 -0.31,-0.2 -0.07,-0.17 0.01,-0.37 0.18,-0.45 0.98,-0.44 1.74,-1.24 2.13,-2.25 0.39,-1 0.36,-2.1 -0.08,-3.09 -0.07,-0.17 0,-0.37 0.17,-0.45 0.18,-0.08 0.38,0 0.45,0.17 0.51,1.16 0.55,2.44 0.09,3.62 -0.45,1.18 -1.33,2.11 -2.49,2.62 -0.04,0.02 -0.09,0.03 -0.14,0.03z"/>
   <path class="fil5" d="M118.11 49.02c-0.58,0 -1.15,-0.1 -1.7,-0.31 -1.18,-0.46 -2.11,-1.34 -2.62,-2.49 -0.08,-0.18 0,-0.38 0.17,-0.45 0.17,-0.08 0.37,0 0.45,0.17 0.43,0.99 1.23,1.74 2.24,2.13 1.01,0.39 2.11,0.36 3.1,-0.08 0.17,-0.07 0.37,0.01 0.45,0.18 0.07,0.17 -0.01,0.37 -0.18,0.45 -0.61,0.27 -1.26,0.4 -1.91,0.4z"/>
   <path class="fil5" d="M111.82 32.46c-0.13,0 -0.25,-0.07 -0.31,-0.2 -0.08,-0.17 0,-0.37 0.17,-0.45l14.91 -6.62c0.17,-0.08 0.37,0 0.45,0.17 0.08,0.17 0,0.37 -0.17,0.45l-14.91 6.62c-0.05,0.02 -0.09,0.03 -0.14,0.03z"/>
   <path class="fil5" d="M113.11 35.37c-0.13,0 -0.25,-0.08 -0.31,-0.21 -0.08,-0.17 0,-0.37 0.17,-0.44l14.91 -6.63c0.18,-0.07 0.38,0.01 0.45,0.18 0.08,0.17 0,0.37 -0.17,0.44l-14.91 6.63c-0.04,0.02 -0.09,0.03 -0.14,0.03z"/>
   <path class="fil4" d="M274.62 123.68l-29.87 23.09c0,0 1.42,8.26 7.84,18.15l21.91 0.22c0,0 5,-23.66 0.12,-41.46z"/>
   <polygon class="fil18" points="264.59,154.9 215.74,137.72 238.55,72.87 287.4,90.05 "/>
   <polygon class="fil19" points="285.93,85.11 287.4,90.05 264.59,154.9 263.13,149.97 "/>
   <path class="fil12" d="M245.02 148.02c0,0 6.98,3.82 10.89,7.59l4.19 -2.29 -15.08 -5.3z"/>
   <polygon class="fil7" points="263.13,149.97 215.94,133.37 216.29,136.15 263.12,152.95 "/>
   <polygon class="fil18" points="263.13,149.97 214.27,132.79 237.08,67.93 285.93,85.11 "/>
   <path class="fil14" d="M237.08 67.93l-22.81 64.86 48.86 17.18 22.8 -64.86 -48.85 -17.18 0 0zm0.89 1.85l46.11 16.22 -21.84 62.11 -46.12 -16.21 21.85 -62.12 0 0z"/>
   <polygon class="fil20" points="230.78,148.99 226.79,147.57 229.66,139.12 233.59,140.48 "/>
   <path class="fil19" d="M245.61 78.58c-2.83,0 -5.49,1.77 -6.48,4.58l-13.73 39.02c-0.61,1.73 -0.51,3.59 0.29,5.24 0.79,1.66 2.18,2.9 3.9,3.51l22.75 8c1.73,0.61 3.59,0.5 5.24,-0.29 1.65,-0.79 2.89,-2.18 3.5,-3.91l13.73 -39.02c1.25,-3.57 -0.63,-7.49 -4.2,-8.74l-22.73 -8c-0.75,-0.26 -1.52,-0.39 -2.27,-0.39zm9.01 61.89c-0.9,0 -1.79,-0.15 -2.66,-0.46l-22.75 -8c-2.02,-0.7 -3.64,-2.16 -4.56,-4.09 -0.93,-1.93 -1.05,-4.1 -0.34,-6.12l13.74 -39.02c1.46,-4.16 6.04,-6.36 10.21,-4.89l22.73 7.99c4.17,1.47 6.37,6.05 4.9,10.21l-13.72 39.03c-0.71,2.01 -2.16,3.63 -4.09,4.56 -1.1,0.53 -2.28,0.79 -3.46,0.79z"/>
   <path class="fil4" d="M279.16 221.53l-33.69 0c0.7,-5.59 6.2,-49.22 6.74,-53.51 0,0 0,0 0,0 0.95,-4.14 -0.81,-5.1 3.7,-12.41 1.15,-1.65 2.09,-2.15 3.67,-3.93 3.06,-4.04 4.87,-7.87 4.94,-15.26 -1.56,-1.88 -2.14,-5.58 -0.48,-8.35 3.04,-4.91 4.17,0.33 5.05,2.99 1.35,4.09 2.43,8.02 3.21,12.23 3.26,25.47 4.09,50.42 6.86,78.24z"/>
   <path class="fil11" d="M267.33 126.54c0,0 -1.14,0.54 -1.09,2.57 0.06,2.04 0.67,2.85 0.67,2.85 0,0 1.09,-0.7 2.19,-0.88 0,0 -0.89,-3.44 -1.77,-4.54z"/>
   <path class="fil12" d="M270.88 137.02c0,0 0.83,2.7 1.42,6.27 0,0 2.53,-8.38 2.72,-18.04l-4.14 11.77z"/>
   <path class="fil19" d="M267.8 100.17c-0.07,0 -0.13,-0.01 -0.2,-0.03l-26.08 -9.18c-0.3,-0.1 -0.46,-0.43 -0.36,-0.73 0.11,-0.3 0.44,-0.46 0.74,-0.36l26.09 9.18c0.29,0.1 0.45,0.43 0.35,0.73 -0.09,0.24 -0.31,0.39 -0.54,0.39z"/>
   <path class="fil19" d="M266.01 105.25c-0.07,0 -0.13,-0.01 -0.19,-0.03l-26.09 -9.18c-0.3,-0.1 -0.46,-0.43 -0.35,-0.73 0.1,-0.3 0.43,-0.46 0.73,-0.35l26.09 9.17c0.3,0.11 0.45,0.44 0.35,0.73 -0.08,0.24 -0.31,0.39 -0.54,0.39z"/>
   <path class="fil19" d="M264.23 110.31c-0.07,0 -0.13,-0.01 -0.19,-0.03l-26.09 -9.18c-0.3,-0.1 -0.46,-0.43 -0.35,-0.73 0.1,-0.3 0.43,-0.46 0.73,-0.36l26.09 9.18c0.3,0.1 0.46,0.43 0.35,0.73 -0.08,0.24 -0.31,0.39 -0.54,0.39z"/>
   <path class="fil21" d="M251.21 175.96l1 -7.94c0,0 10.73,3.63 22.5,-0.12l0.7 8.71c0,0 -10.56,6.53 -24.2,-0.65z"/>
   <path class="fil5" d="M282.35 221.53l-42.4 0c3.19,-16.82 7.32,-35.8 11.26,-45.57 0,0 0,0 0,0 0.23,0.11 10.74,4.92 24.2,0.65 0,0 3.87,7.91 6.94,44.92z"/>
   <path class="fil5" d="M255.47 172.87c0,0.68 -0.55,1.22 -1.22,1.22 -0.68,0 -1.22,-0.54 -1.22,-1.22 0,-0.67 0.54,-1.22 1.22,-1.22 0.67,0 1.22,0.55 1.22,1.22z"/>
   <path class="fil4" d="M23.06 94.83l30.64 22.06c0,0 -1.14,8.31 -7.22,18.41l-21.89 0.97c0,0 -5.8,-23.48 -1.53,-41.44z"/>
   <polygon class="fil22" points="34.14,125.69 82.38,106.85 57.36,42.82 9.13,61.66 "/>
   <polygon class="fil23" points="10.43,56.68 9.13,61.66 34.14,125.69 35.44,120.71 "/>
   <path class="fil12" d="M53.47 118.15c0,0 -6.85,4.05 -10.62,7.96l-4.27 -2.15 14.89 -5.81z"/>
   <polygon class="fil7" points="35.44,120.71 82.03,102.51 81.78,105.31 35.55,123.69 "/>
   <polygon class="fil22" points="35.44,120.71 83.68,101.87 58.66,37.83 10.43,56.68 "/>
   <path class="fil5" d="M15.69 58.87l22.13 56.67 40.6 -15.86 -22.15 -56.66 -40.58 15.85zm21.81 57.99c-0.23,0 -0.45,-0.14 -0.54,-0.37l-22.56 -57.74c-0.05,-0.14 -0.05,-0.3 0.01,-0.44 0.06,-0.14 0.18,-0.25 0.32,-0.3l41.66 -16.28c0.29,-0.11 0.63,0.03 0.74,0.33l22.57 57.73c0.06,0.15 0.05,0.3 -0.01,0.44 -0.06,0.14 -0.17,0.25 -0.32,0.31l-41.66 16.28c-0.07,0.03 -0.14,0.04 -0.21,0.04z"/>
   <polygon class="fil5" points="39.13,112.55 75.44,98.37 54.96,46 18.67,60.18 "/>
   <path class="fil4" d="M60.35 221.53l-39.94 0c0.71,-13.88 1.6,-31.44 2.49,-49.48 0.68,-13.76 1.18,-23.92 1.7,-35.78 0.31,-10.5 0.68,-20.43 2.65,-28.23 0.45,-1.96 1.01,-4.04 1.6,-6.07 0.51,-1.43 0.74,-3.24 1.6,-4.51 1.72,-1.9 4.01,1.98 4.3,3.88 0.6,1.9 -0.2,4.59 -1.17,5.88 0.32,7.39 2.27,11.15 5.46,15.08 1.64,1.73 2.6,2.2 3.81,3.81l0 0c4.81,7.27 3.01,8.15 4.15,12.45 3.49,21.67 9.82,61.04 13.35,82.97z"/>
   <path class="fil11" d="M30.43 97.45c0,0 1.16,0.5 1.18,2.53 0.02,2.03 -0.57,2.86 -0.57,2.86 0,0 -1.1,-0.72 -2.2,-0.86 0,0 0.75,-3.4 1.59,-4.53z"/>
   <path class="fil12" d="M27.25 108.04c0,0 -0.74,2.73 -1.21,6.32 0,0 -2.81,-8.29 -3.33,-17.94l4.54 11.62z"/>
   <path class="fil16" d="M67.15 221.53l-49.3 0c0.04,-1.01 0.09,-2 0.13,-3 0.2,-4.02 0.47,-8 0.78,-11.85 0,0 0,0 0,-0.01 0.38,-4.62 0.82,-9.05 1.26,-13.11 0.49,-4.4 0.99,-8.37 1.44,-11.66 0.8,-5.98 1.43,-9.74 1.44,-9.85 0,0 0,0 0,0 0.01,0 0.01,0 0.01,0 12.78,4.83 29.23,-1.54 29.23,-1.54 1.04,3.15 2.08,6.4 3.1,9.66 1.14,3.66 2.26,7.34 3.33,10.93 1.3,4.38 2.52,8.62 3.63,12.52 0,0 0,0 0,0 1.22,4.29 2.3,8.17 3.18,11.36 0.75,2.75 1.36,4.99 1.77,6.55z"/>
   <path class="fil23" d="M28.71 71.18c-0.23,0 -0.45,-0.14 -0.54,-0.37 -0.11,-0.29 0.03,-0.63 0.33,-0.74l25.75 -10.07c0.3,-0.11 0.63,0.03 0.75,0.33 0.12,0.3 -0.03,0.63 -0.33,0.74l-25.75 10.07c-0.07,0.02 -0.14,0.04 -0.21,0.04z"/>
   <path class="fil23" d="M30.67 76.19c-0.23,0 -0.45,-0.13 -0.54,-0.36 -0.11,-0.3 0.03,-0.63 0.33,-0.75l25.76 -10.06c0.29,-0.11 0.63,0.03 0.74,0.33 0.12,0.29 -0.03,0.63 -0.33,0.74l-25.75 10.07c-0.07,0.02 -0.14,0.03 -0.21,0.03z"/>
   <path class="fil23" d="M32.62 81.19c-0.23,0 -0.45,-0.14 -0.54,-0.37 -0.11,-0.29 0.03,-0.63 0.33,-0.74l25.76 -10.07c0.29,-0.11 0.63,0.04 0.74,0.33 0.12,0.3 -0.03,0.63 -0.32,0.75l-25.76 10.06c-0.07,0.03 -0.14,0.04 -0.21,0.04z"/>
   <path class="fil5" d="M24.44 139.74c0,0 8.03,4.05 22.56,-1.18 0,0 2.44,2.49 0.83,5.14 0,0 -13.58,5.64 -23.63,1.39 0,0 -2.23,-2.38 0.24,-5.35z"/>
   <path class="fil15" d="M40.42 143.2c0.07,0.35 -0.15,0.69 -0.5,0.77 -0.35,0.07 -0.7,-0.15 -0.77,-0.5 -0.07,-0.35 0.15,-0.69 0.5,-0.77 0.35,-0.07 0.69,0.15 0.77,0.5z"/>
   <path class="fil15" d="M42.57 142.68c0.07,0.35 -0.15,0.69 -0.5,0.77 -0.35,0.07 -0.7,-0.15 -0.77,-0.5 -0.07,-0.35 0.15,-0.7 0.5,-0.77 0.35,-0.07 0.69,0.15 0.77,0.5z"/>
   <path class="fil15" d="M44.71 142.13c0.07,0.35 -0.15,0.69 -0.5,0.76 -0.35,0.08 -0.69,-0.15 -0.77,-0.5 -0.07,-0.35 0.15,-0.69 0.5,-0.76 0.35,-0.08 0.7,0.15 0.77,0.5z"/>
   <path class="fil17" d="M55.24 180.18c-17.89,7.03 -33.75,1.85 -33.75,1.85 -0.01,-0.04 -0.02,-0.09 -0.03,-0.13 0.8,-5.98 1.43,-9.74 1.44,-9.85 0.01,0 0.01,0 0.01,0 12.78,4.83 29.23,-1.54 29.23,-1.54 1.04,3.15 2.08,6.4 3.1,9.66 0,0.01 0,0.01 0,0.01z"/>
   <path class="fil17" d="M62.2 203.62c0,0 0,0 0,0 0,0 -21.63,8.17 -43.44,3.06 0,0 0,0 0,-0.01 0.38,-4.62 0.82,-9.05 1.26,-13.11 0,0 0,0 0,0 0,0 18.73,6.37 38.54,-2.46 0,0 0.01,0 0.01,0 1.3,4.38 2.52,8.62 3.63,12.52z"/>
   <path class="fil17" d="M67.15 221.53l-49.3 0c0.04,-1.01 0.09,-2 0.13,-3 0,0 0.91,0.18 2.56,0.41 5.98,0.82 21.71,2.25 39.03,-2.24 1.92,-0.5 3.86,-1.07 5.81,-1.72 0.75,2.75 1.36,4.99 1.77,6.55z"/>
  </g>
 </g>
</svg>
