<?xml version="1.0" encoding="UTF-8"?>
<!DOCTYPE svg PUBLIC "-//W3C//DTD SVG 1.1//EN" "http://www.w3.org/Graphics/SVG/1.1/DTD/svg11.dtd">
<!-- Creator: CorelDRAW 2021 (64-Bit) -->
<svg xmlns="http://www.w3.org/2000/svg" xml:space="preserve" width="271px" height="194px" version="1.1" style="shape-rendering:geometricPrecision; text-rendering:geometricPrecision; image-rendering:optimizeQuality; fill-rule:evenodd; clip-rule:evenodd"
viewBox="0 0 271 193.37"
 xmlns:xlink="http://www.w3.org/1999/xlink"
 xmlns:xodm="http://www.corel.com/coreldraw/odm/2003">
 <defs>
  <style type="text/css">
   <![CDATA[
    .str0 {stroke:#A18CFF;stroke-width:0.9;stroke-miterlimit:10}
    .fil0 {fill:#FAFAFA;fill-rule:nonzero}
    .fil16 {fill:#060633;fill-rule:nonzero}
    .fil11 {fill:#111111;fill-rule:nonzero}
    .fil5 {fill:#22202A;fill-rule:nonzero}
    .fil19 {fill:#31313A;fill-rule:nonzero}
    .fil4 {fill:#31313B;fill-rule:nonzero}
    .fil2 {fill:#31313C;fill-rule:nonzero}
    .fil21 {fill:#507C98;fill-rule:nonzero}
    .fil9 {fill:#6854BF;fill-rule:nonzero}
    .fil17 {fill:#7356F5;fill-rule:nonzero}
    .fil12 {fill:#83AAC6;fill-rule:nonzero}
    .fil13 {fill:#8D73FF;fill-rule:nonzero}
    .fil8 {fill:#A0774D;fill-rule:nonzero}
    .fil7 {fill:#A18CFF;fill-rule:nonzero}
    .fil3 {fill:#B28A5F;fill-rule:nonzero}
    .fil18 {fill:#DED7FF;fill-rule:nonzero}
    .fil6 {fill:#ECEFF2;fill-rule:nonzero}
    .fil20 {fill:#EF866C;fill-rule:nonzero}
    .fil1 {fill:#FAFAFA;fill-rule:nonzero}
    .fil15 {fill:#FF4747;fill-rule:nonzero}
    .fil14 {fill:#FFD786;fill-rule:nonzero}
    .fil10 {fill:white;fill-rule:nonzero}
   ]]>
  </style>
 </defs>
 <g id="Layer_x0020_1">
  <metadata id="CorelCorpID_0Corel-Layer"/>
  <path class="fil0" d="M72.2 87.82l0 29.89 -9.98 0 0 -3.2c-1.1,1.22 -2.43,2.14 -3.97,2.76 -1.54,0.63 -3.18,0.94 -4.91,0.94 -3.86,0 -6.94,-1.14 -9.24,-3.42 -2.29,-2.28 -3.44,-5.7 -3.44,-10.26l0 -16.71 10.47 0 0 15c0,2.25 0.43,3.88 1.27,4.91 0.85,1.03 2.08,1.55 3.7,1.55 1.65,0 3,-0.58 4.05,-1.74 1.05,-1.16 1.57,-2.93 1.57,-5.32l0 -14.4 10.48 0z"/>
  <path id="_1" class="fil0" d="M109.1 97.58c2.21,0.78 3.93,1.98 5.18,3.62 1.25,1.63 1.88,3.61 1.88,5.93 0,3.38 -1.36,5.99 -4.08,7.83 -2.72,1.84 -6.66,2.75 -11.8,2.75l-20.85 0 0 -38.6 19.74 0c4.93,0 8.68,0.91 11.25,2.73 2.58,1.82 3.86,4.27 3.86,7.36 0,1.84 -0.45,3.48 -1.35,4.94 -0.9,1.45 -2.18,2.6 -3.83,3.44zm-18.86 -10.59l0 7.45 7.5 0c3.67,0 5.51,-1.25 5.51,-3.75 0,-2.46 -1.84,-3.7 -5.51,-3.7l-7.5 0zm9.15 22.84c3.83,0 5.74,-1.31 5.74,-3.92 0,-2.61 -1.91,-3.91 -5.74,-3.91l-9.15 0 0 7.83 9.15 0z"/>
  <path id="_2" class="fil0" d="M136.34 118.21c-3.19,0 -6.08,-0.66 -8.66,-1.98 -2.57,-1.33 -4.58,-3.17 -6.03,-5.52 -1.46,-2.35 -2.18,-5.02 -2.18,-8 0,-2.94 0.72,-5.59 2.18,-7.94 1.45,-2.35 3.45,-4.18 6.01,-5.49 2.55,-1.3 5.45,-1.95 8.68,-1.95 3.24,0 6.14,0.65 8.72,1.95 2.57,1.31 4.58,3.13 6.01,5.46 1.43,2.34 2.15,4.99 2.15,7.97 0,2.98 -0.72,5.65 -2.15,8 -1.43,2.35 -3.44,4.19 -6.01,5.52 -2.58,1.32 -5.48,1.98 -8.72,1.98zm0 -8.33c1.84,0 3.35,-0.63 4.53,-1.9 1.17,-1.27 1.76,-3.02 1.76,-5.27 0,-2.2 -0.59,-3.93 -1.76,-5.18 -1.18,-1.25 -2.69,-1.88 -4.53,-1.88 -1.83,0 -3.34,0.63 -4.52,1.88 -1.18,1.25 -1.76,2.98 -1.76,5.18 0,2.25 0.58,4 1.76,5.27 1.18,1.27 2.69,1.9 4.52,1.9z"/>
  <path id="_3" class="fil0" d="M173.07 118.21c-3.19,0 -6.08,-0.66 -8.65,-1.98 -2.58,-1.33 -4.59,-3.17 -6.04,-5.52 -1.45,-2.35 -2.18,-5.02 -2.18,-8 0,-2.94 0.73,-5.59 2.18,-7.94 1.45,-2.35 3.45,-4.18 6.01,-5.49 2.55,-1.3 5.45,-1.95 8.68,-1.95 3.24,0 6.14,0.65 8.72,1.95 2.57,1.31 4.58,3.13 6.01,5.46 1.43,2.34 2.15,4.99 2.15,7.97 0,2.98 -0.72,5.65 -2.15,8 -1.43,2.35 -3.44,4.19 -6.01,5.52 -2.58,1.32 -5.48,1.98 -8.72,1.98zm0 -8.33c1.84,0 3.35,-0.63 4.53,-1.9 1.17,-1.27 1.76,-3.02 1.76,-5.27 0,-2.2 -0.59,-3.93 -1.76,-5.18 -1.18,-1.25 -2.69,-1.88 -4.53,-1.88 -1.83,0 -3.34,0.63 -4.52,1.88 -1.17,1.25 -1.76,2.98 -1.76,5.18 0,2.25 0.59,4 1.76,5.27 1.18,1.27 2.69,1.9 4.52,1.9z"/>
  <polygon id="_4" class="fil0" points="208.37,107.24 205.28,110.38 205.28,117.71 194.81,117.71 194.81,76.79 205.28,76.79 205.28,98.25 215.98,87.82 228.39,87.82 215.98,100.62 229.44,117.71 216.76,117.71 "/>
  <g id="_1757042458640">
   <path class="fil1" d="M237.43 126.82c59.35,-1.79 34.02,77.8 -35,58.7 -33.85,-9.36 -48.14,-7.32 -72.14,0.87 -68.21,23.26 -60.21,-17.56 -108.99,-16.22 -25.08,0.69 -32.34,-29.43 -0.1,-40.01 13.16,-4.31 30.23,-2.75 99.95,-3.52 69.71,-0.78 97.67,0.74 116.28,0.18z"/>
   <path class="fil2" d="M165.77 0.25c0,0 -5.2,0.1 -6.94,4.1 -1.73,3.99 -2.91,2.89 -3.24,4.97 -0.32,2.07 -1.6,2.04 -2.11,3.34 -0.5,1.31 0.54,2.65 -1.16,3.81 -1.7,1.16 -0.85,2.84 -0.85,2.84 0,0 2.55,0.34 3.53,0 0.98,-0.35 3.03,-1.3 4.39,-0.53 1.37,0.76 4.01,-0.07 5.07,-0.15 1.06,-0.08 4.9,0.5 6.24,-0.17 1.35,-0.66 2.96,-0.39 3.57,0.06 0.61,0.44 4.14,-0.78 4.97,-0.28 0.83,0.5 1.79,-0.5 1.79,-0.5 0,0 0.08,-2.38 -1.18,-3.16 -1.26,-0.78 -0.61,-3.69 -2.05,-4.31 -1.44,-0.62 -0.83,-3.62 -1.87,-4.01 -1.05,-0.38 0.16,-1.99 -2.11,-2.73 -1.08,-0.36 -2.36,-3.79 -8.05,-3.28z"/>
   <path class="fil3" d="M177.08 35.5c0,0 20.23,1.23 21.25,-3.84 1.77,-8.81 -9.23,-20.52 -9.23,-20.52l-5.57 -0.13 3.17 14.14c-0.25,0.03 -11.78,-0.45 -11.78,-0.45l2.16 10.8z"/>
   <path class="fil4" d="M177.23 35.34c1.8,0.09 19.95,0.94 20.92,-3.7l0.01 -0.01c1.67,-8.32 -8.32,-19.43 -9.14,-20.32l-5.27 -0.13 3.17 14.11 -0.19 0.03c-0.24,0.03 -9.25,-0.34 -11.59,-0.44l2.09 10.46zm21.27 -3.63c-1.07,5.14 -20.59,4.01 -21.42,3.95l-0.14 0 -2.23 -11.14 0.22 0.01c2.92,0.13 10.24,0.42 11.56,0.45l-3.19 -14.15 5.88 0.15 0.06 0.05c0.02,0.03 2.79,2.99 5.29,6.99 2.33,3.7 4.9,9.07 3.98,13.68l-0.01 0.01z"/>
   <path class="fil5" d="M167.99 135.34l0 3.87c0.17,-0.01 0.35,-0.02 0.54,-0.02 4.56,0 8.26,3.15 8.26,7.03l-16.52 0c0,0 -2.74,-0.86 0,-10.88 0.54,-1.97 7.72,0 7.72,0z"/>
   <path class="fil6" d="M164.25 142.39c0.05,0 0.09,-0.03 0.11,-0.08 0.64,-1.47 1.59,-2.2 2.28,-2.55 0.74,-0.38 1.35,-0.42 1.35,-0.42 0.07,-0.01 0.12,-0.07 0.12,-0.14 0,-0.07 -0.06,-0.13 -0.13,-0.13 -0.03,0 -2.55,0.17 -3.84,3.13 -0.03,0.07 -0.01,0.14 0.06,0.18 0.01,0 0.03,0.01 0.05,0.01z"/>
   <path class="fil5" d="M139.69 135.34l0 3.87c0.18,-0.01 0.36,-0.02 0.54,-0.02 4.57,0 8.26,3.15 8.26,7.03l-16.52 0c0,0 -2.86,-0.21 0,-10.88 0.53,-1.98 7.72,0 7.72,0z"/>
   <path class="fil6" d="M135.96 142.39c0.04,0 0.09,-0.03 0.11,-0.08 0.64,-1.47 1.59,-2.2 2.28,-2.55 0.74,-0.38 1.34,-0.42 1.35,-0.42 0.07,-0.01 0.12,-0.07 0.12,-0.14 -0.01,-0.07 -0.06,-0.13 -0.13,-0.13 -0.03,0 -2.55,0.17 -3.85,3.13 -0.03,0.07 0,0.14 0.06,0.18 0.02,0 0.04,0.01 0.06,0.01z"/>
   <path class="fil7" d="M178.26 61.5l-7.97 75.63c0,0 -4.5,0.19 -5.99,0 -3.25,-0.41 -5.36,-1.38 -5.36,-1.38 0,0 -0.63,-11.56 0.11,-28.85 0.47,-10.93 0.59,-21.76 0.59,-21.76 0,0 -4.11,7.81 -9.1,22.04 -3,8.56 -9.24,29.95 -9.24,29.95 0,0 -3.99,0.23 -6.05,0 -2.67,-0.29 -5.3,-1.53 -5.3,-1.53 0,0 3.81,-21.49 10.98,-50.61 2.89,-11.77 7.56,-29.34 7.56,-29.34l29.77 5.85z"/>
   <path class="fil3" d="M164.73 28.55l3.16 0.36c0.56,0 6.75,-2.64 7.29,-4.44 0.87,-2.86 -3.49,-3.55 -4.94,-3.7 -0.25,-0.02 -0.45,-0.25 -0.45,-0.53l0 -3.97c0,-1.2 -0.92,-2.18 -2.05,-2.18l-1.16 0c-1.13,0 -2.05,0.98 -2.05,2.18l0 3.91c0,0.32 -0.21,0.6 -0.5,0.68 -0.92,0.25 -2.79,0.83 -2.71,1.41 0.29,1.99 2.78,6.28 3.41,6.28z"/>
   <path class="fil8" d="M169 14.75c0.04,0.04 0.03,0.11 0,0.14 -0.04,0.04 -0.1,0.03 -0.13,0 -0.03,-0.05 -0.03,-0.11 0.01,-0.14 0.03,-0.04 0.09,-0.03 0.12,0z"/>
   <path class="fil2" d="M162.01 21.75c0.01,0 0.03,0 0.05,-0.01l2.52 -0.84c0.06,-0.02 0.1,-0.08 0.1,-0.15l0 -4.46c0,-1.12 0.85,-2.02 1.9,-2.02l1.16 0c1.05,0 1.9,0.9 1.9,2.02l0 4.46c0,0.08 0.05,0.14 0.12,0.16l1.97 0.44c0.09,0.02 0.17,-0.04 0.18,-0.13 0.02,-0.08 -0.03,-0.17 -0.11,-0.19l-1.86 -0.41 0 -4.33c0,-1.3 -0.99,-2.35 -2.2,-2.35l-1.16 0c-1.21,0 -2.2,1.05 -2.2,2.35l0 4.34 -2.42 0.8c-0.08,0.03 -0.12,0.12 -0.1,0.21 0.03,0.07 0.09,0.11 0.15,0.11z"/>
   <path class="fil9" d="M144.49 66.54c16.67,8.63 36.31,0.02 36.31,0.02l-0.18 -31.46c0,0 -28.75,-5.65 -29.36,-3.17 -2.56,10.38 -6.77,34.61 -6.77,34.61z"/>
   <path class="fil9" d="M146.62 29.29c0,0 1.07,5.35 8.66,9.39 3.1,1.64 9.19,0.41 9.19,0.41l0.39 -0.05 12.63 2.51c0,0 2.36,-4.8 3.14,-5.36 6.11,-4.43 3.29,-13.85 3.29,-13.85 0,0 -3.57,-0.18 -12.26,-1.46 -0.78,-0.11 0.46,1.74 0.17,3.35 -0.02,0.14 -0.05,0.28 -0.09,0.42 -0.2,0.74 -0.58,1.41 -1.26,1.84 -0.11,0.07 -0.24,0.14 -0.37,0.19 -0.5,0.22 -1.14,0.32 -1.94,0.26 -0.36,-0.03 -0.7,-0.08 -1.02,-0.15 -0.13,-0.03 -0.25,-0.06 -0.37,-0.1 -3.97,-1.13 -4.53,-5.35 -4.53,-5.35 0,0 -10.12,0.94 -15.63,7.95z"/>
   <path class="fil3" d="M162.78 13.15c1.74,3.79 5.24,5.77 7.83,4.42 2.58,-1.35 2.91,-6.15 1.52,-9.3 -1.68,-3.82 -5.24,-5.77 -7.83,-4.42 -2.58,1.35 -3.26,5.52 -1.52,9.3z"/>
   <path class="fil2" d="M167.91 9.66c0.03,-0.02 0.06,-0.04 0.07,-0.08 0.02,-0.06 -0.01,-0.14 -0.07,-0.16 -0.04,-0.01 -0.84,-0.39 -1.48,0.44 -0.04,0.05 -0.03,0.13 0.02,0.18 0.04,0.04 0.11,0.02 0.16,-0.02 0.51,-0.41 1.19,-0.37 1.22,-0.36 0.03,0.01 0.05,0.01 0.08,0z"/>
   <path class="fil2" d="M167.91 11.23c0.03,-0.02 0.06,-0.04 0.07,-0.08 0.02,-0.07 -0.01,-0.14 -0.07,-0.16 -0.04,-0.01 -0.84,-0.39 -1.48,0.44 -0.04,0.05 -0.03,0.13 0.02,0.17 0.04,0.05 0.11,0.03 0.16,-0.01 0.51,-0.41 1.19,-0.37 1.22,-0.36 0.03,0 0.05,0 0.08,0z"/>
   <path class="fil2" d="M168.84 13.09l0.02 0c0.59,-0.11 0.83,-0.6 0.84,-0.62 0.02,-0.06 0,-0.12 -0.05,-0.15 -0.05,-0.03 -0.11,0 -0.13,0.05 -0.01,0.02 -0.21,0.42 -0.7,0.5 -0.05,0.01 -0.09,0.07 -0.08,0.13 0.01,0.05 0.05,0.09 0.1,0.09z"/>
   <path class="fil2" d="M164.37 3.98c-2.51,1.32 -3.17,5.4 -1.47,9.11 0.99,2.15 2.64,3.82 4.4,4.47 1.16,0.42 2.28,0.38 3.24,-0.12 1.16,-0.61 1.93,-1.98 2.18,-3.86 0.23,-1.75 -0.04,-3.71 -0.72,-5.25 -0.93,-2.13 -2.55,-3.79 -4.31,-4.45 -0.55,-0.21 -1.1,-0.31 -1.62,-0.31 -0.6,0 -1.18,0.14 -1.7,0.41zm2.84 13.86c-1.83,-0.67 -3.54,-2.39 -4.56,-4.62l0.13 -0.07 -0.13 0.07c-1.77,-3.86 -1.06,-8.12 1.59,-9.51 1.05,-0.55 2.28,-0.59 3.54,-0.12 1.84,0.69 3.51,2.41 4.48,4.61 1.44,3.26 1.06,8.13 -1.59,9.51 -0.56,0.29 -1.18,0.44 -1.81,0.44 -0.54,0 -1.09,-0.1 -1.65,-0.31z"/>
   <path class="fil2" d="M167.77 2.19c0,0 1.2,5.29 -4.77,12.41 0,0 -1.8,-2.78 -1.84,-6.71 -0.04,-3.93 6.61,-5.7 6.61,-5.7z"/>
   <path class="fil2" d="M166.14 4.98c0,0 4.16,2.89 6.16,2.46 0,0 -1.58,-3.34 -3.45,-4.17 -1.87,-0.83 -2.22,-0.52 -2.22,-0.52l-0.49 2.23z"/>
   <path class="fil3" d="M163.16 14.51c0.66,0.37 1.4,0.25 1.65,-0.26 0.25,-0.51 -0.2,-1.28 -0.73,-1.59 -0.65,-0.39 -1.4,-0.26 -1.65,0.25 -0.25,0.51 0.08,1.23 0.73,1.6z"/>
   <path class="fil4" d="M189 28.33c-0.01,0.04 -0.04,0.08 -0.08,0.1 -0.08,0.05 -0.19,0.03 -0.24,-0.05 -0.02,-0.02 -0.1,-0.07 -0.16,-0.12 -0.48,-0.33 -1.59,-1.12 -1.99,-3.08 -0.02,-0.09 0.04,-0.18 0.14,-0.2 0.1,-0.01 0.19,0.05 0.21,0.14 0.37,1.83 1.41,2.56 1.85,2.87 0.12,0.09 0.2,0.15 0.24,0.21 0.03,0.04 0.04,0.08 0.03,0.13z"/>
   <path class="fil10" d="M163.98 47.85c-0.93,0 -2.27,0.42 -3.61,1.18 -2.8,1.59 -4.15,3.57 -4.57,5.38 3.96,-0.93 7.96,-2.4 9.1,-4.66 0.38,-0.74 0.4,-1.3 0.08,-1.6 -0.21,-0.2 -0.56,-0.3 -1,-0.3zm-2.17 12.04c-1.98,0 -3.5,-0.29 -4.56,-0.87 -0.9,-0.5 -1.46,-1.21 -1.67,-2.12 -0.16,-0.75 -0.18,-1.49 -0.05,-2.23 -0.21,0.05 -0.43,0.1 -0.65,0.14 -4.23,0.91 -8.21,1.21 -8.25,1.21l-0.02 -0.19c0.09,0 4.47,-0.34 8.96,-1.37 0.18,-0.78 0.52,-1.56 1.03,-2.31 0.85,-1.25 2.15,-2.42 3.67,-3.28 2.09,-1.18 4.12,-1.54 4.84,-0.86 0.27,0.26 0.48,0.78 -0.04,1.82 -1,1.98 -4.13,3.59 -9.32,4.79 -0.16,0.8 -0.14,1.56 0.02,2.24 0.19,0.86 0.72,1.53 1.57,2 5.57,3.05 23.25,-3.24 23.43,-3.3l0.06 0.18c-0.04,0.01 -4.52,1.61 -9.63,2.81 -3.81,0.89 -6.95,1.34 -9.39,1.34z"/>
   <path class="fil3" d="M152.22 25.18c0,0 -15.28,9.79 -19.72,22.36 -3.61,10.25 -4.16,17.52 -4.16,17.52l5.91 1.92c0,0 6.04,-18.01 8.42,-20.26 2.56,-2.42 13.97,-11.07 13.98,-11.05l-4.43 -10.49z"/>
   <path class="fil8" d="M129.61 57.53c0.02,0.02 0.03,0.05 0.03,0.08 0,0.06 -0.03,0.12 -0.08,0.14 0.02,-0.07 0.03,-0.15 0.05,-0.22z"/>
   <path class="fil8" d="M129.53 58.37c0,-0.07 0.06,-0.14 0.13,-0.15 0.07,0 0.13,0.05 0.13,0.13 0.01,0.07 -0.05,0.14 -0.12,0.14 -0.08,0.01 -0.13,-0.05 -0.14,-0.12z"/>
   <path class="fil8" d="M130.33 57.87c0,-0.07 0.06,-0.13 0.13,-0.14 0.07,-0.01 0.13,0.05 0.13,0.12 0.01,0.08 -0.05,0.14 -0.12,0.15 -0.07,0 -0.13,-0.05 -0.14,-0.13z"/>
   <path class="fil8" d="M129.69 58.49c-0.07,-0.03 -0.1,-0.1 -0.07,-0.18 0.03,-0.07 0.1,-0.1 0.17,-0.08 0.07,0.03 0.1,0.1 0.07,0.18 -0.03,0.07 -0.1,0.1 -0.17,0.08z"/>
   <path class="fil11" d="M152.31 25.06c-0.65,0.43 -4.16,2.79 -8.07,6.39 -3.98,3.66 -9.2,9.37 -11.49,15.83 -1.86,5.24 -2.89,9.71 -3.43,12.55 -0.51,2.69 -0.69,4.45 -0.73,4.86l5.73 1.85c0.54,-1.68 5.95,-18.15 8.45,-20.11 2.44,-1.92 12.9,-10.3 13.88,-11.08l-4.34 -10.29zm-23.89 39.82c-0.04,-0.02 -0.06,-0.07 -0.05,-0.11 0,-0.02 0.15,-1.89 0.73,-4.97 0.54,-2.84 1.58,-7.34 3.44,-12.59 2.31,-6.51 7.56,-12.26 11.56,-15.93 4.33,-3.99 8.17,-6.46 8.2,-6.49 0.03,-0.02 0.07,-0.02 0.1,-0.01 0.02,0.01 0.05,0.03 0.06,0.06l4.43 10.49c0.02,0.05 0,0.11 -0.04,0.14 -0.11,0.09 -11.4,9.14 -13.95,11.14 -2.52,1.97 -8.35,19.93 -8.41,20.11 -0.01,0.03 -0.03,0.05 -0.05,0.07 -0.03,0.01 -0.06,0.02 -0.09,0.01l-5.91 -1.92 -0.02 0z"/>
   <path class="fil3" d="M134 70.32c0.71,-3.38 1.18,-5.98 1.18,-5.98l-5.66 -4.65 -0.76 4.18c-0.66,1.17 -1.17,2.98 -1.17,2.98 0,0 -0.29,5.04 -0.77,5.83 -0.81,1.34 0,1.87 0.64,1.41l0 0c-0.6,1.77 1.39,0.4 1.39,0.4 0,0 -0.02,1.55 0.9,0.8 0.53,-0.45 1.77,-3.32 2.28,-4.54 0.28,-0.05 -0.08,1.4 -0.25,1.86 -0.49,1.36 -0.43,2.1 0.15,1.95 0.42,-0.11 1.81,-3.01 2.07,-4.24z"/>
   <path class="fil11" d="M131.59 74.65c-0.05,-0.03 -0.09,-0.06 -0.11,-0.09 -0.3,-0.35 -0.06,-1.27 0.2,-1.99 0.47,-1.32 0.33,-2.02 0.32,-2.02 -0.01,-0.06 0.03,-0.13 0.09,-0.15 0.06,-0.01 0.12,0.02 0.13,0.08 0.01,0.03 0.17,0.77 -0.33,2.17 -0.48,1.32 -0.31,1.67 -0.24,1.75 0.02,0.02 0.08,0.09 0.25,0.05 0.31,-0.08 1.7,-2.77 1.99,-4.15 0.7,-3.34 1.17,-5.95 1.18,-5.98 0.01,-0.06 0.07,-0.1 0.13,-0.09 0.06,0.01 0.1,0.06 0.08,0.13 0,0.02 -0.47,2.64 -1.17,5.98 -0.25,1.16 -1.64,4.2 -2.16,4.33 -0.16,0.04 -0.28,0.02 -0.36,-0.02z"/>
   <path class="fil11" d="M129.37 69.98l0 0 0 0zm-2.7 4.36l0 0c-0.19,-0.1 -0.55,-0.47 0.05,-1.71 0.41,-0.85 0.49,-2.22 0.56,-3.55 0.04,-0.77 0.09,-1.58 0.2,-2.25 0.31,-1.8 1.42,-3.51 1.47,-3.59 0.04,-0.05 0.11,-0.07 0.16,-0.03 0.05,0.03 0.06,0.1 0.02,0.16 -0.01,0.01 -1.13,1.74 -1.43,3.49 -0.11,0.66 -0.15,1.42 -0.2,2.22 -0.07,1.35 -0.15,2.75 -0.58,3.65 -0.42,0.86 -0.35,1.29 -0.14,1.4l0 0c0.24,0.13 0.73,-0.09 1.02,-0.58 0.53,-0.88 1.04,-2.56 1.25,-3.28 0.08,-0.27 0.11,-0.35 0.12,-0.39 0.04,-0.06 0.1,-0.08 0.16,-0.05 0.05,0.03 0.07,0.09 0.04,0.15 -0.01,0.03 -0.06,0.18 -0.1,0.35 -0.22,0.72 -0.73,2.42 -1.28,3.33 -0.34,0.57 -0.94,0.88 -1.32,0.68z"/>
   <path class="fil11" d="M127.44 75.11l0 0c-0.11,-0.05 -0.44,-0.3 -0.08,-1.07 0.03,-0.06 0.09,-0.08 0.15,-0.06 0.05,0.03 0.08,0.09 0.05,0.15 -0.18,0.4 -0.19,0.68 -0.01,0.77l0 0.01c0.32,0.16 1.17,-0.28 1.83,-1.4 0.51,-0.87 1.11,-2.76 1.12,-2.78 0.02,-0.06 0.08,-0.1 0.14,-0.08 0.06,0.01 0.09,0.08 0.07,0.14 -0.03,0.08 -0.61,1.94 -1.14,2.84 -0.7,1.19 -1.67,1.72 -2.13,1.48z"/>
   <path class="fil11" d="M129.12 75.56c-0.38,-0.2 -0.38,-0.97 -0.38,-1.06 0,-0.07 0.05,-0.12 0.11,-0.12 0.06,-0.01 0.11,0.04 0.11,0.11 0,0.19 0.04,0.75 0.27,0.86l0 0.01c0.11,0.05 0.26,-0.01 0.45,-0.16 0.87,-0.73 2.31,-4.68 2.33,-4.72 0.02,-0.06 0.09,-0.09 0.14,-0.07 0.06,0.02 0.09,0.08 0.07,0.14 -0.06,0.17 -1.48,4.06 -2.41,4.82 -0.26,0.22 -0.49,0.29 -0.68,0.2l-0.01 -0.01z"/>
   <path class="fil9" d="M145.23 27.79c0,0 0.88,12.05 11.42,13.76 8.33,1.34 4.54,-14.12 4.54,-14.12l1.06 -6.09c-10.05,1.14 -17.02,6.45 -17.02,6.45z"/>
   <path class="fil10" d="M151.74 27.51c-2.46,0 -4.6,-0.77 -4.64,-0.79l0.07 -0.17c0.05,0.02 5.31,1.93 8.77,-0.3 0.99,-0.64 2.25,-1.77 2.59,-3.51 0.2,-1.04 -0.02,-1.83 -0.02,-1.83l0.18 -0.06c0.01,0.04 0.91,3.26 -2.65,5.56 -1.31,0.84 -2.86,1.1 -4.3,1.1z"/>
   <path class="fil2" d="M169.42 14.99c-0.99,0 -1.72,-0.6 -1.76,-0.63 -0.05,-0.04 -0.06,-0.12 -0.01,-0.17 0.04,-0.05 0.12,-0.06 0.17,-0.02 0.01,0.01 0.98,0.81 2.16,0.51 0.06,-0.02 0.13,0.02 0.15,0.08 0.01,0.07 -0.03,0.13 -0.09,0.15 -0.21,0.05 -0.42,0.08 -0.62,0.08z"/>
   <path class="fil4" d="M205.25 13.54l-0.12 0 -10.66 -0.31 -23.14 -0.66c-1.19,-0.06 -2.11,-0.89 -2.11,-1.9 0,-0.48 0.21,-0.92 0.57,-1.26 0.36,-0.34 0.85,-0.57 1.42,-0.62l22.85 -1.86 10.36 -0.84 0.81 7.35 0.02 0.1z"/>
   <path class="fil4" d="M205.23 14.02c-0.04,0.04 -0.09,0.08 -0.13,0.12l-14.02 -0.36c-1.11,-1.11 -1.76,-2.48 -1.76,-3.96 0,-1.22 0.44,-2.37 1.21,-3.35l14.72 -0.97 -0.02 8.52z"/>
   <path class="fil2" d="M200.82 9.83c0,-2.39 1.78,-4.33 3.98,-4.33 2.21,0 3.99,1.94 3.99,4.33 0,2.39 -1.78,4.32 -3.99,4.32 -2.2,0 -3.98,-1.93 -3.98,-4.32z"/>
   <path class="fil12" d="M201.62 9.82c0,-1.92 1.43,-3.47 3.18,-3.47 1.77,0 3.19,1.55 3.19,3.47 0,1.91 -1.42,3.46 -3.19,3.46 -1.75,0 -3.18,-1.55 -3.18,-3.46z"/>
   <path class="fil3" d="M186.57 5.66c0.14,0.55 0.2,1.6 -0.14,2.27 -0.35,0.66 -1.16,0.55 -1.27,-0.7 -0.05,-0.57 -0.16,-1.35 -0.1,-1.68 0.16,-0.79 1.28,-0.81 1.51,0.11z"/>
   <path class="fil2" d="M185.23 5.35c-0.03,0.06 -0.06,0.13 -0.08,0.22 -0.04,0.23 0.01,0.74 0.06,1.2 0.01,0.15 0.03,0.31 0.04,0.45 0.06,0.69 0.34,0.98 0.58,1.01 0.19,0.03 0.39,-0.1 0.51,-0.34 0.35,-0.66 0.27,-1.71 0.14,-2.21 -0.12,-0.46 -0.47,-0.65 -0.77,-0.63 -0.17,0.01 -0.37,0.1 -0.48,0.3zm1.26 2.65c-0.17,0.29 -0.43,0.45 -0.7,0.41 -0.39,-0.06 -0.66,-0.5 -0.72,-1.17 -0.02,-0.14 -0.03,-0.29 -0.05,-0.45 -0.05,-0.48 -0.1,-0.99 -0.05,-1.25 0.07,-0.38 0.36,-0.64 0.74,-0.66 0.37,-0.03 0.81,0.2 0.95,0.75 0.14,0.55 0.22,1.63 -0.15,2.33 -0.01,0.02 -0.01,0.03 -0.02,0.04z"/>
   <path class="fil3" d="M185.38 5.81c0.41,0.63 0.92,1.92 0.78,2.9 -0.14,0.99 -1.18,1.21 -1.83,-0.31 -0.3,-0.69 -0.76,-1.61 -0.82,-2.05 -0.15,-1.07 1.21,-1.58 1.87,-0.54z"/>
   <path class="fil2" d="M183.73 5.76c-0.09,0.16 -0.13,0.36 -0.1,0.57 0.04,0.32 0.32,0.94 0.57,1.48 0.09,0.19 0.17,0.38 0.24,0.55 0.36,0.82 0.8,1.06 1.09,1.01 0.26,-0.04 0.45,-0.29 0.51,-0.67 0.14,-0.98 -0.39,-2.25 -0.76,-2.83 -0.34,-0.52 -0.82,-0.58 -1.13,-0.46 -0.18,0.07 -0.33,0.19 -0.42,0.35zm2.4 3.43c-0.13,0.23 -0.33,0.38 -0.56,0.41 -0.5,0.08 -1.01,-0.35 -1.35,-1.15 -0.08,-0.17 -0.16,-0.35 -0.24,-0.54 -0.27,-0.58 -0.54,-1.19 -0.59,-1.54 -0.09,-0.61 0.28,-1.03 0.68,-1.18 0.4,-0.14 1.01,-0.09 1.42,0.55 0.4,0.63 0.94,1.94 0.79,2.98 -0.03,0.18 -0.08,0.34 -0.15,0.47z"/>
   <path class="fil3" d="M183.88 6.29c0.4,0.63 0.91,1.91 0.77,2.9 -0.14,0.98 -1.17,1.21 -1.83,-0.31 -0.3,-0.69 -0.76,-1.61 -0.82,-2.05 -0.14,-1.07 1.21,-1.59 1.88,-0.54z"/>
   <path class="fil2" d="M182.22 6.24c-0.09,0.16 -0.13,0.36 -0.1,0.57 0.04,0.32 0.32,0.93 0.57,1.48 0.09,0.19 0.17,0.37 0.24,0.54 0.36,0.83 0.8,1.07 1.1,1.02 0.25,-0.04 0.45,-0.3 0.5,-0.67 0.14,-0.98 -0.39,-2.26 -0.76,-2.83 -0.33,-0.53 -0.82,-0.58 -1.13,-0.46 -0.18,0.06 -0.33,0.19 -0.42,0.35zm2.4 3.43c-0.13,0.23 -0.33,0.37 -0.56,0.41 -0.5,0.08 -1.01,-0.35 -1.35,-1.15 -0.07,-0.17 -0.16,-0.35 -0.24,-0.54 -0.27,-0.59 -0.54,-1.19 -0.59,-1.54 -0.08,-0.61 0.28,-1.03 0.68,-1.18 0.4,-0.15 1.01,-0.09 1.42,0.55 0.4,0.63 0.94,1.94 0.79,2.98 -0.02,0.18 -0.08,0.34 -0.15,0.47z"/>
   <path class="fil3" d="M182.27 6.75c0.35,0.54 0.78,1.62 0.66,2.45 -0.12,0.83 -0.99,1.02 -1.55,-0.26 -0.25,-0.58 -0.64,-1.36 -0.69,-1.73 -0.12,-0.9 1.02,-1.34 1.58,-0.46z"/>
   <path class="fil2" d="M180.89 6.72c-0.07,0.13 -0.1,0.29 -0.08,0.47 0.04,0.26 0.27,0.79 0.48,1.25 0.07,0.16 0.15,0.31 0.21,0.45 0.29,0.69 0.66,0.89 0.9,0.85 0.21,-0.03 0.36,-0.24 0.41,-0.55 0.11,-0.82 -0.33,-1.89 -0.64,-2.38 -0.28,-0.43 -0.67,-0.47 -0.93,-0.38 -0.15,0.06 -0.27,0.16 -0.35,0.29zm2.03 2.9c-0.12,0.19 -0.29,0.32 -0.49,0.35 -0.43,0.07 -0.86,-0.3 -1.16,-0.98 -0.06,-0.14 -0.13,-0.3 -0.2,-0.45 -0.23,-0.5 -0.46,-1.01 -0.5,-1.31 -0.06,-0.46 0.17,-0.86 0.59,-1.02 0.34,-0.12 0.87,-0.07 1.22,0.48l-0.11 0.06 0.11 -0.06c0.34,0.53 0.8,1.64 0.67,2.52 -0.02,0.16 -0.07,0.29 -0.13,0.41z"/>
   <path class="fil10" d="M165.83 33.43c-0.44,0 -0.87,0.03 -1.27,0.11 -1.33,0.27 -1.52,0.58 -1.54,0.7 -0.02,0.14 0.13,0.3 0.41,0.45 1.29,0.7 5.02,1.12 8.13,0.09 -1.98,-0.79 -4,-1.35 -5.73,-1.35zm14.77 6.29c-0.07,-0.05 -4.29,-2.99 -8.79,-4.84 -3.2,1.13 -7.13,0.7 -8.47,-0.02 -0.37,-0.2 -0.54,-0.42 -0.5,-0.65 0.05,-0.35 0.62,-0.64 1.69,-0.85 1.83,-0.36 4.28,0.08 7.31,1.32 0.91,-0.33 1.75,-0.79 2.46,-1.42 4.57,-4.06 2.8,-11.52 2.78,-11.6l0.18 -0.04c0.01,0.02 0.47,1.93 0.35,4.32 -0.11,2.21 -0.76,5.3 -3.19,7.46 -0.67,0.6 -1.47,1.05 -2.34,1.38 0.86,0.36 1.76,0.78 2.7,1.26 3.28,1.67 5.9,3.51 5.92,3.53l-0.1 0.15z"/>
   <path class="fil9" d="M159.64 85.32l-0.03 0c-0.09,-0.01 -0.17,-0.1 -0.15,-0.2 0.46,-3.73 3.98,-6.73 4.13,-6.86 0.07,-0.06 0.19,-0.06 0.25,0.02 0.07,0.08 0.06,0.19 -0.02,0.26 -0.04,0.03 -3.56,3.04 -4,6.62 -0.01,0.09 -0.09,0.16 -0.18,0.16z"/>
   <path class="fil5" d="M114.24 145.66l0 3.63c-0.18,-0.01 -0.36,-0.02 -0.54,-0.02 -4.57,0 -8.26,2.96 -8.26,6.6l16.52 0c0,0 2.77,0 0,-10.21 -0.51,-1.86 -7.72,0 -7.72,0z"/>
   <path class="fil6" d="M117.97 152.27c0.02,0 0.04,0 0.05,-0.01 0.07,-0.03 0.09,-0.1 0.06,-0.17 -1.29,-2.77 -3.81,-2.93 -3.84,-2.93 -0.06,0 -0.12,0.05 -0.13,0.12 0,0.07 0.05,0.13 0.12,0.13 0.02,0 2.4,0.15 3.63,2.79 0.02,0.05 0.07,0.07 0.11,0.07z"/>
   <path class="fil5" d="M87.33 144.52l-1.61 4.77c-0.18,-0.01 -0.36,-0.02 -0.54,-0.02 -4.56,0 -8.26,2.96 -8.26,6.6l16.52 0c0,0 2.4,0 0,-10.21 -0.44,-1.88 -6.11,-1.14 -6.11,-1.14z"/>
   <path class="fil13" d="M118.71 64.37c0,0 1.18,17.71 5.69,81.85 0,0 -3.42,0.74 -6.3,1.02 -2.53,0.25 -5.45,0 -5.45,0 0,0 -8.68,-64.01 -8.86,-61.02 -1.45,23.22 -7.85,59.39 -7.85,59.39 0,0 -1.43,1.16 -6.47,1.63 -0.99,0.1 -3.99,0 -3.99,0l1.14 -77.61 32.09 -5.26z"/>
   <path class="fil9" d="M90.69 24.13c-5.08,0.19 -27.42,9.25 -28.06,10.71 -1.97,4.44 3.16,7.5 8.59,7.56 8.54,0.09 16.74,-2.54 16.74,-2.54 0,0 6.32,-15.87 2.73,-15.73z"/>
   <path class="fil9" d="M101.18 22.51c-5.13,-0.33 -18.26,3.62 -17.12,10.37 1.31,7.82 1.8,17.46 1.76,22.23 -0.05,6.06 -0.04,19.4 -0.04,19.4 0,0 11.44,7.36 34.77,-3.29 0,0 -0.45,-16.66 -2.23,-28.92 -1.69,-11.67 -4.39,-18.96 -17.14,-19.79z"/>
   <path class="fil10" d="M100.11 26.54l-0.99 0.71c-0.97,0.7 -2.34,0.48 -3.04,-0.49l-2.61 -3.63c-0.7,-0.97 -0.48,-2.33 0.49,-3.03l0.99 -0.72c0.97,-0.69 2.34,-0.47 3.04,0.5l2.61 3.62c0.7,0.97 0.48,2.34 -0.49,3.04z"/>
   <path class="fil14" d="M94.27 24.02c-0.04,0.03 -0.11,0.03 -0.15,-0.02 -0.04,-0.04 -0.03,-0.11 0.02,-0.15 0.04,-0.04 0.11,-0.03 0.15,0.01 0.04,0.05 0.03,0.12 -0.02,0.16z"/>
   <path class="fil14" d="M94.35 22.86c-0.04,0.04 -0.11,0.03 -0.15,-0.02 -0.04,-0.04 -0.03,-0.11 0.02,-0.15 0.04,-0.04 0.11,-0.03 0.15,0.02 0.04,0.04 0.03,0.11 -0.02,0.15z"/>
   <path class="fil14" d="M94.26 22.27c-0.05,0.04 -0.12,0.03 -0.15,-0.02 -0.04,-0.04 -0.03,-0.11 0.01,-0.15 0.05,-0.04 0.12,-0.03 0.16,0.02 0.03,0.04 0.03,0.11 -0.02,0.15z"/>
   <path class="fil14" d="M93.86 22.73c-0.04,0.04 -0.11,0.04 -0.15,-0.01 -0.04,-0.05 -0.03,-0.12 0.01,-0.15 0.05,-0.04 0.12,-0.04 0.16,0.01 0.04,0.05 0.03,0.12 -0.02,0.15z"/>
   <path class="fil14" d="M93.29 22.83c0.02,0 0.05,0.02 0.06,0.04 0.03,0.03 0.03,0.08 0.02,0.11 -0.03,-0.05 -0.06,-0.1 -0.08,-0.15z"/>
   <path class="fil14" d="M93.96 21.49c-0.05,0.04 -0.12,0.04 -0.16,-0.01 -0.04,-0.05 -0.03,-0.12 0.02,-0.15 0.05,-0.04 0.11,-0.03 0.15,0.01 0.04,0.05 0.03,0.12 -0.01,0.15z"/>
   <path class="fil14" d="M94.01 23.39c-0.05,0.04 -0.12,0.03 -0.15,-0.02 -0.04,-0.04 -0.04,-0.11 0.01,-0.15 0.05,-0.04 0.12,-0.03 0.15,0.02 0.04,0.04 0.04,0.11 -0.01,0.15z"/>
   <path class="fil14" d="M96.49 27.19c0.04,-0.01 0.07,0.01 0.1,0.04 0.01,0.01 0.02,0.03 0.02,0.05 -0.04,-0.03 -0.08,-0.06 -0.12,-0.09z"/>
   <path class="fil14" d="M93.19 22.6c0.05,0 0.1,0.04 0.11,0.1 0.01,0.03 -0.01,0.07 -0.03,0.09 -0.03,-0.06 -0.06,-0.12 -0.08,-0.19z"/>
   <path class="fil14" d="M93.89 21.29c-0.01,-0.06 0.04,-0.11 0.1,-0.12 0.05,-0.01 0.11,0.03 0.12,0.09 0.01,0.06 -0.03,0.12 -0.09,0.12 -0.06,0.01 -0.12,-0.03 -0.13,-0.09z"/>
   <path class="fil14" d="M94.03 23.74c0,-0.06 0.04,-0.11 0.1,-0.12 0.06,-0.01 0.11,0.03 0.12,0.09 0.01,0.06 -0.03,0.12 -0.09,0.13 -0.06,0 -0.12,-0.04 -0.13,-0.1z"/>
   <path class="fil14" d="M93.58 22.15c-0.01,-0.05 0.03,-0.11 0.09,-0.12 0.06,-0.01 0.12,0.03 0.13,0.09 0,0.06 -0.04,0.12 -0.1,0.13 -0.06,0.01 -0.11,-0.04 -0.12,-0.1z"/>
   <path class="fil14" d="M93.9 22.86c0,-0.06 0.04,-0.11 0.1,-0.12 0.06,-0.01 0.11,0.03 0.12,0.09 0.01,0.06 -0.03,0.12 -0.09,0.13 -0.06,0 -0.12,-0.04 -0.13,-0.1z"/>
   <path class="fil4" d="M100 26.4c0.44,-0.31 0.72,-0.78 0.81,-1.31 0.08,-0.52 -0.04,-1.05 -0.35,-1.49l-2.61 -3.62c-0.65,-0.89 -1.9,-1.1 -2.8,-0.45l-0.99 0.71c-0.43,0.31 -0.71,0.77 -0.8,1.3 -0.09,0.53 0.04,1.06 0.35,1.49l2.61 3.63c0.65,0.89 1.9,1.09 2.79,0.45l0.99 -0.71zm0.27 0.23c-0.02,0.02 -0.04,0.04 -0.06,0.05l-0.99 0.71c-1.05,0.76 -2.53,0.52 -3.28,-0.53l-2.61 -3.62c-0.37,-0.51 -0.52,-1.13 -0.41,-1.75 0.1,-0.63 0.43,-1.17 0.94,-1.53l0.99 -0.72c1.05,-0.75 2.52,-0.52 3.28,0.54l2.61 3.62c0.37,0.51 0.51,1.13 0.41,1.75 -0.09,0.59 -0.4,1.12 -0.88,1.48z"/>
   <path class="fil15" d="M96.75 28c0,0 -5.62,25.84 -3.22,38.8l4.26 6.11 3.86 -6.37c0,0 -3.38,-10.17 -2.73,-38.7l-2.17 0.16z"/>
   <path class="fil10" d="M117.83 57.24c-1.32,0.26 -3.56,0.84 -4.89,0.67 -1.02,-0.04 -4.95,-0.14 -4.82,0.69 0.14,0.9 2.64,1.28 4.32,1.4 -0.78,0.87 -1.67,2.37 -1.87,3.25 -0.21,0.92 0.15,1.64 0.87,1.73 -0.07,0.98 0.24,1.4 0.56,1.56 0.78,0.38 1.42,-0.31 1.7,-1.45 0.05,0.68 0,1.16 0.2,1.62 0.13,0.3 0.55,0.64 0.87,0.71 0.32,0.07 0.74,-0.45 0.88,-0.87 0.18,-0.54 0.29,-1.27 0.32,-1.7 0.01,-0.28 0.01,-0.1 0.14,-0.38 0.46,0 1.67,-0.16 1.89,-0.18 0.81,-0.07 1.54,-1.08 1.97,-1.86 1.45,-2.62 -0.91,-5.44 -2.14,-5.19z"/>
   <path class="fil16" d="M108.33 58.42c-0.08,0.11 -0.1,0.23 -0.06,0.39 0.1,0.37 2.23,0.82 4.23,1.03 0.05,0 0.09,0.03 0.1,0.07 0.02,0.05 0.01,0.09 -0.02,0.13 -0.02,0.02 -2.28,2.55 -1.92,4 0.09,0.39 0.36,0.66 0.82,0.83 0.06,0.02 0.09,0.08 0.08,0.14 -0.01,0.01 -0.16,0.66 0.14,1.11 0.15,0.23 0.4,0.37 0.73,0.42 0.17,0.03 0.32,-0.01 0.46,-0.12 0.45,-0.33 0.65,-1.17 0.72,-1.51 0.01,-0.09 0.03,-0.14 0.03,-0.15 0.01,-0.06 0.07,-0.11 0.14,-0.09 0.06,0.01 0.11,0.07 0.1,0.13 0,0.01 -0.01,0.07 -0.03,0.15 -0.07,0.47 -0.21,2.01 0.88,2.33 0.16,0.04 0.28,0.02 0.4,-0.05 0.19,-0.14 0.45,-0.52 0.55,-1.6 0.12,-1.21 0.73,-1.9 0.76,-1.93 0.04,-0.05 0.12,-0.05 0.17,-0.01 0.05,0.05 0.05,0.13 0.01,0.18 -0.01,0 -0.59,0.65 -0.69,1.79 -0.09,0.94 -0.32,1.53 -0.66,1.77 -0.06,0.04 -0.12,0.07 -0.18,0.08 -0.13,0.05 -0.27,0.04 -0.42,0 -0.64,-0.18 -1.01,-0.72 -1.1,-1.56 0,-0.03 0,-0.05 0,-0.07 -0.13,0.29 -0.3,0.57 -0.53,0.74 -0.2,0.14 -0.41,0.2 -0.65,0.16 -0.4,-0.06 -0.7,-0.24 -0.89,-0.52 -0.29,-0.43 -0.24,-0.98 -0.2,-1.2 -0.48,-0.2 -0.77,-0.52 -0.88,-0.96 -0.34,-1.36 1.3,-3.43 1.83,-4.05 -1.05,-0.12 -4.05,-0.51 -4.22,-1.18 -0.06,-0.24 -0.02,-0.44 0.12,-0.6 0.4,-0.49 1.71,-0.65 4.14,-0.51 0.61,0.04 1.18,0.04 1.69,0.01 1.04,-0.07 2.36,-0.27 3.38,-1.18 0.35,-0.31 0.69,-0.63 1.02,-0.94l0.22 0.12c-0.55,0.53 -0.94,0.88 -1.08,1.01 -1.21,1.07 -2.89,1.19 -3.52,1.23 -0.52,0.03 -1.1,0.03 -1.73,0 -2.27,-0.14 -3.6,0 -3.94,0.41z"/>
   <path class="fil9" d="M114.15 24.19c9.64,2.6 24.02,16.21 21.11,23.09 -3.23,7.64 -13.03,14.89 -13.03,14.89 0,0 -5.96,-2.51 -6.99,-4.89 0,0 9.83,-10.43 9.71,-10.99 -0.55,-2.79 -13.11,-7.72 -13.11,-7.72l-7.65 -15.4c0,0 6.15,0 9.96,1.02z"/>
   <path class="fil15" d="M96.26 27.34l2.68 -0.74c0,0 0.75,1.81 -0.13,2.24 -0.87,0.43 -2.44,0.86 -3.04,-0.52 -0.6,-1.38 0.49,-0.98 0.49,-0.98z"/>
   <path class="fil17" d="M97.38 27.04c0,0 1.16,0.89 1.54,1.33 0.31,0.35 1.21,1.82 1.21,1.82 0,0 5.49,-3.3 4.06,-7.02 0,0 -2.13,-1.92 -4.86,-1.73 0,0 0.8,3.57 -1.95,5.6z"/>
   <path class="fil17" d="M95.14 25.15c0,0 1.2,1.76 2.24,1.89 0,0 -1.77,1.68 -1.7,3.32 0,0 -4.66,-1.1 -4.99,-6.23 0,0 0.65,-0.63 1.5,-0.81 0.54,-0.12 1.35,-0.49 1.35,-0.49l1.6 2.32z"/>
   <path class="fil10" d="M99.25 16.82c-0.95,4.34 -4.27,7.29 -7.42,6.59 -3.15,-0.71 -4.7,-5.54 -3.97,-9.15 0.88,-4.36 4.27,-7.29 7.42,-6.59 3.14,0.71 4.92,4.8 3.97,9.15z"/>
   <path class="fil4" d="M93.13 7.91c-0.51,0.14 -1.02,0.37 -1.51,0.69 -1.76,1.14 -3.1,3.27 -3.59,5.7 -0.36,1.75 -0.16,3.83 0.52,5.56 0.74,1.86 1.92,3.06 3.32,3.38 1.16,0.26 2.38,0.01 3.53,-0.72 1.76,-1.13 3.14,-3.27 3.68,-5.74 0.93,-4.24 -0.79,-8.25 -3.84,-8.94 -0.69,-0.15 -1.41,-0.13 -2.11,0.07zm0.92 15.6c-0.75,0.21 -1.52,0.24 -2.26,0.07 -3.23,-0.72 -4.86,-5.62 -4.1,-9.35 0.5,-2.52 1.9,-4.73 3.74,-5.92 1.26,-0.82 2.6,-1.1 3.88,-0.81 3.24,0.73 5.08,4.92 4.11,9.35 -0.56,2.56 -1.99,4.79 -3.83,5.96 -0.5,0.32 -1.02,0.55 -1.54,0.7z"/>
   <path class="fil4" d="M92.16 15.16c-0.04,0.01 -0.08,0.01 -0.11,-0.01 -0.07,-0.04 -0.09,-0.12 -0.05,-0.18 0.02,-0.03 0.41,-0.93 1.53,-0.76 0.07,0.02 0.12,0.08 0.11,0.15 -0.01,0.07 -0.07,0.11 -0.14,0.11 -0.72,0.06 -1.26,0.6 -1.28,0.63 -0.01,0.03 -0.03,0.04 -0.06,0.06z"/>
   <path class="fil4" d="M89.08 14.81c-0.03,-0.01 -0.06,-0.04 -0.08,-0.08 -0.02,-0.07 0.01,-0.14 0.08,-0.17 0.03,-0.01 0.91,-0.44 1.66,0.41 0.04,0.06 0.04,0.14 -0.01,0.19 -0.05,0.05 -0.12,0.03 -0.18,-0.01 -0.59,-0.41 -1.35,-0.36 -1.38,-0.34 -0.03,0.01 -0.06,0.01 -0.09,0z"/>
   <path class="fil4" d="M93.79 15.7c0.07,0.31 -0.05,0.59 -0.27,0.64 -0.22,0.05 -0.45,-0.16 -0.52,-0.46 -0.07,-0.31 0.06,-0.59 0.28,-0.64 0.21,-0.05 0.45,0.16 0.51,0.46z"/>
   <path class="fil4" d="M90.02 15.86c0.07,0.3 -0.05,0.59 -0.27,0.64 -0.22,0.05 -0.45,-0.16 -0.52,-0.46 -0.06,-0.31 0.06,-0.59 0.28,-0.64 0.22,-0.05 0.45,0.16 0.51,0.46z"/>
   <path class="fil4" d="M91.56 18.34c-0.02,0.01 -0.03,0.01 -0.04,0.01 -0.7,0.05 -1.1,-0.41 -1.12,-0.43 -0.06,-0.08 -0.05,-0.19 0.02,-0.25 0.07,-0.06 0.18,-0.05 0.25,0.02 0.01,0.02 0.31,0.35 0.83,0.31 0.09,-0.01 0.18,0.07 0.18,0.16 0.01,0.09 -0.05,0.16 -0.12,0.18z"/>
   <path class="fil4" d="M96.6 14.19c0,0 -1.75,-3.59 -5.17,-2.23 -6.86,2.73 -9.29,-3.52 -4.42,-4.57 2.76,-0.59 4.66,-2.82 8.35,-2.54 9.64,0.75 9.07,13.14 2.76,15.21 0,0 -0.46,-3.06 -0.6,-3.64 -0.14,-0.58 -0.92,-2.23 -0.92,-2.23z"/>
   <path class="fil10" d="M98.2 17.21c-0.59,0.52 -1.38,0.59 -1.76,0.16 -0.38,-0.43 -0.1,-1.29 0.38,-1.73 0.58,-0.53 1.38,-0.6 1.76,-0.16 0.38,0.43 0.21,1.2 -0.38,1.73z"/>
   <path class="fil4" d="M91.23 20.12c-0.32,0 -0.55,-0.04 -0.56,-0.04 -0.06,-0.01 -0.11,-0.08 -0.09,-0.14 0.01,-0.07 0.07,-0.11 0.14,-0.1 0.01,0.01 1.62,0.29 2.45,-0.76 0.04,-0.06 0.11,-0.07 0.17,-0.02 0.05,0.04 0.06,0.11 0.02,0.17 -0.38,0.48 -0.97,0.79 -1.7,0.87 -0.15,0.02 -0.3,0.02 -0.43,0.02z"/>
   <path class="fil10" d="M83.6 10.5c0,0 4.82,-0.81 4.84,-0.57 0.07,0.72 -0.96,0.73 -0.96,0.73l-3.88 -0.16z"/>
   <path class="fil4" d="M84.84 10.43l2.64 0.11c0,0 0.51,-0.01 0.74,-0.27 0.06,-0.07 0.1,-0.15 0.1,-0.26 -0.34,-0.03 -1.86,0.16 -3.48,0.42zm2.64 0.36l-3.89 -0.17c-0.06,0 -0.11,-0.05 -0.12,-0.11 0,-0.07 0.04,-0.12 0.11,-0.13 1.73,-0.3 4.68,-0.75 4.93,-0.56 0.03,0.02 0.05,0.06 0.06,0.1 0.02,0.21 -0.04,0.38 -0.17,0.52 -0.3,0.34 -0.89,0.35 -0.92,0.35z"/>
   <path class="fil10" d="M87.68 10.62c-0.76,-0.12 -1.63,-0.16 -2.48,-0.2 -1.51,-0.08 -2.77,0.32 -3.76,0.49 -1.33,0.23 -4.83,3.76 -4.83,3.76 0,0 -3.67,3.76 -3.73,4.05l3.63 2.97 3.54 -5.2c0.25,0.01 0.51,-0.02 0.77,-0.08 2.85,-0.75 3.72,-5 5.03,-4.8 1.3,0.19 3.75,0.24 4.03,-0.54 0.04,-0.11 -1.37,-0.32 -2.2,-0.45z"/>
   <path class="fil4" d="M73.04 18.68l3.44 2.83 3.46 -5.09c0.02,-0.03 0.06,-0.05 0.11,-0.05 0.25,0 0.5,-0.02 0.74,-0.08 1.56,-0.42 2.52,-1.92 3.29,-3.13 0.63,-0.99 1.13,-1.78 1.79,-1.68 1.37,0.21 3.46,0.19 3.85,-0.37 -0.29,-0.09 -1.25,-0.24 -1.79,-0.32l-0.27 -0.05c-0.7,-0.11 -1.5,-0.15 -2.27,-0.18l-0.2 -0.01c-1.12,-0.06 -2.09,0.15 -2.95,0.33 -0.27,0.06 -0.53,0.11 -0.78,0.15 -1.27,0.22 -4.72,3.69 -4.76,3.73 -1.29,1.32 -3.34,3.47 -3.66,3.92zm3.47 3.14c-0.03,0 -0.06,-0.01 -0.08,-0.03l-3.63 -2.98c-0.03,-0.03 -0.05,-0.07 -0.04,-0.12 0.06,-0.29 2.65,-2.97 3.76,-4.11 0.15,-0.14 3.55,-3.56 4.9,-3.79 0.24,-0.04 0.5,-0.1 0.77,-0.16 0.83,-0.17 1.86,-0.39 3.01,-0.34l0.2 0.02c0.78,0.03 1.59,0.07 2.3,0.19l0.27 0.04c1.66,0.26 1.95,0.33 2.02,0.45 0.02,0.04 0.02,0.09 0.01,0.12 -0.15,0.4 -0.73,0.64 -1.74,0.72 -0.88,0.06 -1.83,-0.01 -2.43,-0.1 -0.49,-0.08 -0.98,0.69 -1.54,1.57 -0.79,1.24 -1.78,2.79 -3.44,3.23 -0.24,0.06 -0.48,0.09 -0.74,0.09l-3.5 5.14c-0.02,0.03 -0.05,0.05 -0.08,0.06l-0.02 0z"/>
   <path class="fil10" d="M83.63 11.52c0.41,-0.05 1.71,-0.19 1.97,-0.18 0.62,0.01 1.65,0.17 2.38,0.3 0.74,0.12 1.34,0.38 1.33,0.48 -0.08,0.67 -1.63,0.57 -2.82,0.62 -0.9,0.03 -2.2,0.04 -2.39,-0.01l-0.47 -1.21z"/>
   <path class="fil4" d="M85.01 12.89c-0.45,0 -0.83,-0.01 -0.94,-0.04 -0.07,-0.01 -0.11,-0.08 -0.09,-0.15 0.01,-0.06 0.08,-0.11 0.15,-0.09 0.16,0.04 1.4,0.04 2.35,0 0.2,-0.01 0.4,-0.01 0.61,-0.01 0.93,-0.02 1.97,-0.04 2.09,-0.45 -0.12,-0.09 -0.58,-0.28 -1.22,-0.39 -0.79,-0.13 -1.76,-0.29 -2.36,-0.3 -0.25,0 -1.51,0.13 -1.95,0.19 -0.07,0.01 -0.13,-0.04 -0.14,-0.11 -0.01,-0.07 0.04,-0.13 0.11,-0.14 0.39,-0.05 1.71,-0.19 1.98,-0.19 0.62,0.01 1.61,0.17 2.4,0.3 0.01,0.01 1.48,0.27 1.44,0.63 -0.09,0.67 -1.23,0.69 -2.34,0.71 -0.21,0 -0.41,0 -0.61,0.01 -0.42,0.02 -0.99,0.03 -1.48,0.03z"/>
   <path class="fil10" d="M83.45 12.77c-0.01,-0.01 1.69,-0.11 2.25,-0.01 1.42,0.24 1.85,0.66 1.74,0.79 -0.47,0.52 -2.08,0.33 -2.48,0.3 -0.98,-0.07 -2.01,0.47 -2.01,0.47l0.5 -1.55z"/>
   <path class="fil4" d="M83.58 12.77l0 0 0 0zm-0.63 1.67c-0.04,0 -0.09,-0.02 -0.11,-0.06 -0.03,-0.06 -0.01,-0.14 0.05,-0.17 0.05,-0.03 1.07,-0.56 2.08,-0.48 0.03,0 0.07,0 0.12,0.01 0.46,0.04 1.81,0.15 2.23,-0.25 -0.07,-0.1 -0.46,-0.41 -1.64,-0.61 -0.52,-0.09 -2.12,0 -2.21,0.01l-0.02 -0.12 -0.09 -0.08c0.04,-0.05 0.04,-0.06 1.01,-0.09 0.66,-0.02 1.11,-0.01 1.35,0.03 1.23,0.22 1.76,0.56 1.84,0.8 0.03,0.07 0.02,0.15 -0.03,0.2 -0.42,0.47 -1.53,0.44 -2.46,0.36 -0.05,-0.01 -0.09,-0.01 -0.12,-0.01 -0.94,-0.07 -1.93,0.44 -1.94,0.45 -0.02,0.01 -0.04,0.01 -0.06,0.01z"/>
   <path class="fil9" d="M75.64 14.5c0,0 -15.85,19.4 -13.11,23.78 2.83,4.53 11.65,-7.36 10.44,-4.38 -0.47,1.15 7.13,-15.64 7.25,-15.91 0,0 -0.21,-1.28 -1.54,-2.2 -1.81,-1.26 -3.04,-1.29 -3.04,-1.29z"/>
   <path class="fil7 str0" d="M73.84 32.79c-0.05,0 -0.09,-0.02 -0.13,-0.05 -0.07,-0.07 -0.07,-0.18 -0.01,-0.25 1.29,-1.4 1.39,-3.57 1.39,-3.59 0.01,-0.1 0.09,-0.18 0.19,-0.18 0.1,0 0.18,0.09 0.17,0.19 0,0.09 -0.1,2.33 -1.48,3.82 -0.03,0.04 -0.08,0.06 -0.13,0.06z"/>
   <path class="fil1" d="M44.32 151.66c0,0 -5.68,-10.34 -9.02,-8.3 -3.35,2.05 2.34,6.71 -2.01,5.46 -4.35,-1.25 -6.91,-1.59 -7.36,0.68 -0.44,2.27 -10.64,-2.96 -14.21,2.16l32.6 0z"/>
   <path class="fil16" d="M11.79 151.73l-0.14 -0.15c2.21,-3.16 6.87,-2.43 10.27,-1.9 2.02,0.31 3.77,0.58 3.93,-0.21 0.45,-2.31 2.97,-2.05 7.46,-0.76 0.89,0.25 1.41,0.27 1.56,0.05 0.14,-0.22 -0.05,-0.74 -0.27,-1.34 -0.47,-1.3 -1.12,-3.08 0.66,-4.16 1.42,-0.87 3.4,0.27 5.87,3.4 1.82,2.31 3.25,4.91 3.27,4.93l-0.15 0.13c-0.01,-0.02 -1.44,-2.6 -3.25,-4.9 -1.66,-2.1 -3.98,-4.38 -5.66,-3.36 -1.62,0.99 -1.04,2.58 -0.57,3.86 0.25,0.7 0.45,1.25 0.24,1.58 -0.2,0.31 -0.72,0.32 -1.74,0.03 -4.38,-1.26 -6.83,-1.54 -7.25,0.6 -0.19,0.98 -1.84,0.73 -4.12,0.37 -3.37,-0.52 -7.97,-1.23 -10.11,1.83z"/>
   <path class="fil1" d="M260.61 153.49c0,0 -5.58,-8.1 -8.86,-6.5 -3.28,1.61 2.29,5.26 -1.97,4.28 -4.27,-0.98 -6.78,-1.25 -7.22,0.53 -0.44,1.78 -10.45,-2.31 -13.95,1.69l32 0z"/>
   <path class="fil16" d="M228.68 153.55l-0.14 -0.12c2.17,-2.47 6.74,-1.9 10.08,-1.49 1.99,0.25 3.7,0.46 3.85,-0.16 0.45,-1.82 2.92,-1.61 7.33,-0.6 0.87,0.2 1.39,0.21 1.53,0.04 0.14,-0.17 -0.05,-0.58 -0.26,-1.05 -0.47,-1.01 -1.1,-2.41 0.64,-3.26 1.4,-0.68 3.34,0.22 5.76,2.67 1.79,1.81 3.19,3.84 3.21,3.86l-0.15 0.1c-0.01,-0.02 -1.41,-2.04 -3.19,-3.84 -1.62,-1.64 -3.91,-3.43 -5.56,-2.63 -1.58,0.78 -1.01,2.03 -0.55,3.03 0.25,0.55 0.44,0.98 0.23,1.23 -0.19,0.25 -0.7,0.25 -1.7,0.02 -4.3,-0.98 -6.71,-1.2 -7.12,0.47 -0.19,0.78 -1.8,0.58 -4.04,0.3 -3.3,-0.41 -7.82,-0.97 -9.92,1.43z"/>
   <path class="fil1" d="M102.08 181.58c0,0 -4.66,-8.1 -7.4,-6.5 -2.75,1.61 1.92,5.26 -1.65,4.28 -3.56,-0.98 -5.67,-1.25 -6.03,0.53 -0.37,1.78 -8.73,-2.31 -11.65,1.69l26.73 0z"/>
   <path class="fil16" d="M75.4 181.64l-0.11 -0.12c1.81,-2.47 5.63,-1.9 8.42,-1.49 1.66,0.25 3.09,0.46 3.22,-0.16 0.37,-1.81 2.44,-1.61 6.12,-0.6 0.73,0.2 1.16,0.22 1.28,0.04 0.11,-0.17 -0.04,-0.58 -0.22,-1.05 -0.39,-1.01 -0.92,-2.41 0.53,-3.25 1.17,-0.69 2.79,0.21 4.82,2.66 1.49,1.81 2.67,3.84 2.68,3.86l-0.12 0.1c-0.01,-0.02 -1.18,-2.04 -2.67,-3.84 -1.36,-1.64 -3.26,-3.43 -4.64,-2.63 -1.32,0.78 -0.85,2.03 -0.47,3.03 0.21,0.55 0.38,0.98 0.2,1.23 -0.16,0.25 -0.59,0.25 -1.43,0.02 -3.59,-0.98 -5.6,-1.2 -5.94,0.47 -0.16,0.78 -1.51,0.58 -3.38,0.3 -2.76,-0.41 -6.53,-0.97 -8.29,1.43z"/>
   <path class="fil18" d="M32.69 85.81c-0.2,0 -0.4,-0.01 -0.61,-0.04 -3.47,-0.38 -5.93,-3.97 -5.48,-8.02 0.42,-3.81 3.26,-6.66 6.49,-6.66 0.2,0 0.41,0.01 0.61,0.03 3.47,0.39 5.93,3.98 5.48,8.02 -0.42,3.81 -3.26,6.67 -6.49,6.67z"/>
   <path class="fil5" d="M92.75 160.34l3.68 0c-0.01,0.18 -0.01,0.37 -0.01,0.55 0,4.64 3,8.39 6.7,8.39l0 -16.78c0,0 -5.13,-2.43 -12.2,0.26 -1.83,0.7 1.83,7.58 1.83,7.58z"/>
   <path class="fil6" d="M99.47 156.55c0,-0.02 -0.01,-0.04 -0.01,-0.06 -0.03,-0.06 -0.11,-0.09 -0.17,-0.06 -1.47,0.69 -2.21,1.71 -2.56,2.45 -0.39,0.8 -0.42,1.43 -0.42,1.46 0,0.06 0.05,0.13 0.12,0.13 0.07,0 0.13,-0.05 0.13,-0.12 0,-0.03 0.16,-2.44 2.83,-3.69 0.05,-0.02 0.08,-0.07 0.08,-0.11z"/>
   <path class="fil7" d="M66.86 123.89c0,0 -9.06,26.87 -4.93,35.9 4.14,9.04 31.18,2.59 31.18,2.59 0,0 1.2,-4.72 -1.61,-10.89l-15.28 -1.93c0,0 13.38,-22.84 7.91,-30.25 -4.05,-5.48 -16.86,-1.82 -17.27,4.58z"/>
   <path class="fil10" d="M33.13 91.58c0.76,2.77 -3.67,4.69 -3.67,4.69 4.21,10.39 6.19,21.81 11.87,22.19 6.56,0.44 14.33,-16.66 14.33,-16.66l-9.12 -5.39 -4 10.9c0,0 -3.73,-3.32 -5.91,-7.55 -1.37,-2.65 -3.5,-8.18 -3.5,-8.18z"/>
   <path class="fil19" d="M29.61 96.33c1.06,2.63 1.97,5.31 2.85,7.89 2.54,7.43 4.73,13.85 8.88,14.13 0.08,0 0.16,0 0.24,0 6.11,0 13.31,-15.16 13.93,-16.51l-8.91 -5.26 -3.96 10.77c-0.01,0.04 -0.04,0.06 -0.08,0.07 -0.03,0.01 -0.07,0 -0.1,-0.02 -0.04,-0.04 -3.77,-3.38 -5.93,-7.59 -1.05,-2.03 -2.57,-5.8 -3.21,-7.42 -0.06,0.91 -0.63,1.81 -1.67,2.66 -0.84,0.69 -1.74,1.14 -2.04,1.28zm11.98 22.25c-0.09,0 -0.18,0 -0.27,-0.01 -4.3,-0.28 -6.51,-6.77 -9.07,-14.28 -0.9,-2.61 -1.82,-5.32 -2.89,-7.97 -0.03,-0.06 0,-0.13 0.06,-0.15 0.04,-0.02 4.32,-1.92 3.6,-4.56 -0.02,-0.06 0.02,-0.12 0.07,-0.14 0.06,-0.02 0.12,0.01 0.15,0.06 0.02,0.06 2.14,5.56 3.49,8.18 1.93,3.73 5.09,6.78 5.76,7.4l3.94 -10.74c0.02,-0.03 0.04,-0.05 0.07,-0.07 0.04,-0.01 0.07,0 0.1,0.01l9.12 5.39c0.05,0.03 0.07,0.09 0.05,0.15 -0.02,0.04 -1.98,4.33 -4.72,8.51 -3.57,5.46 -6.75,8.22 -9.46,8.22z"/>
   <path class="fil19" d="M51.64 69.2c0,0 2.73,-2.85 7.07,-1.07 4.35,1.78 8.56,11.1 0.52,14.52 -8.04,3.42 -18.83,-8.05 -7.59,-13.45z"/>
   <path class="fil10" d="M61.95 93.62l-3.23 1.29c-0.59,0.17 -7.8,-0.41 -8.86,-1.92 -1.67,-2.38 2.74,-4.33 4.22,-4.91 0.26,-0.1 0.41,-0.37 0.34,-0.63l-1.06 -3.67c-0.31,-1.12 0.4,-2.3 1.58,-2.64l1.23 -0.35c1.18,-0.34 2.41,0.29 2.73,1.4l1.04 3.62c0.08,0.3 0.38,0.5 0.71,0.48 1.04,-0.05 3.15,-0.08 3.22,0.49 0.22,1.94 -1.26,6.65 -1.92,6.84z"/>
   <path class="fil2" d="M63 86.38c0.07,-0.02 0.12,-0.08 0.12,-0.15 0,-0.09 -0.07,-0.16 -0.16,-0.16l-2.75 0.09 -1.15 -4.02c-0.34,-1.19 -1.66,-1.87 -2.94,-1.51l-1.22 0.36c-1.28,0.36 -2.04,1.63 -1.7,2.83l1.15 4.01 -1.84 0.95c-0.08,0.04 -0.11,0.14 -0.07,0.21 0.04,0.08 0.14,0.11 0.22,0.06l1.96 -1c0.07,-0.04 0.11,-0.11 0.09,-0.18l-1.19 -4.14c-0.29,-1.03 0.36,-2.13 1.47,-2.44l1.22 -0.35c1.1,-0.32 2.24,0.26 2.53,1.3l1.19 4.13c0.01,0.07 0.08,0.12 0.16,0.11l2.87 -0.09c0.01,0 0.02,0 0.04,-0.01z"/>
   <path class="fil9" d="M88.14 120.46c-22.61,16.14 -31.47,2.44 -31.47,2.44 0,0 -0.06,-0.09 -0.06,-0.12 -1.32,-12.6 -7.81,-21.37 -7.81,-21.37 0,0 28.29,-6.05 29.73,-4.03 7.12,9.98 9.61,23.08 9.61,23.08z"/>
   <path class="fil9" d="M81.53 104c1.33,3.5 -20.84,3.67 -28.77,1.41 -6.54,-1.85 -8.72,-6.9 -8.72,-6.9 0,0 1.08,-5.22 8.58,-9.9 0.73,-0.45 -0.02,1.75 0.7,3.16 0.07,0.12 0.14,0.24 0.21,0.35 0.4,0.63 0.98,1.14 1.82,1.33 0.14,0.03 0.28,0.06 0.44,0.07 0.59,0.05 1.28,-0.05 2.11,-0.35 0.37,-0.14 0.72,-0.29 1.04,-0.45 0.12,-0.06 0.24,-0.13 0.36,-0.2 3.88,-2.24 3.58,-6.45 3.58,-6.45 0,0 1.15,-0.24 3.05,-0.4 0.02,0 0.04,0 0.06,0 5.09,-0.41 9.81,2.65 11.54,7.45 1.2,3.33 2.66,7.34 4,10.88z"/>
   <path class="fil10" d="M59.92 78.77c-0.83,4.04 -3.99,6.93 -7.07,6.46 -3.08,-0.48 -4.7,-4.82 -4.08,-8.17 0.76,-4.04 4,-6.92 7.08,-6.45 3.07,0.47 4.9,4.13 4.07,8.16z"/>
   <path class="fil2" d="M53.97 76.97c-0.04,0 -0.07,-0.02 -0.1,-0.05 -0.04,-0.05 -0.02,-0.13 0.04,-0.17 0.03,-0.02 0.77,-0.61 1.66,-0.03 0.06,0.03 0.08,0.11 0.04,0.16 -0.04,0.06 -0.11,0.06 -0.18,0.04 -0.64,-0.23 -1.36,0.01 -1.38,0.03 -0.03,0.01 -0.05,0.02 -0.08,0.02z"/>
   <path class="fil2" d="M50.09 77.15c-0.04,0 -0.07,-0.02 -0.1,-0.05 -0.03,-0.05 -0.02,-0.13 0.04,-0.17 0.03,-0.02 0.77,-0.61 1.67,-0.03 0.05,0.03 0.07,0.11 0.03,0.16 -0.04,0.06 -0.11,0.06 -0.18,0.04 -0.64,-0.23 -1.35,0.01 -1.38,0.03 -0.02,0.01 -0.05,0.02 -0.08,0.02z"/>
   <path class="fil2" d="M55.23 78.02c0.07,0.27 -0.04,0.54 -0.25,0.6 -0.22,0.05 -0.44,-0.13 -0.52,-0.4 -0.07,-0.27 0.05,-0.54 0.26,-0.6 0.21,-0.05 0.44,0.12 0.51,0.4z"/>
   <path class="fil2" d="M51.57 78.37c0.07,0.28 -0.04,0.54 -0.26,0.6 -0.21,0.06 -0.44,-0.12 -0.51,-0.39 -0.07,-0.28 0.04,-0.55 0.25,-0.6 0.22,-0.06 0.45,0.12 0.52,0.39z"/>
   <path class="fil2" d="M53.09 80.51c0.06,-0.01 0.09,-0.06 0.09,-0.11 -0.01,-0.06 -0.06,-0.1 -0.13,-0.09 -0.53,0.06 -0.85,-0.25 -0.86,-0.26 -0.04,-0.04 -0.11,-0.04 -0.16,0 -0.04,0.04 -0.05,0.11 -0.01,0.15 0.02,0.01 0.4,0.4 1.06,0.32l0.01 -0.01z"/>
   <path class="fil19" d="M54.58 81.24c0,0 0,0.47 -0.24,0.92 -0.19,0.38 -0.56,0.74 -1.25,0.81 -0.32,0.03 -0.59,-0.05 -0.81,-0.2 -0.59,-0.37 -0.81,-1.15 -0.81,-1.15 1.69,0.27 3.11,-0.38 3.11,-0.38z"/>
   <path class="fil20" d="M54.34 82.16c-0.19,0.38 -0.56,0.74 -1.25,0.81 -0.32,0.03 -0.59,-0.05 -0.81,-0.2 0.39,-0.38 1.21,-1.01 2.06,-0.61z"/>
   <path class="fil2" d="M59.77 78.75c0.81,-3.95 -0.96,-7.54 -3.95,-7.99 -1.18,-0.18 -2.4,0.13 -3.53,0.9 -1.68,1.15 -2.94,3.17 -3.36,5.43 -0.31,1.62 -0.07,3.52 0.63,5.07 0.77,1.67 1.94,2.71 3.32,2.92 1.44,0.22 2.95,-0.31 4.24,-1.49 1.32,-1.2 2.25,-2.92 2.65,-4.84zm-6.95 6.62c-3.15,-0.48 -4.85,-4.87 -4.2,-8.33 0.44,-2.33 1.74,-4.43 3.49,-5.62 1.21,-0.82 2.51,-1.15 3.77,-0.95 3.15,0.48 5.04,4.22 4.19,8.33 -0.4,1.98 -1.38,3.75 -2.73,5 -0.78,0.7 -1.62,1.19 -2.49,1.43 -0.67,0.2 -1.36,0.25 -2.03,0.14z"/>
   <path class="fil19" d="M51.75 70.12c0,0 0.15,5.26 8.32,10.06 0,0 1.16,-3.12 0.16,-6.77 -1.01,-3.66 -8.48,-3.29 -8.48,-3.29z"/>
   <path class="fil19" d="M58.7 68.08c0,0 0.03,-3.31 4.69,-4.19 4.65,-0.88 5.31,6.12 8.65,5.1 3.34,-1.02 7.52,1.14 7.35,4.53 0,0 2.71,2.42 0.02,5.26 -2.68,2.84 -7.78,1.91 -8.33,-0.72 0,0 -3.46,2.25 -4.89,-0.63 -1.43,-2.87 -2.31,-11.83 -6.57,-8.4l-0.92 -0.95z"/>
   <path class="fil19" d="M54.21 72.21c0,0 -3.61,3.94 -5.84,4.14 0,0 0.78,-3.57 2.53,-4.9 1.75,-1.34 2.21,-1.16 2.21,-1.16l1.1 1.92z"/>
   <path class="fil10" d="M59.87 80.14c-0.59,0.54 -1.4,0.66 -1.8,0.26 -0.4,-0.4 -0.13,-1.24 0.35,-1.7 0.59,-0.55 1.4,-0.66 1.8,-0.26 0.4,0.4 0.25,1.16 -0.35,1.7z"/>
   <path class="fil2" d="M26.91 77.68c-0.48,3.89 1.82,7.4 5.12,7.82 1.41,0.18 2.86,-0.24 4.07,-1.18 1.5,-1.17 2.52,-3.03 2.77,-5.11 0.48,-3.89 -1.81,-7.39 -5.11,-7.81 -1.42,-0.18 -2.86,0.23 -4.07,1.18 -1.51,1.17 -2.52,3.03 -2.78,5.1zm5.76 8.88c-0.26,0 -0.51,-0.01 -0.77,-0.05 -3.86,-0.49 -6.55,-4.51 -6,-8.95 0.29,-2.34 1.44,-4.45 3.16,-5.79 1.43,-1.11 3.14,-1.6 4.83,-1.39 3.85,0.49 6.54,4.51 5.99,8.96 -0.28,2.34 -1.44,4.45 -3.16,5.79 -1.2,0.94 -2.62,1.43 -4.05,1.43z"/>
   <path class="fil2" d="M32.58 85.72l-1.04 -0.13c-0.45,-0.06 -0.87,0.26 -0.93,0.72l-1.83 14.66c-0.06,0.46 0.26,0.87 0.72,0.93l1.04 0.13c0.45,0.05 0.87,-0.27 0.92,-0.72l1.84 -14.67c0.06,-0.45 -0.27,-0.86 -0.72,-0.92z"/>
   <path class="fil5" d="M54.09 159.79l0 3.69c-0.18,-0.01 -0.36,-0.02 -0.55,-0.02 -4.63,0 -8.39,3.01 -8.39,6.71l16.78 0c0,0 2.7,-3.3 0,-10.38 -0.69,-1.83 -7.84,0 -7.84,0z"/>
   <path class="fil7" d="M88.1 120.28c0,0 -32.45,-3.77 -41,1.31 -8.54,5.08 3.5,38.63 3.5,38.63 0,0 2.29,2.28 12.53,0.35l-1.58 -23.43c0,0 18.27,2.43 23.92,-2.47 5.15,-4.46 2.63,-14.39 2.63,-14.39z"/>
   <path class="fil10" d="M71.42 114.96c-1.33,0.09 -3.61,0.38 -4.9,0.03 -1.01,-0.19 -4.87,-0.81 -4.84,0.05 0.04,0.93 2.45,1.65 4.1,2 -0.87,0.77 -1.94,2.18 -2.24,3.05 -0.31,0.9 -0.04,1.68 0.66,1.87 -0.19,0.98 0.07,1.45 0.36,1.65 0.73,0.49 1.44,-0.12 1.85,-1.24 -0.02,0.7 -0.14,1.18 0.01,1.67 0.09,0.32 0.46,0.73 0.77,0.84 0.32,0.12 0.79,-0.36 0.97,-0.77 0.24,-0.52 0.44,-1.25 0.52,-1.68 0.05,-0.28 0.03,-0.09 0.19,-0.36 0.46,0.06 1.66,0.06 1.88,0.07 0.81,0.03 1.59,-0.94 2.16,-1.63 0.28,-0.33 -0.24,-5.64 -1.49,-5.55z"/>
   <path class="fil2" d="M64.22 122.08c-0.02,0 -0.04,0 -0.06,0 -0.06,-0.02 -0.1,-0.09 -0.08,-0.16 0.57,-2.18 2.49,-3.52 2.58,-3.58 0.05,-0.04 0.13,-0.02 0.16,0.04 0.04,0.05 0.03,0.13 -0.03,0.17 -0.02,0.01 -1.93,1.35 -2.48,3.44 -0.01,0.05 -0.05,0.08 -0.09,0.09z"/>
   <path class="fil2" d="M66.53 122.19c-0.02,0.01 -0.03,0.01 -0.05,0 -0.07,-0.02 -0.11,-0.09 -0.09,-0.15 0.36,-1.39 1.36,-2.19 1.4,-2.22 0.05,-0.04 0.13,-0.03 0.17,0.02 0.04,0.06 0.03,0.13 -0.02,0.18 -0.01,0 -0.98,0.78 -1.31,2.08 -0.02,0.05 -0.06,0.09 -0.1,0.09z"/>
   <path class="fil10" d="M69.66 115.34c0,0 6.9,-4.15 9.94,-9.15 0.68,-1.1 -10.1,-10.59 -10.1,-10.59l2.56 -3.45 3.42 -3.15c0,0 15.81,9.57 13.77,17.43 -2.17,8.35 -16.19,14 -16.19,14l-3.4 -5.09z"/>
   <path class="fil2" d="M70.84 122.24c-0.57,0.1 -1.2,0.05 -1.9,-0.14 -0.06,-0.02 -0.11,-0.1 -0.09,-0.17 0.02,-0.07 0.09,-0.11 0.16,-0.09 1.1,0.31 2.03,0.23 2.78,-0.26 1.33,-0.87 1.65,-2.73 1.65,-2.74 0.01,-0.08 0.08,-0.13 0.15,-0.11 0.07,0.01 0.12,0.08 0.11,0.15 -0.02,0.08 -0.34,1.99 -1.77,2.92 -0.33,0.22 -0.69,0.36 -1.09,0.44z"/>
   <path class="fil2" d="M73.12 120.41c-0.06,0.02 -0.12,-0.02 -0.15,-0.08 -0.02,-0.07 0.01,-0.15 0.08,-0.17 0.04,-0.02 3.74,-1.46 7.58,-3.98 6.4,-4.2 8.25,-8.11 8.68,-10.66 1.18,-6.92 -13.65,-16.37 -13.8,-16.47 -0.06,-0.04 -0.08,-0.12 -0.04,-0.18 0.03,-0.07 0.11,-0.08 0.17,-0.05 0.04,0.03 3.82,2.43 7.4,5.66 4.84,4.37 7.04,8.1 6.53,11.09 -0.8,4.7 -5.23,8.49 -8.81,10.84 -3.86,2.53 -7.58,3.98 -7.62,4l-0.02 0z"/>
   <path class="fil2" d="M67.5 125.02c-0.13,0.02 -0.27,0 -0.42,-0.06 -0.6,-0.28 -0.91,-0.87 -0.89,-1.74 0,-0.02 0,-0.04 0,-0.06 -0.16,0.27 -0.36,0.53 -0.61,0.67 -0.21,0.12 -0.43,0.15 -0.66,0.08 -0.39,-0.11 -0.66,-0.33 -0.82,-0.65 -0.23,-0.47 -0.11,-1.02 -0.05,-1.24 -0.45,-0.27 -0.7,-0.63 -0.75,-1.09 -0.17,-1.42 1.69,-3.31 2.28,-3.86 -1.02,-0.26 -3.93,-1.07 -4.02,-1.77 -0.03,-0.25 0.03,-0.45 0.19,-0.6 0.45,-0.44 1.77,-0.42 4.14,0.05 0.6,0.12 1.16,0.19 1.68,0.23 1.03,0.06 2.35,0.04 3.46,-0.74 4.69,-3.31 7.53,-6.66 8.47,-8.12 0.1,-0.15 0.04,-1 -4.75,-5.57 -2.58,-2.47 -5.3,-4.83 -5.33,-4.85 -0.05,-0.05 -0.05,-0.13 -0.01,-0.18 0.04,-0.05 0.12,-0.06 0.17,-0.01 0.03,0.02 2.75,2.38 5.34,4.86 5.31,5.07 4.93,5.67 4.78,5.89 -2.48,3.86 -7.92,7.75 -8.53,8.19 -1.32,0.93 -2.99,0.82 -3.62,0.78 -0.52,-0.04 -1.09,-0.12 -1.7,-0.24 -2.23,-0.44 -3.55,-0.47 -3.94,-0.1 -0.09,0.09 -0.13,0.21 -0.11,0.38 0.05,0.4 2.1,1.13 4.06,1.61 0.04,0.01 0.08,0.05 0.09,0.09 0.01,0.05 -0.01,0.1 -0.04,0.13 -0.03,0.02 -2.55,2.28 -2.37,3.8 0.05,0.41 0.28,0.72 0.71,0.95 0.06,0.03 0.08,0.09 0.06,0.15 0,0.01 -0.23,0.65 0.01,1.15 0.12,0.25 0.35,0.43 0.67,0.52 0.16,0.05 0.32,0.03 0.47,-0.06 0.48,-0.27 0.78,-1.1 0.89,-1.43 0.02,-0.09 0.04,-0.14 0.04,-0.15 0.03,-0.07 0.09,-0.1 0.15,-0.08 0.07,0.02 0.1,0.09 0.09,0.15 -0.01,0.01 -0.02,0.07 -0.05,0.15 -0.12,0.47 -0.45,2.01 0.6,2.48 0.14,0.06 0.27,0.06 0.39,0 0.21,-0.11 0.51,-0.46 0.74,-1.54 0.26,-1.22 0.94,-1.84 0.97,-1.86 0.05,-0.05 0.13,-0.04 0.17,0.01 0.05,0.06 0.04,0.13 -0.01,0.18 -0.01,0.01 -0.65,0.59 -0.9,1.72 -0.2,0.95 -0.49,1.52 -0.86,1.71 -0.06,0.03 -0.12,0.06 -0.18,0.07z"/>
   <path class="fil9" d="M63.31 94.28c0,0 -0.62,-8.66 4.03,-8.66 9.09,0.01 12.71,5.56 12.71,5.56 0,0 -3.33,6.99 -8.04,7.87l-8.7 -4.77z"/>
   <path class="fil10" d="M34.14 95.26c0,0 1.24,-2.08 0.16,-4 -1.09,-1.91 -1.09,-3.48 -2.1,-3.28 -1,0.2 1.49,3.88 -0.95,5.7l2.89 1.58z"/>
   <path class="fil2" d="M34.14 95.38c-0.02,0 -0.05,-0.01 -0.06,-0.02 -0.06,-0.03 -0.08,-0.11 -0.05,-0.16 0.02,-0.02 1.2,-2.05 0.16,-3.88 -0.39,-0.69 -0.65,-1.35 -0.85,-1.88 -0.4,-1.01 -0.59,-1.45 -1.11,-1.34 -0.05,0.01 -0.08,0.03 -0.11,0.06 -0.11,0.18 -0.01,0.69 0.11,1.23 0.26,1.28 0.67,3.21 -0.91,4.38 -0.05,0.04 -0.13,0.03 -0.17,-0.02 -0.04,-0.06 -0.03,-0.13 0.03,-0.17 1.45,-1.08 1.08,-2.85 0.81,-4.14 -0.14,-0.67 -0.24,-1.15 -0.07,-1.41 0.06,-0.09 0.15,-0.15 0.26,-0.17 0.74,-0.15 1.01,0.54 1.38,1.49 0.21,0.52 0.46,1.17 0.84,1.85 1.11,1.95 -0.11,4.03 -0.16,4.12 -0.02,0.04 -0.06,0.06 -0.1,0.06z"/>
   <path class="fil10" d="M29.6 96.9c0.65,-0.12 1.78,-0.55 2.3,-1.2 0.53,-0.65 0.01,-1.39 -1.35,-0.91 -0.61,0.22 -1.48,0.47 -1.79,0.69 -0.76,0.52 -0.23,1.62 0.84,1.42z"/>
   <path class="fil2" d="M28.56 96.35c0.12,0.3 0.49,0.55 1.02,0.45 0.59,-0.11 1.72,-0.52 2.24,-1.16 0.19,-0.24 0.23,-0.5 0.11,-0.67 -0.15,-0.22 -0.59,-0.35 -1.34,-0.09 -0.16,0.06 -0.32,0.11 -0.49,0.17 -0.5,0.17 -1.06,0.35 -1.29,0.51 -0.07,0.05 -0.14,0.11 -0.18,0.18 -0.16,0.2 -0.15,0.44 -0.07,0.61zm3.42 -0.59c-0.56,0.69 -1.72,1.12 -2.36,1.24 -0.65,0.12 -1.1,-0.2 -1.25,-0.57 -0.16,-0.38 -0.03,-0.79 0.33,-1.04 0.24,-0.17 0.8,-0.35 1.33,-0.53 0.17,-0.06 0.34,-0.11 0.49,-0.17 0.73,-0.26 1.32,-0.2 1.58,0.16 0.17,0.24 0.13,0.57 -0.09,0.87 -0.01,0.02 -0.02,0.03 -0.03,0.04z"/>
   <path class="fil10" d="M29.18 95.67c0.86,0.1 2.45,0 3.41,-0.6 0.96,-0.6 0.69,-1.71 -1.21,-1.64 -0.87,0.03 -2.06,0.01 -2.55,0.16 -1.18,0.36 -1.06,1.92 0.35,2.08z"/>
   <path class="fil2" d="M28.16 94.66c0.03,0.35 0.32,0.8 1.04,0.88 0.78,0.09 2.37,0.01 3.32,-0.58 0.36,-0.23 0.54,-0.54 0.46,-0.81 -0.1,-0.31 -0.57,-0.63 -1.6,-0.59 -0.21,0.01 -0.45,0.01 -0.68,0.02 -0.7,0.01 -1.48,0.03 -1.83,0.14 -0.24,0.07 -0.42,0.2 -0.55,0.36 -0.12,0.17 -0.18,0.36 -0.16,0.58zm4.5 0.52c-1.02,0.63 -2.65,0.72 -3.5,0.62 -0.86,-0.1 -1.22,-0.66 -1.26,-1.12 -0.04,-0.46 0.22,-1.01 0.89,-1.22 0.39,-0.12 1.16,-0.13 1.9,-0.15 0.24,0 0.47,-0.01 0.68,-0.01 1,-0.04 1.7,0.25 1.86,0.77 0.08,0.25 0.02,0.51 -0.16,0.74 -0.1,0.14 -0.24,0.26 -0.41,0.37z"/>
   <path class="fil10" d="M28.94 93.98c0.86,0.1 2.45,-0.01 3.41,-0.61 0.96,-0.59 0.69,-1.71 -1.21,-1.64 -0.87,0.04 -2.06,0.02 -2.54,0.16 -1.19,0.36 -1.07,1.93 0.34,2.09z"/>
   <path class="fil2" d="M27.92 92.96c0.04,0.36 0.33,0.8 1.04,0.88 0.78,0.09 2.37,0.01 3.32,-0.58 0.37,-0.23 0.54,-0.54 0.46,-0.81 -0.1,-0.31 -0.57,-0.62 -1.6,-0.58 -0.21,0 -0.44,0.01 -0.68,0.01 -0.69,0.02 -1.48,0.03 -1.83,0.14 -0.23,0.07 -0.42,0.2 -0.55,0.37 -0.12,0.16 -0.17,0.36 -0.16,0.57zm4.5 0.53c-1.01,0.63 -2.65,0.72 -3.49,0.62 -0.87,-0.1 -1.23,-0.67 -1.27,-1.13 -0.04,-0.45 0.22,-1.01 0.9,-1.21 0.38,-0.12 1.15,-0.14 1.89,-0.15 0.24,-0.01 0.47,-0.01 0.68,-0.02 1.01,-0.04 1.7,0.25 1.86,0.78 0.08,0.24 0.02,0.5 -0.15,0.74 -0.11,0.13 -0.24,0.26 -0.42,0.37z"/>
   <path class="fil10" d="M28.65 92.2c0.72,0.08 2.06,-0.01 2.87,-0.51 0.81,-0.51 0.58,-1.45 -1.02,-1.39 -0.73,0.03 -1.74,0.01 -2.15,0.14 -1,0.3 -0.9,1.62 0.3,1.76z"/>
   <path class="fil2" d="M27.81 91.34c0.02,0.29 0.26,0.66 0.85,0.72 0.66,0.08 1.99,0.01 2.79,-0.49 0.3,-0.18 0.45,-0.43 0.38,-0.65 -0.08,-0.26 -0.47,-0.52 -1.33,-0.49 -0.18,0.01 -0.37,0.02 -0.57,0.02 -0.59,0.01 -1.25,0.03 -1.54,0.11 -0.19,0.06 -0.35,0.17 -0.45,0.31 -0.1,0.13 -0.15,0.29 -0.13,0.47zm3.79 0.46c-0.87,0.54 -2.25,0.61 -2.97,0.53l0.02 -0.13 -0.02 0.13c-0.75,-0.09 -1.05,-0.58 -1.09,-0.97 -0.04,-0.47 0.27,-0.9 0.77,-1.05 0.33,-0.1 0.98,-0.11 1.61,-0.13 0.2,0 0.4,0 0.57,-0.01 0.86,-0.03 1.46,0.22 1.59,0.67 0.07,0.21 0.02,0.44 -0.13,0.64 -0.09,0.12 -0.21,0.23 -0.35,0.32z"/>
   <path class="fil19" d="M44.64 111.58l0 0c-0.06,0 -0.11,-0.06 -0.11,-0.12 0.06,-2.15 -2.06,-4.08 -2.09,-4.1 -0.04,-0.05 -0.05,-0.12 0,-0.16 0.04,-0.05 0.11,-0.06 0.16,-0.01 0.09,0.08 2.22,2.02 2.16,4.28 0,0.06 -0.05,0.11 -0.12,0.11z"/>
   <path class="fil10" d="M50.41 98.4c1.96,0.99 4.15,1.64 5.76,0.91 0.54,-0.25 0.82,-0.52 0.79,-0.77 -0.04,-0.32 -0.58,-0.61 -1.42,-0.76 -1.33,-0.24 -3.29,-0.14 -5.13,0.62zm-3.88 3.44l-0.11 -0.05c0.87,-1.66 2.23,-2.74 3.7,-3.4 -0.23,-0.11 -0.46,-0.24 -0.7,-0.38 -2.17,-1.23 -3.89,-2.69 -3.9,-2.71l0.07 -0.09c0.04,0.03 2.16,1.83 4.68,3.12 1.89,-0.8 3.92,-0.92 5.29,-0.67 0.91,0.17 1.48,0.49 1.52,0.87 0.03,0.21 -0.1,0.54 -0.86,0.89 -1.01,0.46 -2.85,0.63 -5.97,-0.96 -1.47,0.64 -2.85,1.72 -3.72,3.38z"/>
   <path class="fil10" d="M63.34 103.1c-2.04,0 -3.96,0.86 -5.04,1.83 -0.67,0.6 -0.96,1.19 -0.78,1.57 0.14,0.29 0.68,0.71 2.74,0.35 1.24,-0.22 2.74,-1.12 4.11,-3.68 -0.34,-0.05 -0.69,-0.07 -1.03,-0.07zm-6.22 10.62c-0.88,0 -1.74,-0.1 -2.56,-0.33l0.04 -0.11c4.98,1.4 11.95,-1.91 13.5,-5.41 0.68,-1.51 0.22,-2.83 -1.32,-3.8 -0.73,-0.46 -1.5,-0.74 -2.28,-0.87 -1.16,2.21 -2.58,3.48 -4.21,3.77 -2.04,0.35 -2.69,-0.03 -2.88,-0.42 -0.21,-0.43 0.1,-1.07 0.81,-1.71 0.94,-0.84 2.34,-1.49 3.75,-1.75 0.67,-0.12 1.53,-0.18 2.46,-0.03 0.87,-1.66 1.68,-4 2.32,-7.26 1.01,-5.1 1.14,-10.1 1.15,-10.15l0.12 0c-0.01,0.05 -0.14,5.07 -1.15,10.17 -0.59,3 -1.37,5.44 -2.3,7.26 0.73,0.13 1.51,0.4 2.27,0.89 1.58,0.99 2.06,2.39 1.37,3.95 -1.32,2.97 -6.48,5.8 -11.09,5.8z"/>
   <path class="fil10" d="M77.54 94.99c-3.35,-1.65 -4.79,-3.95 -5.4,-5.59 -0.66,-1.78 -0.52,-3.19 -0.52,-3.21l0.12 0.02c0,0.01 -0.14,1.4 0.52,3.15 0.6,1.62 2.02,3.89 5.34,5.52l-0.06 0.11z"/>
   <path class="fil4" d="M220.58 70.62c0,2.5 -1.59,4.53 -3.54,4.53 -1.96,0 -3.55,-2.03 -3.55,-4.53 0,-2.5 1.59,-4.53 3.55,-4.53 1.95,0 3.54,2.03 3.54,4.53z"/>
   <path class="fil10" d="M211.68 74c0,0 8.78,15.98 2.47,21.45 -4.83,4.18 -20.9,-4.66 -20.9,-4.66l0.83 -8.01 14.07 3.68 -0.69 -12.43 4.22 -0.03z"/>
   <path class="fil11" d="M214.99 94.75c1.92,-2.44 2.07,-6.59 0.41,-12.11 -1.39,-4.64 -3.59,-8.66 -3.61,-8.7 -0.04,-0.06 -0.11,-0.08 -0.17,-0.05 -0.06,0.04 -0.08,0.11 -0.05,0.17 0.09,0.16 8.66,15.96 2.5,21.3 -4.55,3.93 -19.51,-4.01 -20.68,-4.64l0.8 -7.78 13.93 3.64c0.04,0.01 0.08,0 0.11,-0.02 0.03,-0.03 0.05,-0.07 0.04,-0.11l-0.69 -12.43c0,-0.07 -0.06,-0.12 -0.13,-0.12 -0.07,0 -0.12,0.06 -0.12,0.13l0.68 12.27 -13.9 -3.64c-0.04,-0.01 -0.07,-0.01 -0.11,0.01 -0.03,0.03 -0.05,0.06 -0.05,0.09l-0.82 8.01c-0.01,0.05 0.02,0.1 0.06,0.13 0.04,0.02 4.08,2.23 8.66,3.91 6.17,2.25 10.34,2.5 12.38,0.74 0.28,-0.25 0.54,-0.51 0.76,-0.8z"/>
   <polygon class="fil4" points="216.67,75.13 209.93,73.68 209.93,67.38 216.68,66.12 "/>
   <path class="fil5" d="M159.68 160.54l-3.68 0c0.01,0.18 0.01,0.36 0.01,0.54 0,4.64 -3,8.4 -6.7,8.4l0 -16.79c0,0 5.13,-2.42 12.2,0.27 1.83,0.7 -1.83,7.58 -1.83,7.58z"/>
   <path class="fil6" d="M152.96 156.74c0,-0.02 0.01,-0.04 0.02,-0.05 0.03,-0.07 0.1,-0.09 0.17,-0.06 1.47,0.68 2.2,1.7 2.55,2.44 0.39,0.8 0.42,1.43 0.42,1.46 0.01,0.07 -0.05,0.13 -0.12,0.13 -0.07,0.01 -0.12,-0.05 -0.13,-0.12 0,-0.02 -0.16,-2.44 -2.83,-3.68 -0.05,-0.03 -0.08,-0.07 -0.08,-0.12z"/>
   <path class="fil5" d="M216.2 159.1l0 3.69c0.18,-0.01 0.37,-0.02 0.55,-0.02 4.64,0 8.39,3 8.39,6.71l-16.78 0c0,0 -2.69,-3.31 0,-10.38 0.7,-1.83 7.84,0 7.84,0z"/>
   <path class="fil6" d="M212.41 165.82c-0.02,0 -0.04,0 -0.06,-0.01 -0.06,-0.03 -0.09,-0.1 -0.06,-0.17 0.69,-1.47 1.71,-2.2 2.44,-2.56 0.81,-0.38 1.44,-0.42 1.47,-0.42 0.07,0 0.12,0.05 0.13,0.12 0,0.07 -0.05,0.13 -0.12,0.13 -0.03,0.01 -2.44,0.16 -3.69,2.84 -0.02,0.04 -0.07,0.07 -0.11,0.07z"/>
   <path class="fil13" d="M188.4 124.59c0,0 26.25,-8.37 34.79,-3.29 8.54,5.07 -3.5,38.63 -3.5,38.63 0,0 -3.75,2.32 -13.99,0.39l4.09 -23.6c0,0 -21.9,7.72 -27.49,0.19 -4.07,-5.47 -0.31,-12.59 6.1,-12.32z"/>
   <path class="fil21" d="M209.79 136.9l-0.01 0c-0.01,0 -0.01,0 -0.02,0l0.03 -0.18c0,0 -0.06,0.02 -0.17,0.06 0,-0.02 -0.01,-0.05 -0.01,-0.08 0.38,-3.1 2.46,-5.1 2.55,-5.18 0.07,-0.07 0.18,-0.07 0.25,0.01 0.07,0.07 0.07,0.18 -0.01,0.25 -0.02,0.02 -2.07,2 -2.42,4.96 -0.01,0.1 -0.09,0.16 -0.19,0.16z"/>
   <path class="fil13" d="M189.78 126.02c0,0 10.4,31.41 6.27,40.45 -4.13,9.04 -36.51,-1.55 -36.51,-1.55 0,0 -1.52,-7.06 1.29,-13.23l19.18 2.11c0,0 -12.97,-24.96 -7.5,-32.36 4.05,-5.48 16.86,-1.82 17.27,4.58z"/>
   <path class="fil9" d="M206.14 86.02c0,0 -18.66,-14.85 -33.87,-0.73 -6.15,5.7 -2.54,47.25 -2.54,47.25 23.4,3.21 33.64,-11.65 33.64,-11.65 0,0 0.62,-13.85 -1.22,-27.1 1.65,-1.28 3.59,-3.64 3.99,-7.77z"/>
   <path class="fil10" d="M185.51 81.39l1.2 -0.04c1.16,-0.04 2.08,-1.03 2.04,-2.19l-0.15 -4.33c-0.04,-1.16 -1.03,-2.08 -2.19,-2.04l-1.2 0.04c-1.17,0.04 -2.09,1.02 -2.05,2.19l0.16 4.33c0.04,1.16 1.02,2.08 2.19,2.04z"/>
   <path class="fil16" d="M186.48 72.94c-0.02,0 -0.04,0 -0.07,0l-1.2 0.05c-0.52,0.01 -1,0.24 -1.36,0.62 -0.36,0.38 -0.55,0.88 -0.53,1.4l0.15 4.33c0.04,1.08 0.95,1.93 2.03,1.89l1.2 -0.04c0.52,-0.02 1,-0.24 1.36,-0.62 0.36,-0.39 0.55,-0.89 0.53,-1.41l-0.15 -4.32c-0.03,-1.06 -0.91,-1.9 -1.96,-1.9zm-1.05 8.61c-1.22,0 -2.23,-0.97 -2.27,-2.2l-0.15 -4.33c-0.02,-0.6 0.19,-1.18 0.61,-1.63 0.42,-0.44 0.98,-0.7 1.58,-0.72l1.2 -0.04c1.25,-0.04 2.31,0.94 2.36,2.2l0.15 4.32c0.02,0.61 -0.2,1.19 -0.62,1.63 -0.41,0.45 -0.97,0.7 -1.58,0.73l-1.2 0.04c-0.03,0 -0.05,0 -0.08,0z"/>
   <path class="fil10" d="M181.52 72.25c2.03,3.81 5.93,5.71 8.7,4.23 2.77,-1.48 2.96,-6.41 1.33,-9.6 -1.97,-3.85 -5.93,-5.71 -8.7,-4.23 -2.77,1.48 -3.37,5.78 -1.33,9.6z"/>
   <path class="fil16" d="M181.65 72.17c1.16,2.17 3.01,3.82 4.96,4.42 1.28,0.38 2.5,0.3 3.53,-0.25 1.24,-0.66 2.04,-2.1 2.24,-4.04 0.19,-1.8 -0.17,-3.79 -0.97,-5.34 -1.1,-2.15 -2.91,-3.79 -4.86,-4.4 -1.32,-0.41 -2.57,-0.33 -3.63,0.23 -2.69,1.44 -3.26,5.65 -1.27,9.38zm6.51 4.97c-0.53,0 -1.08,-0.08 -1.64,-0.25 -2.02,-0.62 -3.95,-2.33 -5.15,-4.57 -2.07,-3.89 -1.44,-8.29 1.41,-9.81 1.13,-0.6 2.46,-0.69 3.86,-0.25 2.03,0.63 3.92,2.34 5.05,4.55 1.69,3.29 1.44,8.29 -1.4,9.81 -0.65,0.34 -1.37,0.52 -2.13,0.52z"/>
   <path class="fil4" d="M184.73 64.23c0,0 1.59,1.81 0.44,2.72 -1.16,0.91 -2.15,-0.33 -2.15,-0.33 0,0 2.6,2.35 1.04,3.63 -1.57,1.27 -3.15,-1.73 -3.15,-1.73l0.26 -2.98 3.56 -1.31z"/>
   <path class="fil4" d="M184.64 65.52c0,0 3.77,2.97 7.36,-0.39 0,0 1.87,-3.14 -3.02,-4.62 0,0 -1.41,-0.48 -2.72,-0.12 0,0 1.85,-0.84 0.61,-1.7 -1.24,-0.87 -3.44,-0.14 -5.33,1.68 0,0 0.66,-1.84 -1.05,-1.69 -1.71,0.15 -3.27,1.64 -3.09,4.42 0,0 -0.41,-0.69 -1.05,-0.57 -0.63,0.11 -0.18,0.96 0.42,1.14 0,0 -1.61,-0.48 -1.66,0.24 -0.06,0.71 1.46,0.5 1.46,0.5 0,0 -2.91,6.41 3.01,8.17 0,0 -1.6,2.3 1.75,1.2 0,0 0.25,1.77 1.39,0.26 0,0 -0.39,-0.38 -0.23,-2.52 0.08,-1.01 2.15,-6 2.15,-6z"/>
   <path class="fil16" d="M188.71 72.94c-0.36,0 -0.75,-0.06 -1.16,-0.23 -0.06,-0.03 -0.09,-0.09 -0.06,-0.15 0.02,-0.06 0.09,-0.08 0.14,-0.06 1.42,0.58 2.65,-0.22 2.66,-0.23 0.06,-0.03 0.13,-0.02 0.16,0.03 0.04,0.05 0.02,0.12 -0.03,0.16 -0.04,0.02 -0.74,0.48 -1.71,0.48z"/>
   <path class="fil16" d="M187.77 73.21c-0.04,0 -0.07,-0.02 -0.09,-0.06 -0.31,-0.53 -0.2,-0.94 -0.2,-0.96 0.02,-0.06 0.08,-0.09 0.14,-0.08 0.06,0.02 0.1,0.08 0.08,0.14 0,0.02 -0.08,0.35 0.17,0.79 0.03,0.05 0.01,0.12 -0.04,0.15 -0.02,0.01 -0.04,0.02 -0.06,0.02z"/>
   <path class="fil4" d="M187.22 68.31c0.04,-0.01 0.07,-0.04 0.08,-0.08 0.02,-0.07 -0.02,-0.14 -0.08,-0.16 -0.04,-0.01 -0.93,-0.37 -1.6,0.5 -0.04,0.06 -0.03,0.14 0.02,0.18 0.06,0.04 0.13,0.03 0.18,-0.02 0.54,-0.44 1.29,-0.43 1.32,-0.42 0.03,0.01 0.06,0.01 0.08,0z"/>
   <path class="fil4" d="M186.35 69.78c0.02,0.3 0.21,0.53 0.43,0.52 0.22,-0.01 0.38,-0.26 0.36,-0.57 -0.01,-0.3 -0.21,-0.53 -0.42,-0.52 -0.22,0.01 -0.38,0.27 -0.37,0.57z"/>
   <path class="fil4" d="M189.93 68.94c0.02,0.31 0.21,0.54 0.43,0.53 0.22,-0.01 0.38,-0.27 0.36,-0.57 -0.01,-0.3 -0.2,-0.53 -0.42,-0.52 -0.22,0.01 -0.38,0.26 -0.37,0.56z"/>
   <path class="fil10" d="M182.61 72.34c0.69,0.33 1.45,0.2 1.69,-0.31 0.24,-0.5 -0.25,-1.23 -0.81,-1.52 -0.69,-0.35 -1.45,-0.2 -1.69,0.31 -0.25,0.5 0.12,1.18 0.81,1.52z"/>
   <path class="fil4" d="M208.48 75.56l-18.35 -3.85c-1.24,0 -2.24,-1.05 -2.24,-2.34 0,-1.28 1,-2.34 2.24,-2.34l18.74 -1.37c1.23,0 3.38,2.43 3.38,3.71 0,1.29 -2.54,6.19 -3.77,6.19z"/>
   <path class="fil4" d="M212.6 70.62c0,2.74 -1.74,4.96 -3.88,4.96 -2.15,0 -3.88,-2.22 -3.88,-4.96 0,-2.74 1.73,-4.96 3.88,-4.96 2.14,0 3.88,2.22 3.88,4.96z"/>
   <path class="fil12" d="M212.09 70.69c0,2.38 -1.51,4.31 -3.37,4.31 -1.86,0 -3.38,-1.93 -3.38,-4.31 0,-2.38 1.52,-4.31 3.38,-4.31 1.86,0 3.37,1.93 3.37,4.31z"/>
   <path class="fil12" d="M220.12 70.68c0,2.18 -1.38,3.94 -3.08,3.94 -1.7,0 -3.08,-1.76 -3.08,-3.94 0,-2.17 1.38,-3.93 3.08,-3.93 1.7,0 3.08,1.76 3.08,3.93z"/>
   <path class="fil10" d="M203.9 78.15c0,0 -2.58,23.55 -11.3,26.94 -6.67,2.59 -18.61,-10 -18.61,-10l4.61 -8.18 11.3 7.6c0,0 7.35,-10.53 8.92,-14.48 0.36,-0.92 0.01,-1.64 0.01,-1.64l5.07 -0.24z"/>
   <path class="fil11" d="M190.59 105.69c-2.6,0 -5.92,-1.48 -9.9,-4.42 -3.78,-2.8 -6.8,-5.96 -6.82,-5.99 -0.06,-0.05 -0.07,-0.13 -0.03,-0.19l4.62 -8.19c0.02,-0.04 0.06,-0.07 0.1,-0.08 0.05,-0.01 0.1,0 0.14,0.03l11.15 7.51c0.86,-1.24 7.37,-10.66 8.81,-14.31 0.33,-0.85 0.03,-1.5 0.02,-1.51 -0.04,-0.08 -0.01,-0.18 0.08,-0.22 0.08,-0.04 0.18,-0.01 0.22,0.07 0.02,0.04 0.38,0.8 -0.01,1.78 -1.56,3.92 -8.86,14.41 -8.94,14.51 -0.05,0.08 -0.15,0.1 -0.23,0.04l-11.14 -7.5 -4.47 7.92c1.09,1.12 12.15,12.28 18.35,9.87 2.45,-0.95 5.97,-4.26 8.82,-14.63 1.71,-6.22 2.37,-12.11 2.38,-12.17 0.01,-0.09 0.09,-0.15 0.18,-0.14 0.09,0.01 0.16,0.09 0.15,0.18 -0.01,0.06 -0.67,5.97 -2.39,12.22 -2.32,8.43 -5.35,13.43 -9.02,14.85 -0.63,0.24 -1.32,0.37 -2.07,0.37z"/>
   <path class="fil10" d="M196.49 74.18c-0.18,-1.25 -0.16,-2.61 0.47,-2.51 0.43,0.08 0.81,1.73 1.25,2.39 -0.03,-1.08 0,-2.2 0.16,-3.15 0.19,-1.06 0.89,-2.29 1.63,-2.42 0.95,-0.16 0.26,1.64 0.26,1.64 0.81,-2.06 3.43,-2.54 1.71,-0.44 1.31,-1.35 2.45,-0.83 1.85,-0.12 -0.16,0.19 -0.35,0.45 -0.49,0.61 0.02,-0.01 0.8,-0.59 1.05,-0.09 0.27,0.51 -0.25,0.78 -0.51,2.17 -0.53,2.84 1.54,1.74 0.03,5.97l-3.59 0.71c0,0 -1.28,-0.31 -1.27,-0.34l-0.36 -0.23c0,0 -0.03,0.02 -0.03,-0.02 -0.29,-0.46 -0.63,-0.99 -0.96,-1.4 -0.74,-0.91 -1.06,-1.71 -1.2,-2.77z"/>
   <path class="fil10" d="M202.57 72.45c0.09,-1.02 0.14,-1.77 1.04,-2.64 0.95,-0.9 -0.22,-1.62 -1.52,-0.26l0.48 2.9z"/>
   <path class="fil11" d="M202.57 72.61l-0.01 0c-0.09,-0.01 -0.16,-0.09 -0.15,-0.18l0 -0.04c0.08,-1 0.15,-1.79 1.09,-2.7 0.21,-0.2 0.32,-0.41 0.28,-0.56 -0.02,-0.09 -0.11,-0.13 -0.18,-0.15 -0.27,-0.07 -0.8,0.07 -1.39,0.69 -0.07,0.06 -0.17,0.06 -0.24,0 -0.07,-0.06 -0.07,-0.17 -0.01,-0.23 0.7,-0.73 1.35,-0.88 1.73,-0.78 0.21,0.05 0.37,0.2 0.41,0.39 0.05,0.16 0.05,0.48 -0.37,0.88 -0.85,0.82 -0.91,1.52 -0.99,2.49l0 0.04c-0.01,0.09 -0.08,0.15 -0.17,0.15z"/>
   <path class="fil10" d="M198.31 75.14c0,0 -0.23,-1.5 0.06,-4.23 0.13,-1.24 1.22,-2.35 1.63,-2.42 0.54,-0.08 0.64,0.56 0.24,1.72 -0.41,1.18 -0.41,2.33 -0.41,2.33l-1.52 2.6z"/>
   <path class="fil11" d="M198.31 75.3c-0.08,0 -0.15,-0.06 -0.17,-0.14 -0.01,-0.06 -0.22,-1.55 0.07,-4.27 0.13,-1.26 1.25,-2.48 1.76,-2.56 0.28,-0.05 0.43,0.07 0.52,0.16 0.24,0.29 0.21,0.89 -0.1,1.78 -0.39,1.14 -0.4,2.26 -0.4,2.28 0,0.09 -0.07,0.16 -0.16,0.16l0 0c-0.1,0 -0.17,-0.07 -0.17,-0.17 0,-0.04 0.01,-1.19 0.42,-2.38 0.29,-0.86 0.27,-1.31 0.16,-1.45 -0.02,-0.02 -0.07,-0.08 -0.22,-0.05 -0.29,0.05 -1.36,1.08 -1.48,2.27 -0.28,2.67 -0.07,4.17 -0.07,4.18 0.02,0.09 -0.05,0.18 -0.14,0.19l-0.02 0z"/>
   <path class="fil10" d="M201.22 72.22c0,0 -0.27,-1.27 0.75,-2.53 1.72,-2.1 -1,-1.57 -1.71,0.44l0.96 2.09z"/>
   <path class="fil11" d="M201.22 72.39c-0.08,0 -0.14,-0.05 -0.16,-0.13 -0.01,-0.06 -0.28,-1.37 0.78,-2.67 0.51,-0.61 0.56,-0.93 0.51,-1.02 -0.03,-0.06 -0.13,-0.05 -0.18,-0.05 -0.48,0.03 -1.39,0.65 -1.75,1.67 -0.03,0.09 -0.13,0.13 -0.21,0.1 -0.09,-0.03 -0.13,-0.12 -0.1,-0.21 0.41,-1.17 1.45,-1.85 2.04,-1.89 0.32,-0.03 0.45,0.13 0.5,0.23 0.15,0.29 -0.04,0.75 -0.55,1.38 -0.96,1.17 -0.72,2.38 -0.72,2.39 0.02,0.09 -0.03,0.18 -0.13,0.2 -0.01,0 -0.02,0 -0.03,0z"/>
   <path class="fil10" d="M203.9 78.23c1.51,-4.23 -0.38,-3.1 -0.03,-5.97 0.17,-1.34 0.78,-1.66 0.51,-2.17 -0.26,-0.5 -1.18,0.19 -1.18,0.19l0.7 7.95z"/>
   <path class="fil11" d="M203.9 78.4c-0.02,0 -0.03,-0.01 -0.05,-0.01 -0.09,-0.03 -0.14,-0.13 -0.11,-0.21 0.87,-2.43 0.59,-3.04 0.29,-3.69 -0.22,-0.48 -0.48,-1.03 -0.32,-2.25 0.08,-0.67 0.27,-1.1 0.41,-1.41 0.15,-0.34 0.21,-0.48 0.11,-0.67 -0.02,-0.05 -0.05,-0.07 -0.1,-0.08 -0.22,-0.05 -0.66,0.2 -0.83,0.33 -0.07,0.05 -0.18,0.04 -0.23,-0.04 -0.06,-0.07 -0.04,-0.17 0.03,-0.23 0.07,-0.05 0.67,-0.49 1.1,-0.39 0.15,0.04 0.26,0.13 0.33,0.26 0.18,0.34 0.05,0.61 -0.1,0.96 -0.14,0.3 -0.32,0.69 -0.39,1.31 -0.14,1.13 0.08,1.61 0.29,2.07 0.33,0.71 0.64,1.38 -0.27,3.94 -0.03,0.07 -0.09,0.11 -0.16,0.11z"/>
   <path class="fil10" d="M198.86 78.51c0,0 -0.43,-0.65 -1.17,-1.56 -0.74,-0.91 -1.06,-1.71 -1.2,-2.77 -0.18,-1.25 -0.16,-2.61 0.47,-2.51 0.46,0.08 0.71,1.8 1.2,2.33l0.7 4.51z"/>
   <path class="fil11" d="M198.86 78.68c-0.05,0 -0.11,-0.03 -0.14,-0.07 0,-0.01 -0.44,-0.66 -1.16,-1.55 -0.72,-0.88 -1.08,-1.71 -1.24,-2.86 -0.1,-0.77 -0.22,-2.12 0.23,-2.56 0.11,-0.11 0.27,-0.16 0.43,-0.13 0.36,0.06 0.55,0.61 0.77,1.24 0.16,0.43 0.33,0.92 0.53,1.13 0.07,0.07 0.06,0.17 -0.01,0.24 -0.06,0.06 -0.17,0.06 -0.23,-0.01 -0.25,-0.27 -0.43,-0.77 -0.6,-1.25 -0.14,-0.4 -0.35,-0.99 -0.51,-1.02 -0.06,-0.01 -0.11,0 -0.15,0.04 -0.24,0.23 -0.29,1.12 -0.13,2.27 0.15,1.1 0.48,1.86 1.17,2.7 0.73,0.9 1.18,1.56 1.18,1.57 0.05,0.08 0.03,0.18 -0.04,0.23 -0.03,0.02 -0.07,0.03 -0.1,0.03z"/>
   <path class="fil11" d="M198.31 75.24c-0.05,0 -0.1,-0.04 -0.1,-0.09l-0.15 -1.29c0,-0.05 0.04,-0.1 0.1,-0.11 0.05,-0.01 0.1,0.03 0.11,0.09l0.14 1.28c0.01,0.06 -0.03,0.11 -0.09,0.12l-0.01 0z"/>
   <path class="fil9" d="M175.1 100.84c0,0 -6.61,-9.38 -1.86,-13.89 4.75,-4.52 9.8,-0.53 9.8,-0.53 0,0 0.03,9.65 -7.94,14.42z"/>
   <path class="fil4" d="M195.96 66.36c-0.24,0.16 -0.37,0.27 -0.37,0.27l6.94 0c-2.65,-2.57 -5.57,-0.97 -6.57,-0.27z"/>
  </g>
 </g>
</svg>
